
<svg id="visual" viewBox="0 0 1920 700" width="1920" height="700" xmlns="http://www.w3.org/2000/svg" xmlns:xlink="http://www.w3.org/1999/xlink" version="1.1"><rect x="0" y="0" width="1920" height="700" fill="#e9e9e9"></rect><path d="M0 175L45.7 173.8C91.3 172.7 182.7 170.3 274.2 164.7C365.7 159 457.3 150 548.8 147.8C640.3 145.7 731.7 150.3 823 158.5C914.3 166.7 1005.7 178.3 1097 192.3C1188.3 206.3 1279.7 222.7 1371.2 207.5C1462.7 192.3 1554.3 145.7 1645.8 127.5C1737.3 109.3 1828.7 119.7 1874.3 124.8L1920 130L1920 0L1874.3 0C1828.7 0 1737.3 0 1645.8 0C1554.3 0 1462.7 0 1371.2 0C1279.7 0 1188.3 0 1097 0C1005.7 0 914.3 0 823 0C731.7 0 640.3 0 548.8 0C457.3 0 365.7 0 274.2 0C182.7 0 91.3 0 45.7 0L0 0Z" fill="#3e9763" stroke-linecap="round" stroke-linejoin="miter"></path></svg>