
<svg id="visual" viewBox="0 0 1920 700" width="1920" height="700" xmlns="http://www.w3.org/2000/svg" xmlns:xlink="http://www.w3.org/1999/xlink" version="1.1"><path d="M0 295L80 289.2C160 283.3 320 271.7 480 236.7C640 201.7 800 143.3 960 125.8C1120 108.3 1280 131.7 1440 130.5C1600 129.3 1760 103.7 1840 90.8L1920 78L1920 0L1840 0C1760 0 1600 0 1440 0C1280 0 1120 0 960 0C800 0 640 0 480 0C320 0 160 0 80 0L0 0Z" fill="#e9e9e9"></path><path d="M0 456L80 458.3C160 460.7 320 465.3 480 418.7C640 372 800 274 960 230.8C1120 187.7 1280 199.3 1440 226.2C1600 253 1760 295 1840 316L1920 337L1920 76L1840 88.8C1760 101.7 1600 127.3 1440 128.5C1280 129.7 1120 106.3 960 123.8C800 141.3 640 199.7 480 234.7C320 269.7 160 281.3 80 287.2L0 293Z" fill="#e3e3e3"></path><path d="M0 575L80 584.3C160 593.7 320 612.3 480 565.7C640 519 800 407 960 344C1120 281 1280 267 1440 284.5C1600 302 1760 351 1840 375.5L1920 400L1920 335L1840 314C1760 293 1600 251 1440 224.2C1280 197.3 1120 185.7 960 228.8C800 272 640 370 480 416.7C320 463.3 160 458.7 80 456.3L0 454Z" fill="#dbdbdb"></path><path d="M0 701L80 701C160 701 320 701 480 701C640 701 800 701 960 701C1120 701 1280 701 1440 701C1600 701 1760 701 1840 701L1920 701L1920 398L1840 373.5C1760 349 1600 300 1440 282.5C1280 265 1120 279 960 342C800 405 640 517 480 563.7C320 610.3 160 591.7 80 582.3L0 573Z" fill="#e9e9e9"></path></svg>