
<svg id="visual" viewBox="0 0 1920 540" width="1920" height="540" xmlns="http://www.w3.org/2000/svg" xmlns:xlink="http://www.w3.org/1999/xlink" version="1.1"><rect x="0" y="0" width="1920" height="540" fill="#e9e9e9"></rect><path d="M0 298L40 285C80 272 160 246 240 224.8C320 203.7 400 187.3 480 198C560 208.7 640 246.3 720 253.5C800 260.7 880 237.3 960 252.7C1040 268 1120 322 1200 340.2C1280 358.3 1360 340.7 1440 328.2C1520 315.7 1600 308.3 1680 282.8C1760 257.3 1840 213.7 1880 191.8L1920 170L1920 541L1880 541C1840 541 1760 541 1680 541C1600 541 1520 541 1440 541C1360 541 1280 541 1200 541C1120 541 1040 541 960 541C880 541 800 541 720 541C640 541 560 541 480 541C400 541 320 541 240 541C160 541 80 541 40 541L0 541Z" fill="#cfe6d9"></path></svg>