<svg id="visual" viewBox="0 0 1920 540" width="1920" height="540" xmlns="http://www.w3.org/2000/svg" xmlns:xlink="http://www.w3.org/1999/xlink" version="1.1"><rect x="0" y="0" width="1920" height="540" fill="#e9e9e9"></rect><path d="M0 240L40 253C80 266 160 292 240 313.2C320 334.3 400 350.7 480 340C560 329.3 640 291.7 720 284.5C800 277.3 880 300.7 960 285.3C1040 270 1120 216 1200 197.8C1280 179.7 1360 197.3 1440 209.8C1520 222.3 1600 229.7 1680 255.2C1760 280.7 1840 324.3 1880 346.2L1920 368L1920 0L1880 0C1840 0 1760 0 1680 0C1600 0 1520 0 1440 0C1360 0 1280 0 1200 0C1120 0 1040 0 960 0C880 0 800 0 720 0C640 0 560 0 480 0C400 0 320 0 240 0C160 0 80 0 40 0L0 0Z" fill="#dbdbdb"></path></svg>