<svg id="visual" viewBox="0 0 1920 1100" width="1920" height="1100" xmlns="http://www.w3.org/2000/svg" xmlns:xlink="http://www.w3.org/1999/xlink" version="1.1"><path d="M0 276L29.2 281.5C58.3 287 116.7 298 174.8 287C233 276 291 243 349.2 228.3C407.3 213.7 465.7 217.3 523.8 215.5C582 213.7 640 206.3 698.2 213.7C756.3 221 814.7 243 872.8 237.5C931 232 989 199 1047.2 184.3C1105.3 169.7 1163.7 173.3 1221.8 182.5C1280 191.7 1338 206.3 1396.2 200.8C1454.3 195.3 1512.7 169.7 1570.8 153.2C1629 136.7 1687 129.3 1745.2 151.3C1803.3 173.3 1861.7 224.7 1890.8 250.3L1920 276L1920 0L1890.8 0C1861.7 0 1803.3 0 1745.2 0C1687 0 1629 0 1570.8 0C1512.7 0 1454.3 0 1396.2 0C1338 0 1280 0 1221.8 0C1163.7 0 1105.3 0 1047.2 0C989 0 931 0 872.8 0C814.7 0 756.3 0 698.2 0C640 0 582 0 523.8 0C465.7 0 407.3 0 349.2 0C291 0 233 0 174.8 0C116.7 0 58.3 0 29.2 0L0 0Z" fill="#e9e9e9"></path><path d="M0 386L29.2 398.8C58.3 411.7 116.7 437.3 174.8 420.8C233 404.3 291 345.7 349.2 329.2C407.3 312.7 465.7 338.3 523.8 353C582 367.7 640 371.3 698.2 387.8C756.3 404.3 814.7 433.7 872.8 411.7C931 389.7 989 316.3 1047.2 303.5C1105.3 290.7 1163.7 338.3 1221.8 353C1280 367.7 1338 349.3 1396.2 336.5C1454.3 323.7 1512.7 316.3 1570.8 310.8C1629 305.3 1687 301.7 1745.2 325.5C1803.3 349.3 1861.7 400.7 1890.8 426.3L1920 452L1920 274L1890.8 248.3C1861.7 222.7 1803.3 171.3 1745.2 149.3C1687 127.3 1629 134.7 1570.8 151.2C1512.7 167.7 1454.3 193.3 1396.2 198.8C1338 204.3 1280 189.7 1221.8 180.5C1163.7 171.3 1105.3 167.7 1047.2 182.3C989 197 931 230 872.8 235.5C814.7 241 756.3 219 698.2 211.7C640 204.3 582 211.7 523.8 213.5C465.7 215.3 407.3 211.7 349.2 226.3C291 241 233 274 174.8 285C116.7 296 58.3 285 29.2 279.5L0 274Z" fill="#e5e5e5"></path><path d="M0 771L29.2 761.8C58.3 752.7 116.7 734.3 174.8 717.8C233 701.3 291 686.7 349.2 697.7C407.3 708.7 465.7 745.3 523.8 747.2C582 749 640 716 698.2 727C756.3 738 814.7 793 872.8 760C931 727 989 606 1047.2 604.2C1105.3 602.3 1163.7 719.7 1221.8 727C1280 734.3 1338 631.7 1396.2 582.2C1454.3 532.7 1512.7 536.3 1570.8 574.8C1629 613.3 1687 686.7 1745.2 736.2C1803.3 785.7 1861.7 811.3 1890.8 824.2L1920 837L1920 450L1890.8 424.3C1861.7 398.7 1803.3 347.3 1745.2 323.5C1687 299.7 1629 303.3 1570.8 308.8C1512.7 314.3 1454.3 321.7 1396.2 334.5C1338 347.3 1280 365.7 1221.8 351C1163.7 336.3 1105.3 288.7 1047.2 301.5C989 314.3 931 387.7 872.8 409.7C814.7 431.7 756.3 402.3 698.2 385.8C640 369.3 582 365.7 523.8 351C465.7 336.3 407.3 310.7 349.2 327.2C291 343.7 233 402.3 174.8 418.8C116.7 435.3 58.3 409.7 29.2 396.8L0 384Z" fill="#d9d9d9"></path><path d="M0 980L29.2 989.2C58.3 998.3 116.7 1016.7 174.8 1007.5C233 998.3 291 961.7 349.2 941.5C407.3 921.3 465.7 917.7 523.8 930.5C582 943.3 640 972.7 698.2 992.8C756.3 1013 814.7 1024 872.8 1016.7C931 1009.3 989 983.7 1047.2 978.2C1105.3 972.7 1163.7 987.3 1221.8 985.5C1280 983.7 1338 965.3 1396.2 956.2C1454.3 947 1512.7 947 1570.8 958C1629 969 1687 991 1745.2 1005.7C1803.3 1020.3 1861.7 1027.7 1890.8 1031.3L1920 1035L1920 835L1890.8 822.2C1861.7 809.3 1803.3 783.7 1745.2 734.2C1687 684.7 1629 611.3 1570.8 572.8C1512.7 534.3 1454.3 530.7 1396.2 580.2C1338 629.7 1280 732.3 1221.8 725C1163.7 717.7 1105.3 600.3 1047.2 602.2C989 604 931 725 872.8 758C814.7 791 756.3 736 698.2 725C640 714 582 747 523.8 745.2C465.7 743.3 407.3 706.7 349.2 695.7C291 684.7 233 699.3 174.8 715.8C116.7 732.3 58.3 750.7 29.2 759.8L0 769Z" fill="#e5e5e5"></path><path d="M0 1101L29.2 1101C58.3 1101 116.7 1101 174.8 1101C233 1101 291 1101 349.2 1101C407.3 1101 465.7 1101 523.8 1101C582 1101 640 1101 698.2 1101C756.3 1101 814.7 1101 872.8 1101C931 1101 989 1101 1047.2 1101C1105.3 1101 1163.7 1101 1221.8 1101C1280 1101 1338 1101 1396.2 1101C1454.3 1101 1512.7 1101 1570.8 1101C1629 1101 1687 1101 1745.2 1101C1803.3 1101 1861.7 1101 1890.8 1101L1920 1101L1920 1033L1890.8 1029.3C1861.7 1025.7 1803.3 1018.3 1745.2 1003.7C1687 989 1629 967 1570.8 956C1512.7 945 1454.3 945 1396.2 954.2C1338 963.3 1280 981.7 1221.8 983.5C1163.7 985.3 1105.3 970.7 1047.2 976.2C989 981.7 931 1007.3 872.8 1014.7C814.7 1022 756.3 1011 698.2 990.8C640 970.7 582 941.3 523.8 928.5C465.7 915.7 407.3 919.3 349.2 939.5C291 959.7 233 996.3 174.8 1005.5C116.7 1014.7 58.3 996.3 29.2 987.2L0 978Z" fill="#e9e9e9"></path></svg>