<svg id="visual" viewBox="0 0 960 540" width="960" height="540" xmlns="http://www.w3.org/2000/svg" xmlns:xlink="http://www.w3.org/1999/xlink" version="1.1"><rect x="0" y="0" width="960" height="540" fill="#e9e9e9"></rect><path d="M0 253L32 267.8C64 282.7 128 312.3 192 324.2C256 336 320 330 384 317.2C448 304.3 512 284.7 576 266.2C640 247.7 704 230.3 768 250.8C832 271.3 896 329.7 928 358.8L960 388L960 541L928 541C896 541 832 541 768 541C704 541 640 541 576 541C512 541 448 541 384 541C320 541 256 541 192 541C128 541 64 541 32 541L0 541Z" fill="#cfcfcf" stroke-linecap="round" stroke-linejoin="miter"></path></svg>