<?xml version="1.0" encoding="UTF-8"?>
<!DOCTYPE svg PUBLIC "-//W3C//DTD SVG 1.1//EN" "http://www.w3.org/Graphics/SVG/1.1/DTD/svg11.dtd">
<svg xmlns="http://www.w3.org/2000/svg" version="1.1" width="1915px" height="400px" style="shape-rendering:geometricPrecision; text-rendering:geometricPrecision; image-rendering:optimizeQuality; fill-rule:evenodd; clip-rule:evenodd" xmlns:xlink="http://www.w3.org/1999/xlink">
<g><path style="opacity:1" fill="#00975f" d="M 1914.5,130.5 C 1914.5,163.5 1914.5,196.5 1914.5,229.5C 1747.46,213.075 1580.13,209.908 1412.5,220C 1353.1,221.536 1293.76,220.203 1234.5,216C 1214.17,215.333 1193.83,215.333 1173.5,216C 1134.45,219.08 1095.45,222.747 1056.5,227C 1026.52,228.544 996.518,228.877 966.5,228C 928.834,225.233 891.167,222.567 853.5,220C 788.863,216.31 724.197,215.644 659.5,218C 617.137,219.794 574.804,222.127 532.5,225C 495.829,226.928 459.162,226.928 422.5,225C 378.454,220.104 334.454,214.77 290.5,209C 230.273,203.817 169.94,202.15 109.5,204C 72.8108,205.061 36.1441,206.561 -0.5,208.5C -0.5,184.167 -0.5,159.833 -0.5,135.5C 33.8376,135.654 68.1709,136.154 102.5,137C 163.154,139.261 223.821,141.095 284.5,142.5C 311.183,142.166 337.849,141.333 364.5,140C 414.526,136.69 464.526,133.024 514.5,129C 534.655,127.895 554.822,127.062 575,126.5C 626.554,128.754 678.054,131.921 729.5,136C 742.667,136.167 755.833,136.333 769,136.5C 816.504,135.536 864.004,134.369 911.5,133C 1007.52,132.903 1103.52,131.737 1199.5,129.5C 1249.01,129.695 1298.51,130.362 1348,131.5C 1396.16,130.375 1444.33,130.208 1492.5,131C 1576.66,133.958 1660.82,136.458 1745,138.5C 1801.62,138.211 1858.12,135.544 1914.5,130.5 Z"/></g>
<g><path style="opacity:1" fill="#e9e9e9" d="M 1914.5,229.5 C 1914.5,286.167 1914.5,342.833 1914.5,399.5C 1276.17,399.5 637.833,399.5 -0.5,399.5C -0.5,335.833 -0.5,272.167 -0.5,208.5C 36.1441,206.561 72.8108,205.061 109.5,204C 169.94,202.15 230.273,203.817 290.5,209C 334.454,214.77 378.454,220.104 422.5,225C 459.162,226.928 495.829,226.928 532.5,225C 574.804,222.127 617.137,219.794 659.5,218C 724.197,215.644 788.863,216.31 853.5,220C 891.167,222.567 928.834,225.233 966.5,228C 996.518,228.877 1026.52,228.544 1056.5,227C 1095.45,222.747 1134.45,219.08 1173.5,216C 1193.83,215.333 1214.17,215.333 1234.5,216C 1293.76,220.203 1353.1,221.536 1412.5,220C 1580.13,209.908 1747.46,213.075 1914.5,229.5 Z"/></g>
</svg>
