<svg id="visual" viewBox="0 0 900 600" width="900" height="600" xmlns="http://www.w3.org/2000/svg" xmlns:xlink="http://www.w3.org/1999/xlink" version="1.1"><path d="M0 301L13.7 289C27.3 277 54.7 253 82 220C109.3 187 136.7 145 163.8 153C191 161 218 219 245.2 222C272.3 225 299.7 173 327 154C354.3 135 381.7 149 409 154C436.3 159 463.7 155 491 165C518.3 175 545.7 199 573 210C600.3 221 627.7 219 654.8 203C682 187 709 157 736.2 151C763.3 145 790.7 163 818 166C845.3 169 872.7 157 886.3 151L900 145L900 0L886.3 0C872.7 0 845.3 0 818 0C790.7 0 763.3 0 736.2 0C709 0 682 0 654.8 0C627.7 0 600.3 0 573 0C545.7 0 518.3 0 491 0C463.7 0 436.3 0 409 0C381.7 0 354.3 0 327 0C299.7 0 272.3 0 245.2 0C218 0 191 0 163.8 0C136.7 0 109.3 0 82 0C54.7 0 27.3 0 13.7 0L0 0Z" fill="#e9e9e9"></path><path d="M0 373L13.7 370C27.3 367 54.7 361 82 338C109.3 315 136.7 275 163.8 272C191 269 218 303 245.2 297C272.3 291 299.7 245 327 229C354.3 213 381.7 227 409 240C436.3 253 463.7 265 491 281C518.3 297 545.7 317 573 318C600.3 319 627.7 301 654.8 290C682 279 709 275 736.2 272C763.3 269 790.7 267 818 261C845.3 255 872.7 245 886.3 240L900 235L900 143L886.3 149C872.7 155 845.3 167 818 164C790.7 161 763.3 143 736.2 149C709 155 682 185 654.8 201C627.7 217 600.3 219 573 208C545.7 197 518.3 173 491 163C463.7 153 436.3 157 409 152C381.7 147 354.3 133 327 152C299.7 171 272.3 223 245.2 220C218 217 191 159 163.8 151C136.7 143 109.3 185 82 218C54.7 251 27.3 275 13.7 287L0 299Z" fill="#e8e3d9"></path><path d="M0 493L13.7 487C27.3 481 54.7 469 82 462C109.3 455 136.7 453 163.8 465C191 477 218 503 245.2 505C272.3 507 299.7 485 327 483C354.3 481 381.7 499 409 507C436.3 515 463.7 513 491 498C518.3 483 545.7 455 573 442C600.3 429 627.7 431 654.8 444C682 457 709 481 736.2 480C763.3 479 790.7 453 818 441C845.3 429 872.7 431 886.3 432L900 433L900 233L886.3 238C872.7 243 845.3 253 818 259C790.7 265 763.3 267 736.2 270C709 273 682 277 654.8 288C627.7 299 600.3 317 573 316C545.7 315 518.3 295 491 279C463.7 263 436.3 251 409 238C381.7 225 354.3 211 327 227C299.7 243 272.3 289 245.2 295C218 301 191 267 163.8 270C136.7 273 109.3 313 82 336C54.7 359 27.3 365 13.7 368L0 371Z" fill="#e8e3d9"></path><path d="M0 601L13.7 601C27.3 601 54.7 601 82 601C109.3 601 136.7 601 163.8 601C191 601 218 601 245.2 601C272.3 601 299.7 601 327 601C354.3 601 381.7 601 409 601C436.3 601 463.7 601 491 601C518.3 601 545.7 601 573 601C600.3 601 627.7 601 654.8 601C682 601 709 601 736.2 601C763.3 601 790.7 601 818 601C845.3 601 872.7 601 886.3 601L900 601L900 431L886.3 430C872.7 429 845.3 427 818 439C790.7 451 763.3 477 736.2 478C709 479 682 455 654.8 442C627.7 429 600.3 427 573 440C545.7 453 518.3 481 491 496C463.7 511 436.3 513 409 505C381.7 497 354.3 479 327 481C299.7 483 272.3 505 245.2 503C218 501 191 475 163.8 463C136.7 451 109.3 453 82 460C54.7 467 27.3 479 13.7 485L0 491Z" fill="#e9e9e9"></path></svg>