<svg id="visual" viewBox="0 0 1920 1000" width="1920" height="1000" xmlns="http://www.w3.org/2000/svg" xmlns:xlink="http://www.w3.org/1999/xlink" version="1.1"><rect width="1920" height="1000" fill="#e9e9e9"></rect><g><g transform="translate(1221 429)"><path d="M122.1 -44.1C139.2 13 120.9 77.2 77.6 109.3C34.2 141.4 -34.3 141.5 -81.7 108.1C-129 74.7 -155.1 7.9 -138 -49.2C-120.9 -106.4 -60.4 -153.9 -4 -152.6C52.5 -151.3 104.9 -101.2 122.1 -44.1Z" fill="#e4dfd9"></path></g><g transform="translate(429 679)"><path d="M135.8 -44.1C153.4 9.8 129.3 77.3 82.3 111C35.2 144.7 -34.8 144.5 -83 110.4C-131.2 76.3 -157.5 8.3 -140 -45.6C-122.6 -99.5 -61.3 -139.3 -1.1 -138.9C59.1 -138.6 118.3 -98.1 135.8 -44.1Z" fill="#e4dfd9"></path></g><g transform="translate(1640 639)"><path d="M73.1 -26.6C82.7 5.8 70.1 42.5 44.9 60.5C19.8 78.5 -18 77.7 -45.1 58.8C-72.2 39.9 -88.5 2.9 -79.2 -29C-69.9 -61 -34.9 -88 -1.6 -87.4C31.7 -86.9 63.5 -58.9 73.1 -26.6Z" fill="#e4dfd9"></path></g><g transform="translate(736 232)"><path d="M60.9 -19.5C70.1 8.7 62.8 42.6 40.8 59.3C18.8 76 -17.9 75.6 -41.8 58.1C-65.8 40.6 -76.9 6 -67.8 -22C-58.7 -50 -29.4 -71.4 -1.8 -70.8C25.8 -70.3 51.6 -47.7 60.9 -19.5Z" fill="#e4dfd9"></path></g><g transform="translate(256 263)"><path d="M55.1 -17.6C61.8 2.7 51 29 32.7 41.4C14.4 53.8 -11.3 52.4 -28.5 39.8C-45.7 27.1 -54.4 3.3 -48.2 -16.3C-42.1 -35.8 -21 -51.2 1.6 -51.7C24.2 -52.2 48.5 -37.9 55.1 -17.6Z" fill="#e4dfd9"></path></g><g transform="translate(863 680)"><path d="M71.9 -19.1C82.9 10.5 74.4 50.6 48.3 70.5C22.2 90.4 -21.5 90 -48.8 69.6C-76.1 49.2 -87 8.7 -76.1 -20.7C-65.3 -50.1 -32.6 -68.5 -1.1 -68.1C30.4 -67.7 60.9 -48.7 71.9 -19.1Z" fill="#e4dfd9"></path></g></g></svg>