<svg id="visual" viewBox="0 0 1800 2000" width="1800" height="2000" xmlns="http://www.w3.org/2000/svg" xmlns:xlink="http://www.w3.org/1999/xlink" version="1.1"><rect width="1800" height="2000" fill="#e9e9e9"></rect><g><g transform="translate(1412 351)"><path d="M130.7 -132.3C165.8 -95.6 188.2 -47.8 193 4.8C197.8 57.4 185 114.8 149.9 147.3C114.8 179.7 57.4 187.1 -1.1 188.2C-59.6 189.3 -119.2 184 -156.7 151.6C-194.2 119.2 -209.7 59.6 -203.9 5.8C-198.1 -48.1 -171.2 -96.1 -133.7 -132.8C-96.1 -169.5 -48.1 -194.7 -0.1 -194.6C47.8 -194.5 95.6 -168.9 130.7 -132.3Z" fill="#dae3d8"></path></g><g transform="translate(293 1547)"><path d="M146.5 -149.9C183 -110 200.9 -55 199.3 -1.6C197.8 51.9 176.7 103.8 140.3 144.8C103.8 185.8 51.9 216 2.2 213.8C-47.5 211.6 -95.1 177.1 -128.3 136.1C-161.6 95.1 -180.5 47.5 -183.8 -3.3C-187.1 -54.1 -174.8 -108.3 -141.5 -148.1C-108.3 -188 -54.1 -213.6 0.4 -214C55 -214.5 110 -189.8 146.5 -149.9Z" fill="#dae3d8"></path></g><g transform="translate(493 554)"><path d="M48.8 -48.4C61.4 -36.2 68.5 -18.1 67.9 -0.6C67.3 16.8 58.9 33.7 46.3 49.3C33.7 64.9 16.8 79.3 -1.8 81.1C-20.4 82.9 -40.9 72.1 -56.5 56.5C-72.2 40.9 -83.1 20.4 -84.1 -1C-85.1 -22.4 -76.1 -44.8 -60.4 -57C-44.8 -69.3 -22.4 -71.4 -2.1 -69.3C18.1 -67.1 36.2 -60.7 48.8 -48.4Z" fill="#dae3d8"></path></g><g transform="translate(819 1057)"><path d="M87.3 -84.9C108.5 -66 118 -33 114.3 -3.8C110.5 25.5 93.5 51 72.2 72.7C51 94.4 25.5 112.3 -3.2 115.6C-32 118.8 -64 107.4 -82.4 85.7C-100.8 64 -105.7 32 -105 0.7C-104.3 -30.6 -98 -61.2 -79.6 -80C-61.2 -98.9 -30.6 -106.1 1.2 -107.3C33 -108.5 66 -103.8 87.3 -84.9Z" fill="#dae3d8"></path></g><g transform="translate(1184 1715)"><path d="M54.2 -56.1C69.3 -39 80.2 -19.5 83.1 2.9C86 25.2 80.9 50.5 65.7 65.3C50.5 80.2 25.2 84.7 2.4 82.3C-20.5 79.9 -41 70.7 -59.1 55.8C-77.2 41 -93 20.5 -94.6 -1.6C-96.2 -23.7 -83.6 -47.4 -65.5 -64.5C-47.4 -81.7 -23.7 -92.4 -2.1 -90.3C19.5 -88.2 39 -73.3 54.2 -56.1Z" fill="#dae3d8"></path></g><g transform="translate(1414 1080)"><path d="M119.5 -127.2C146.9 -92.2 155.5 -46.1 157.3 1.8C159.1 49.6 154 99.3 126.6 127.9C99.3 156.5 49.6 164.1 -0.1 164.2C-49.7 164.2 -99.5 156.7 -130.2 128.1C-161 99.5 -172.8 49.7 -169.2 3.7C-165.5 -42.4 -146.4 -84.8 -115.6 -119.8C-84.8 -154.8 -42.4 -182.4 1.8 -184.2C46.1 -186.1 92.2 -162.2 119.5 -127.2Z" fill="#dae3d8"></path></g></g></svg>