<svg xmlns="http://www.w3.org/2000/svg" version="1.1" xmlns:xlink="http://www.w3.org/1999/xlink" xmlns:svgjs="http://svgjs.dev/svgjs" width="1920" height="700" preserveAspectRatio="none" viewBox="0 0 1920 700">
    <g mask="url(&quot;#SvgjsMask1042&quot;)" fill="none">
        <g mask="url(&quot;#SvgjsMask1043&quot;)">
            <path d="M808.5 82.5L1006.5 280.5L1006.5 643.5L940.5 709.5" stroke-width="5.5" stroke="rgba(183, 207, 183, 0.37)"></path>
            <path d="M800.25 82.5 a8.25 8.25 0 1 0 16.5 0 a8.25 8.25 0 1 0 -16.5 0zM932.25 709.5 a8.25 8.25 0 1 0 16.5 0 a8.25 8.25 0 1 0 -16.5 0z" fill="rgba(183, 207, 183, 0.37)"></path>
            <path d="M1072.5 280.5L1039.5 280.5L1006.5 247.5L1006.5 16.5" stroke-width="5.5" stroke="rgba(183, 207, 183, 0.37)"></path>
            <path d="M1064.25 280.5 a8.25 8.25 0 1 0 16.5 0 a8.25 8.25 0 1 0 -16.5 0zM998.25 16.5 a8.25 8.25 0 1 0 16.5 0 a8.25 8.25 0 1 0 -16.5 0z" fill="rgba(183, 207, 183, 0.37)"></path>
            <path d="M1303.5 511.5L1237.5 445.5L1237.5 280.5L1501.5 16.5L1633.5 16.5" stroke-width="5.5" stroke="rgba(183, 207, 183, 0.37)"></path>
            <path d="M1295.25 511.5 a8.25 8.25 0 1 0 16.5 0 a8.25 8.25 0 1 0 -16.5 0zM1625.25 16.5 a8.25 8.25 0 1 0 16.5 0 a8.25 8.25 0 1 0 -16.5 0z" fill="rgba(183, 207, 183, 0.37)"></path>
            <path d="M1930.5 544.5L1930.5 709.5" stroke-width="5.5" stroke="rgba(183, 207, 183, 0.37)"></path>
            <path d="M1922.25 544.5 a8.25 8.25 0 1 0 16.5 0 a8.25 8.25 0 1 0 -16.5 0zM1922.25 709.5 a8.25 8.25 0 1 0 16.5 0 a8.25 8.25 0 1 0 -16.5 0z" fill="rgba(183, 207, 183, 0.37)"></path>
            <path d="M1600.5 379.5L1930.5 49.5L1930.5 16.5" stroke-width="5.5" stroke="rgba(183, 207, 183, 0.37)"></path>
            <path d="M1592.25 379.5 a8.25 8.25 0 1 0 16.5 0 a8.25 8.25 0 1 0 -16.5 0zM1922.25 16.5 a8.25 8.25 0 1 0 16.5 0 a8.25 8.25 0 1 0 -16.5 0z" fill="rgba(183, 207, 183, 0.37)"></path>
            <path d="M1270.5 610.5L1402.5 478.5L1402.5 445.5L1369.5 412.5L1369.5 247.5L1336.5 214.5" stroke-width="5.5" stroke="rgba(183, 207, 183, 0.37)"></path>
            <path d="M1262.25 610.5 a8.25 8.25 0 1 0 16.5 0 a8.25 8.25 0 1 0 -16.5 0zM1328.25 214.5 a8.25 8.25 0 1 0 16.5 0 a8.25 8.25 0 1 0 -16.5 0z" fill="rgba(183, 207, 183, 0.37)"></path>
            <path d="M115.5 115.5L214.5 16.5L742.5 16.5" stroke-width="5.5" stroke="rgba(183, 207, 183, 0.37)"></path>
            <path d="M107.25 115.5 a8.25 8.25 0 1 0 16.5 0 a8.25 8.25 0 1 0 -16.5 0zM734.25 16.5 a8.25 8.25 0 1 0 16.5 0 a8.25 8.25 0 1 0 -16.5 0z" fill="rgba(183, 207, 183, 0.37)"></path>
            <path d="M1402.5 676.5L1831.5 247.5L1831.5 181.5L1930.5 82.5" stroke-width="5.5" stroke="rgba(183, 207, 183, 0.37)"></path>
            <path d="M1394.25 676.5 a8.25 8.25 0 1 0 16.5 0 a8.25 8.25 0 1 0 -16.5 0zM1922.25 82.5 a8.25 8.25 0 1 0 16.5 0 a8.25 8.25 0 1 0 -16.5 0z" fill="rgba(183, 207, 183, 0.37)"></path>
            <path d="M544.5 148.5L346.5 148.5L247.5 49.5L214.5 49.5L16.5 247.5L16.5 346.5" stroke-width="5.5" stroke="rgba(183, 207, 183, 0.37)"></path>
            <path d="M536.25 148.5 a8.25 8.25 0 1 0 16.5 0 a8.25 8.25 0 1 0 -16.5 0zM8.25 346.5 a8.25 8.25 0 1 0 16.5 0 a8.25 8.25 0 1 0 -16.5 0z" fill="rgba(183, 207, 183, 0.37)"></path>
            <path d="M82.5 379.5L313.5 148.5" stroke-width="5.5" stroke="rgba(183, 207, 183, 0.37)"></path>
            <path d="M74.25 379.5 a8.25 8.25 0 1 0 16.5 0 a8.25 8.25 0 1 0 -16.5 0zM305.25 148.5 a8.25 8.25 0 1 0 16.5 0 a8.25 8.25 0 1 0 -16.5 0z" fill="rgba(183, 207, 183, 0.37)"></path>
            <path d="M841.5 49.5L874.5 16.5L940.5 16.5" stroke-width="5.5" stroke="rgba(183, 207, 183, 0.37)"></path>
            <path d="M833.25 49.5 a8.25 8.25 0 1 0 16.5 0 a8.25 8.25 0 1 0 -16.5 0zM932.25 16.5 a8.25 8.25 0 1 0 16.5 0 a8.25 8.25 0 1 0 -16.5 0z" fill="rgba(183, 207, 183, 0.37)"></path>
            <path d="M445.5 544.5L412.5 544.5L280.5 412.5L280.5 379.5L214.5 313.5L214.5 280.5L313.5 181.5L544.5 181.5" stroke-width="5.5" stroke="rgba(183, 207, 183, 0.37)"></path>
            <path d="M437.25 544.5 a8.25 8.25 0 1 0 16.5 0 a8.25 8.25 0 1 0 -16.5 0zM536.25 181.5 a8.25 8.25 0 1 0 16.5 0 a8.25 8.25 0 1 0 -16.5 0z" fill="rgba(183, 207, 183, 0.37)"></path>
            <path d="M1699.5 148.5L1732.5 181.5L1732.5 214.5L1567.5 379.5L1435.5 379.5L1402.5 346.5L1402.5 148.5L1435.5 115.5" stroke-width="5.5" stroke="rgba(183, 207, 183, 0.37)"></path>
            <path d="M1691.25 148.5 a8.25 8.25 0 1 0 16.5 0 a8.25 8.25 0 1 0 -16.5 0zM1427.25 115.5 a8.25 8.25 0 1 0 16.5 0 a8.25 8.25 0 1 0 -16.5 0z" fill="rgba(183, 207, 183, 0.37)"></path>
            <path d="M808.5 346.5L775.5 313.5L775.5 82.5L742.5 49.5L577.5 49.5L511.5 115.5L412.5 115.5" stroke-width="5.5" stroke="rgba(183, 207, 183, 0.37)"></path>
            <path d="M800.25 346.5 a8.25 8.25 0 1 0 16.5 0 a8.25 8.25 0 1 0 -16.5 0zM404.25 115.5 a8.25 8.25 0 1 0 16.5 0 a8.25 8.25 0 1 0 -16.5 0z" fill="rgba(183, 207, 183, 0.37)"></path>
            <path d="M709.5 709.5L874.5 544.5L874.5 511.5L973.5 412.5L973.5 280.5L808.5 115.5" stroke-width="5.5" stroke="rgba(183, 207, 183, 0.37)"></path>
            <path d="M701.25 709.5 a8.25 8.25 0 1 0 16.5 0 a8.25 8.25 0 1 0 -16.5 0zM800.25 115.5 a8.25 8.25 0 1 0 16.5 0 a8.25 8.25 0 1 0 -16.5 0z" fill="rgba(183, 207, 183, 0.37)"></path>
            <path d="M1699.5 49.5L1534.5 49.5" stroke-width="5.5" stroke="rgba(183, 207, 183, 0.37)"></path>
            <path d="M1691.25 49.5 a8.25 8.25 0 1 0 16.5 0 a8.25 8.25 0 1 0 -16.5 0zM1526.25 49.5 a8.25 8.25 0 1 0 16.5 0 a8.25 8.25 0 1 0 -16.5 0z" fill="rgba(183, 207, 183, 0.37)"></path>
            <path d="M1138.5 610.5L1138.5 709.5" stroke-width="5.5" stroke="rgba(183, 207, 183, 0.37)"></path>
            <path d="M1130.25 610.5 a8.25 8.25 0 1 0 16.5 0 a8.25 8.25 0 1 0 -16.5 0zM1130.25 709.5 a8.25 8.25 0 1 0 16.5 0 a8.25 8.25 0 1 0 -16.5 0z" fill="rgba(183, 207, 183, 0.37)"></path>
            <path d="M1171.5 643.5L1171.5 709.5" stroke-width="5.5" stroke="rgba(183, 207, 183, 0.37)"></path>
            <path d="M1163.25 643.5 a8.25 8.25 0 1 0 16.5 0 a8.25 8.25 0 1 0 -16.5 0zM1163.25 709.5 a8.25 8.25 0 1 0 16.5 0 a8.25 8.25 0 1 0 -16.5 0z" fill="rgba(183, 207, 183, 0.37)"></path>
            <path d="M1534.5 676.5L1666.5 544.5L1831.5 544.5L1897.5 610.5L1897.5 709.5" stroke-width="5.5" stroke="rgba(183, 207, 183, 0.37)"></path>
            <path d="M1526.25 676.5 a8.25 8.25 0 1 0 16.5 0 a8.25 8.25 0 1 0 -16.5 0zM1889.25 709.5 a8.25 8.25 0 1 0 16.5 0 a8.25 8.25 0 1 0 -16.5 0z" fill="rgba(183, 207, 183, 0.37)"></path>
            <path d="M1237.5 115.5L1105.5 247.5L1105.5 346.5L1039.5 412.5L1039.5 445.5L1303.5 709.5L1336.5 709.5" stroke-width="5.5" stroke="rgba(183, 207, 183, 0.37)"></path>
            <path d="M1229.25 115.5 a8.25 8.25 0 1 0 16.5 0 a8.25 8.25 0 1 0 -16.5 0zM1328.25 709.5 a8.25 8.25 0 1 0 16.5 0 a8.25 8.25 0 1 0 -16.5 0z" fill="rgba(183, 207, 183, 0.37)"></path>
            <path d="M1600.5 445.5L1798.5 247.5L1798.5 214.5" stroke-width="5.5" stroke="rgba(183, 207, 183, 0.37)"></path>
            <path d="M1592.25 445.5 a8.25 8.25 0 1 0 16.5 0 a8.25 8.25 0 1 0 -16.5 0zM1790.25 214.5 a8.25 8.25 0 1 0 16.5 0 a8.25 8.25 0 1 0 -16.5 0z" fill="rgba(183, 207, 183, 0.37)"></path>
            <path d="M181.5 148.5L49.5 280.5L49.5 445.5L280.5 676.5L280.5 709.5" stroke-width="5.5" stroke="rgba(183, 207, 183, 0.37)"></path>
            <path d="M173.25 148.5 a8.25 8.25 0 1 0 16.5 0 a8.25 8.25 0 1 0 -16.5 0zM272.25 709.5 a8.25 8.25 0 1 0 16.5 0 a8.25 8.25 0 1 0 -16.5 0z" fill="rgba(183, 207, 183, 0.37)"></path>
            <path d="M1699.5 709.5L1831.5 577.5" stroke-width="5.5" stroke="rgba(183, 207, 183, 0.37)"></path>
            <path d="M1691.25 709.5 a8.25 8.25 0 1 0 16.5 0 a8.25 8.25 0 1 0 -16.5 0zM1823.25 577.5 a8.25 8.25 0 1 0 16.5 0 a8.25 8.25 0 1 0 -16.5 0z" fill="rgba(183, 207, 183, 0.37)"></path>
            <path d="M1930.5 511.5L1930.5 115.5" stroke-width="5.5" stroke="rgba(183, 207, 183, 0.37)"></path>
            <path d="M1922.25 511.5 a8.25 8.25 0 1 0 16.5 0 a8.25 8.25 0 1 0 -16.5 0zM1922.25 115.5 a8.25 8.25 0 1 0 16.5 0 a8.25 8.25 0 1 0 -16.5 0z" fill="rgba(183, 207, 183, 0.37)"></path>
            <path d="M346.5 610.5L544.5 610.5L676.5 478.5L874.5 478.5L940.5 412.5L940.5 379.5" stroke-width="5.5" stroke="rgba(183, 207, 183, 0.37)"></path>
            <path d="M338.25 610.5 a8.25 8.25 0 1 0 16.5 0 a8.25 8.25 0 1 0 -16.5 0zM932.25 379.5 a8.25 8.25 0 1 0 16.5 0 a8.25 8.25 0 1 0 -16.5 0z" fill="rgba(183, 207, 183, 0.37)"></path>
            <path d="M1204.5 544.5L1171.5 544.5L1072.5 445.5L1072.5 412.5L1468.5 16.5" stroke-width="5.5" stroke="rgba(183, 207, 183, 0.37)"></path>
            <path d="M1196.25 544.5 a8.25 8.25 0 1 0 16.5 0 a8.25 8.25 0 1 0 -16.5 0zM1460.25 16.5 a8.25 8.25 0 1 0 16.5 0 a8.25 8.25 0 1 0 -16.5 0z" fill="rgba(183, 207, 183, 0.37)"></path>
            <path d="M1270.5 577.5L1105.5 412.5" stroke-width="5.5" stroke="rgba(183, 207, 183, 0.37)"></path>
            <path d="M1262.25 577.5 a8.25 8.25 0 1 0 16.5 0 a8.25 8.25 0 1 0 -16.5 0zM1097.25 412.5 a8.25 8.25 0 1 0 16.5 0 a8.25 8.25 0 1 0 -16.5 0z" fill="rgba(183, 207, 183, 0.37)"></path>
            <path d="M1204.5 247.5L1138.5 247.5" stroke-width="5.5" stroke="rgba(183, 207, 183, 0.37)"></path>
            <path d="M1196.25 247.5 a8.25 8.25 0 1 0 16.5 0 a8.25 8.25 0 1 0 -16.5 0zM1130.25 247.5 a8.25 8.25 0 1 0 16.5 0 a8.25 8.25 0 1 0 -16.5 0z" fill="rgba(183, 207, 183, 0.37)"></path>
            <path d="M379.5 643.5L313.5 709.5" stroke-width="5.5" stroke="rgba(183, 207, 183, 0.37)"></path>
            <path d="M371.25 643.5 a8.25 8.25 0 1 0 16.5 0 a8.25 8.25 0 1 0 -16.5 0zM305.25 709.5 a8.25 8.25 0 1 0 16.5 0 a8.25 8.25 0 1 0 -16.5 0z" fill="rgba(183, 207, 183, 0.37)"></path>
            <path d="M115.5 16.5L181.5 16.5" stroke-width="5.5" stroke="rgba(183, 207, 183, 0.37)"></path>
            <path d="M107.25 16.5 a8.25 8.25 0 1 0 16.5 0 a8.25 8.25 0 1 0 -16.5 0zM173.25 16.5 a8.25 8.25 0 1 0 16.5 0 a8.25 8.25 0 1 0 -16.5 0z" fill="rgba(183, 207, 183, 0.37)"></path>
            <path d="M610.5 247.5L280.5 247.5L247.5 280.5L247.5 313.5L412.5 478.5L478.5 478.5" stroke-width="5.5" stroke="rgba(183, 207, 183, 0.37)"></path>
            <path d="M602.25 247.5 a8.25 8.25 0 1 0 16.5 0 a8.25 8.25 0 1 0 -16.5 0zM470.25 478.5 a8.25 8.25 0 1 0 16.5 0 a8.25 8.25 0 1 0 -16.5 0z" fill="rgba(183, 207, 183, 0.37)"></path>
            <path d="M115.5 610.5L181.5 610.5L247.5 676.5L247.5 709.5" stroke-width="5.5" stroke="rgba(183, 207, 183, 0.37)"></path>
            <path d="M107.25 610.5 a8.25 8.25 0 1 0 16.5 0 a8.25 8.25 0 1 0 -16.5 0zM239.25 709.5 a8.25 8.25 0 1 0 16.5 0 a8.25 8.25 0 1 0 -16.5 0z" fill="rgba(183, 207, 183, 0.37)"></path>
            <path d="M16.5 478.5L115.5 577.5L148.5 577.5" stroke-width="5.5" stroke="rgba(183, 207, 183, 0.37)"></path>
            <path d="M8.25 478.5 a8.25 8.25 0 1 0 16.5 0 a8.25 8.25 0 1 0 -16.5 0zM140.25 577.5 a8.25 8.25 0 1 0 16.5 0 a8.25 8.25 0 1 0 -16.5 0z" fill="rgba(183, 207, 183, 0.37)"></path>
            <path d="M1039.5 181.5L1039.5 16.5" stroke-width="5.5" stroke="rgba(183, 207, 183, 0.37)"></path>
            <path d="M1031.25 181.5 a8.25 8.25 0 1 0 16.5 0 a8.25 8.25 0 1 0 -16.5 0zM1031.25 16.5 a8.25 8.25 0 1 0 16.5 0 a8.25 8.25 0 1 0 -16.5 0z" fill="rgba(183, 207, 183, 0.37)"></path>
            <path d="M676.5 181.5L676.5 445.5L544.5 577.5L412.5 577.5L313.5 478.5" stroke-width="5.5" stroke="rgba(183, 207, 183, 0.37)"></path>
            <path d="M668.25 181.5 a8.25 8.25 0 1 0 16.5 0 a8.25 8.25 0 1 0 -16.5 0zM305.25 478.5 a8.25 8.25 0 1 0 16.5 0 a8.25 8.25 0 1 0 -16.5 0z" fill="rgba(183, 207, 183, 0.37)"></path>
            <path d="M1072.5 643.5L1006.5 709.5L973.5 709.5" stroke-width="5.5" stroke="rgba(183, 207, 183, 0.37)"></path>
            <path d="M1064.25 643.5 a8.25 8.25 0 1 0 16.5 0 a8.25 8.25 0 1 0 -16.5 0zM965.25 709.5 a8.25 8.25 0 1 0 16.5 0 a8.25 8.25 0 1 0 -16.5 0z" fill="rgba(183, 207, 183, 0.37)"></path>
            <path d="M1567.5 247.5L1468.5 148.5L1468.5 82.5" stroke-width="5.5" stroke="rgba(183, 207, 183, 0.37)"></path>
            <path d="M1559.25 247.5 a8.25 8.25 0 1 0 16.5 0 a8.25 8.25 0 1 0 -16.5 0zM1460.25 82.5 a8.25 8.25 0 1 0 16.5 0 a8.25 8.25 0 1 0 -16.5 0z" fill="rgba(183, 207, 183, 0.37)"></path>
            <path d="M1732.5 445.5L1732.5 511.5" stroke-width="5.5" stroke="rgba(183, 207, 183, 0.37)"></path>
            <path d="M1724.25 445.5 a8.25 8.25 0 1 0 16.5 0 a8.25 8.25 0 1 0 -16.5 0zM1724.25 511.5 a8.25 8.25 0 1 0 16.5 0 a8.25 8.25 0 1 0 -16.5 0z" fill="rgba(183, 207, 183, 0.37)"></path>
            <path d="M940.5 181.5L841.5 82.5" stroke-width="5.5" stroke="rgba(183, 207, 183, 0.37)"></path>
            <path d="M932.25 181.5 a8.25 8.25 0 1 0 16.5 0 a8.25 8.25 0 1 0 -16.5 0zM833.25 82.5 a8.25 8.25 0 1 0 16.5 0 a8.25 8.25 0 1 0 -16.5 0z" fill="rgba(183, 207, 183, 0.37)"></path>
            <path d="M1138.5 115.5L1072.5 115.5" stroke-width="5.5" stroke="rgba(183, 207, 183, 0.37)"></path>
            <path d="M1130.25 115.5 a8.25 8.25 0 1 0 16.5 0 a8.25 8.25 0 1 0 -16.5 0zM1064.25 115.5 a8.25 8.25 0 1 0 16.5 0 a8.25 8.25 0 1 0 -16.5 0z" fill="rgba(183, 207, 183, 0.37)"></path>
            <path d="M1237.5 214.5L1435.5 16.5" stroke-width="5.5" stroke="rgba(183, 207, 183, 0.37)"></path>
            <path d="M1229.25 214.5 a8.25 8.25 0 1 0 16.5 0 a8.25 8.25 0 1 0 -16.5 0zM1427.25 16.5 a8.25 8.25 0 1 0 16.5 0 a8.25 8.25 0 1 0 -16.5 0z" fill="rgba(183, 207, 183, 0.37)"></path>
            <path d="M577.5 676.5L610.5 709.5L676.5 709.5L841.5 544.5L841.5 511.5" stroke-width="5.5" stroke="rgba(183, 207, 183, 0.37)"></path>
            <path d="M569.25 676.5 a8.25 8.25 0 1 0 16.5 0 a8.25 8.25 0 1 0 -16.5 0zM833.25 511.5 a8.25 8.25 0 1 0 16.5 0 a8.25 8.25 0 1 0 -16.5 0z" fill="rgba(183, 207, 183, 0.37)"></path>
            <path d="M1765.5 445.5L1765.5 379.5L1864.5 280.5L1864.5 181.5L1897.5 148.5" stroke-width="5.5" stroke="rgba(183, 207, 183, 0.37)"></path>
            <path d="M1757.25 445.5 a8.25 8.25 0 1 0 16.5 0 a8.25 8.25 0 1 0 -16.5 0zM1889.25 148.5 a8.25 8.25 0 1 0 16.5 0 a8.25 8.25 0 1 0 -16.5 0z" fill="rgba(183, 207, 183, 0.37)"></path>
            <path d="M544.5 214.5L313.5 214.5" stroke-width="5.5" stroke="rgba(183, 207, 183, 0.37)"></path>
            <path d="M536.25 214.5 a8.25 8.25 0 1 0 16.5 0 a8.25 8.25 0 1 0 -16.5 0zM305.25 214.5 a8.25 8.25 0 1 0 16.5 0 a8.25 8.25 0 1 0 -16.5 0z" fill="rgba(183, 207, 183, 0.37)"></path>
            <path d="M973.5 511.5L907.5 577.5L907.5 709.5" stroke-width="5.5" stroke="rgba(183, 207, 183, 0.37)"></path>
            <path d="M965.25 511.5 a8.25 8.25 0 1 0 16.5 0 a8.25 8.25 0 1 0 -16.5 0zM899.25 709.5 a8.25 8.25 0 1 0 16.5 0 a8.25 8.25 0 1 0 -16.5 0z" fill="rgba(183, 207, 183, 0.37)"></path>
            <path d="M16.5 610.5L49.5 577.5L82.5 577.5" stroke-width="5.5" stroke="rgba(183, 207, 183, 0.37)"></path>
            <path d="M8.25 610.5 a8.25 8.25 0 1 0 16.5 0 a8.25 8.25 0 1 0 -16.5 0zM74.25 577.5 a8.25 8.25 0 1 0 16.5 0 a8.25 8.25 0 1 0 -16.5 0z" fill="rgba(183, 207, 183, 0.37)"></path>
            <path d="M544.5 280.5L643.5 280.5" stroke-width="5.5" stroke="rgba(183, 207, 183, 0.37)"></path>
            <path d="M536.25 280.5 a8.25 8.25 0 1 0 16.5 0 a8.25 8.25 0 1 0 -16.5 0zM635.25 280.5 a8.25 8.25 0 1 0 16.5 0 a8.25 8.25 0 1 0 -16.5 0z" fill="rgba(183, 207, 183, 0.37)"></path>
            <path d="M1831.5 412.5L1831.5 346.5L1897.5 280.5L1897.5 181.5" stroke-width="5.5" stroke="rgba(183, 207, 183, 0.37)"></path>
            <path d="M1823.25 412.5 a8.25 8.25 0 1 0 16.5 0 a8.25 8.25 0 1 0 -16.5 0zM1889.25 181.5 a8.25 8.25 0 1 0 16.5 0 a8.25 8.25 0 1 0 -16.5 0z" fill="rgba(183, 207, 183, 0.37)"></path>
            <path d="M610.5 445.5L643.5 412.5L643.5 313.5" stroke-width="5.5" stroke="rgba(183, 207, 183, 0.37)"></path>
            <path d="M602.25 445.5 a8.25 8.25 0 1 0 16.5 0 a8.25 8.25 0 1 0 -16.5 0zM635.25 313.5 a8.25 8.25 0 1 0 16.5 0 a8.25 8.25 0 1 0 -16.5 0z" fill="rgba(183, 207, 183, 0.37)"></path>
            <path d="M181.5 115.5L214.5 82.5L247.5 82.5L280.5 115.5L280.5 148.5L82.5 346.5" stroke-width="5.5" stroke="rgba(183, 207, 183, 0.37)"></path>
            <path d="M173.25 115.5 a8.25 8.25 0 1 0 16.5 0 a8.25 8.25 0 1 0 -16.5 0zM74.25 346.5 a8.25 8.25 0 1 0 16.5 0 a8.25 8.25 0 1 0 -16.5 0z" fill="rgba(183, 207, 183, 0.37)"></path>
            <path d="M1468.5 412.5L1402.5 412.5" stroke-width="5.5" stroke="rgba(183, 207, 183, 0.37)"></path>
            <path d="M1460.25 412.5 a8.25 8.25 0 1 0 16.5 0 a8.25 8.25 0 1 0 -16.5 0zM1394.25 412.5 a8.25 8.25 0 1 0 16.5 0 a8.25 8.25 0 1 0 -16.5 0z" fill="rgba(183, 207, 183, 0.37)"></path>
            <path d="M1699.5 643.5L1600.5 643.5L1534.5 709.5L1369.5 709.5L1303.5 643.5L1303.5 610.5L1501.5 412.5" stroke-width="5.5" stroke="rgba(183, 207, 183, 0.37)"></path>
            <path d="M1691.25 643.5 a8.25 8.25 0 1 0 16.5 0 a8.25 8.25 0 1 0 -16.5 0zM1493.25 412.5 a8.25 8.25 0 1 0 16.5 0 a8.25 8.25 0 1 0 -16.5 0z" fill="rgba(183, 207, 183, 0.37)"></path>
            <path d="M1501.5 313.5L1534.5 280.5L1534.5 247.5L1435.5 148.5" stroke-width="5.5" stroke="rgba(183, 207, 183, 0.37)"></path>
            <path d="M1493.25 313.5 a8.25 8.25 0 1 0 16.5 0 a8.25 8.25 0 1 0 -16.5 0zM1427.25 148.5 a8.25 8.25 0 1 0 16.5 0 a8.25 8.25 0 1 0 -16.5 0z" fill="rgba(183, 207, 183, 0.37)"></path>
            <path d="M511.5 709.5L445.5 643.5L412.5 643.5L346.5 709.5" stroke-width="5.5" stroke="rgba(183, 207, 183, 0.37)"></path>
            <path d="M503.25 709.5 a8.25 8.25 0 1 0 16.5 0 a8.25 8.25 0 1 0 -16.5 0zM338.25 709.5 a8.25 8.25 0 1 0 16.5 0 a8.25 8.25 0 1 0 -16.5 0z" fill="rgba(183, 207, 183, 0.37)"></path>
            <path d="M478.5 412.5L346.5 280.5L280.5 280.5" stroke-width="5.5" stroke="rgba(183, 207, 183, 0.37)"></path>
            <path d="M470.25 412.5 a8.25 8.25 0 1 0 16.5 0 a8.25 8.25 0 1 0 -16.5 0zM272.25 280.5 a8.25 8.25 0 1 0 16.5 0 a8.25 8.25 0 1 0 -16.5 0z" fill="rgba(183, 207, 183, 0.37)"></path>
            <path d="M49.5 82.5L49.5 16.5" stroke-width="5.5" stroke="rgba(183, 207, 183, 0.37)"></path>
            <path d="M41.25 82.5 a8.25 8.25 0 1 0 16.5 0 a8.25 8.25 0 1 0 -16.5 0zM41.25 16.5 a8.25 8.25 0 1 0 16.5 0 a8.25 8.25 0 1 0 -16.5 0z" fill="rgba(183, 207, 183, 0.37)"></path>
            <path d="M511.5 379.5L610.5 478.5" stroke-width="5.5" stroke="rgba(183, 207, 183, 0.37)"></path>
            <path d="M503.25 379.5 a8.25 8.25 0 1 0 16.5 0 a8.25 8.25 0 1 0 -16.5 0zM602.25 478.5 a8.25 8.25 0 1 0 16.5 0 a8.25 8.25 0 1 0 -16.5 0z" fill="rgba(183, 207, 183, 0.37)"></path>
            <path d="M1270.5 709.5L1204.5 643.5" stroke-width="5.5" stroke="rgba(183, 207, 183, 0.37)"></path>
            <path d="M1262.25 709.5 a8.25 8.25 0 1 0 16.5 0 a8.25 8.25 0 1 0 -16.5 0zM1196.25 643.5 a8.25 8.25 0 1 0 16.5 0 a8.25 8.25 0 1 0 -16.5 0z" fill="rgba(183, 207, 183, 0.37)"></path>
            <path d="M1501.5 346.5L1435.5 280.5L1435.5 181.5" stroke-width="5.5" stroke="rgba(183, 207, 183, 0.37)"></path>
            <path d="M1493.25 346.5 a8.25 8.25 0 1 0 16.5 0 a8.25 8.25 0 1 0 -16.5 0zM1427.25 181.5 a8.25 8.25 0 1 0 16.5 0 a8.25 8.25 0 1 0 -16.5 0z" fill="rgba(183, 207, 183, 0.37)"></path>
            <path d="M1633.5 148.5L1567.5 148.5L1534.5 115.5L1501.5 115.5" stroke-width="5.5" stroke="rgba(183, 207, 183, 0.37)"></path>
            <path d="M1625.25 148.5 a8.25 8.25 0 1 0 16.5 0 a8.25 8.25 0 1 0 -16.5 0zM1493.25 115.5 a8.25 8.25 0 1 0 16.5 0 a8.25 8.25 0 1 0 -16.5 0z" fill="rgba(183, 207, 183, 0.37)"></path>
            <path d="M1039.5 577.5L1138.5 577.5" stroke-width="5.5" stroke="rgba(183, 207, 183, 0.37)"></path>
            <path d="M1031.25 577.5 a8.25 8.25 0 1 0 16.5 0 a8.25 8.25 0 1 0 -16.5 0zM1130.25 577.5 a8.25 8.25 0 1 0 16.5 0 a8.25 8.25 0 1 0 -16.5 0z" fill="rgba(183, 207, 183, 0.37)"></path>
            <path d="M907.5 280.5L907.5 247.5L808.5 148.5" stroke-width="5.5" stroke="rgba(183, 207, 183, 0.37)"></path>
            <path d="M899.25 280.5 a8.25 8.25 0 1 0 16.5 0 a8.25 8.25 0 1 0 -16.5 0zM800.25 148.5 a8.25 8.25 0 1 0 16.5 0 a8.25 8.25 0 1 0 -16.5 0z" fill="rgba(183, 207, 183, 0.37)"></path>
            <path d="M577.5 709.5L511.5 643.5L478.5 643.5" stroke-width="5.5" stroke="rgba(183, 207, 183, 0.37)"></path>
            <path d="M569.25 709.5 a8.25 8.25 0 1 0 16.5 0 a8.25 8.25 0 1 0 -16.5 0zM470.25 643.5 a8.25 8.25 0 1 0 16.5 0 a8.25 8.25 0 1 0 -16.5 0z" fill="rgba(183, 207, 183, 0.37)"></path>
            <path d="M247.5 445.5L379.5 577.5" stroke-width="5.5" stroke="rgba(183, 207, 183, 0.37)"></path>
            <path d="M239.25 445.5 a8.25 8.25 0 1 0 16.5 0 a8.25 8.25 0 1 0 -16.5 0zM371.25 577.5 a8.25 8.25 0 1 0 16.5 0 a8.25 8.25 0 1 0 -16.5 0z" fill="rgba(183, 207, 183, 0.37)"></path>
            <path d="M49.5 709.5L115.5 643.5L181.5 643.5L214.5 676.5" stroke-width="5.5" stroke="rgba(183, 207, 183, 0.37)"></path>
            <path d="M41.25 709.5 a8.25 8.25 0 1 0 16.5 0 a8.25 8.25 0 1 0 -16.5 0zM206.25 676.5 a8.25 8.25 0 1 0 16.5 0 a8.25 8.25 0 1 0 -16.5 0z" fill="rgba(183, 207, 183, 0.37)"></path>
            <path d="M148.5 445.5L148.5 511.5L313.5 676.5" stroke-width="5.5" stroke="rgba(183, 207, 183, 0.37)"></path>
            <path d="M140.25 445.5 a8.25 8.25 0 1 0 16.5 0 a8.25 8.25 0 1 0 -16.5 0zM305.25 676.5 a8.25 8.25 0 1 0 16.5 0 a8.25 8.25 0 1 0 -16.5 0z" fill="rgba(183, 207, 183, 0.37)"></path>
            <path d="M1534.5 643.5L1534.5 610.5L1633.5 511.5L1699.5 511.5" stroke-width="5.5" stroke="rgba(183, 207, 183, 0.37)"></path>
            <path d="M1526.25 643.5 a8.25 8.25 0 1 0 16.5 0 a8.25 8.25 0 1 0 -16.5 0zM1691.25 511.5 a8.25 8.25 0 1 0 16.5 0 a8.25 8.25 0 1 0 -16.5 0z" fill="rgba(183, 207, 183, 0.37)"></path>
            <path d="M1897.5 16.5L1765.5 148.5L1732.5 148.5L1666.5 82.5L1534.5 82.5" stroke-width="5.5" stroke="rgba(183, 207, 183, 0.37)"></path>
            <path d="M1889.25 16.5 a8.25 8.25 0 1 0 16.5 0 a8.25 8.25 0 1 0 -16.5 0zM1526.25 82.5 a8.25 8.25 0 1 0 16.5 0 a8.25 8.25 0 1 0 -16.5 0z" fill="rgba(183, 207, 183, 0.37)"></path>
            <path d="M1402.5 16.5L1237.5 181.5L1204.5 181.5L1171.5 214.5" stroke-width="5.5" stroke="rgba(183, 207, 183, 0.37)"></path>
            <path d="M1394.25 16.5 a8.25 8.25 0 1 0 16.5 0 a8.25 8.25 0 1 0 -16.5 0zM1163.25 214.5 a8.25 8.25 0 1 0 16.5 0 a8.25 8.25 0 1 0 -16.5 0z" fill="rgba(183, 207, 183, 0.37)"></path>
            <path d="M907.5 346.5L940.5 313.5L940.5 280.5" stroke-width="5.5" stroke="rgba(183, 207, 183, 0.37)"></path>
            <path d="M899.25 346.5 a8.25 8.25 0 1 0 16.5 0 a8.25 8.25 0 1 0 -16.5 0zM932.25 280.5 a8.25 8.25 0 1 0 16.5 0 a8.25 8.25 0 1 0 -16.5 0z" fill="rgba(183, 207, 183, 0.37)"></path>
            <path d="M973.5 214.5L973.5 82.5L940.5 49.5L874.5 49.5" stroke-width="5.5" stroke="rgba(183, 207, 183, 0.37)"></path>
            <path d="M965.25 214.5 a8.25 8.25 0 1 0 16.5 0 a8.25 8.25 0 1 0 -16.5 0zM866.25 49.5 a8.25 8.25 0 1 0 16.5 0 a8.25 8.25 0 1 0 -16.5 0z" fill="rgba(183, 207, 183, 0.37)"></path>
            <path d="M1204.5 16.5L1303.5 16.5L1336.5 49.5" stroke-width="5.5" stroke="rgba(183, 207, 183, 0.37)"></path>
            <path d="M1196.25 16.5 a8.25 8.25 0 1 0 16.5 0 a8.25 8.25 0 1 0 -16.5 0zM1328.25 49.5 a8.25 8.25 0 1 0 16.5 0 a8.25 8.25 0 1 0 -16.5 0z" fill="rgba(183, 207, 183, 0.37)"></path>
            <path d="M1501.5 511.5L1435.5 511.5L1336.5 610.5" stroke-width="5.5" stroke="rgba(183, 207, 183, 0.37)"></path>
            <path d="M1493.25 511.5 a8.25 8.25 0 1 0 16.5 0 a8.25 8.25 0 1 0 -16.5 0zM1328.25 610.5 a8.25 8.25 0 1 0 16.5 0 a8.25 8.25 0 1 0 -16.5 0z" fill="rgba(183, 207, 183, 0.37)"></path>
            <path d="M1270.5 346.5L1336.5 280.5L1336.5 247.5" stroke-width="5.5" stroke="rgba(183, 207, 183, 0.37)"></path>
            <path d="M1262.25 346.5 a8.25 8.25 0 1 0 16.5 0 a8.25 8.25 0 1 0 -16.5 0zM1328.25 247.5 a8.25 8.25 0 1 0 16.5 0 a8.25 8.25 0 1 0 -16.5 0z" fill="rgba(183, 207, 183, 0.37)"></path>
            <path d="M676.5 544.5L643.5 544.5L577.5 610.5L577.5 643.5L610.5 676.5L676.5 676.5L808.5 544.5L808.5 511.5" stroke-width="5.5" stroke="rgba(183, 207, 183, 0.37)"></path>
            <path d="M668.25 544.5 a8.25 8.25 0 1 0 16.5 0 a8.25 8.25 0 1 0 -16.5 0zM800.25 511.5 a8.25 8.25 0 1 0 16.5 0 a8.25 8.25 0 1 0 -16.5 0z" fill="rgba(183, 207, 183, 0.37)"></path>
            <path d="M214.5 181.5L82.5 313.5" stroke-width="5.5" stroke="rgba(183, 207, 183, 0.37)"></path>
            <path d="M206.25 181.5 a8.25 8.25 0 1 0 16.5 0 a8.25 8.25 0 1 0 -16.5 0zM74.25 313.5 a8.25 8.25 0 1 0 16.5 0 a8.25 8.25 0 1 0 -16.5 0z" fill="rgba(183, 207, 183, 0.37)"></path>
            <path d="M577.5 478.5L577.5 511.5L544.5 544.5L478.5 544.5L445.5 511.5L412.5 511.5" stroke-width="5.5" stroke="rgba(183, 207, 183, 0.37)"></path>
            <path d="M569.25 478.5 a8.25 8.25 0 1 0 16.5 0 a8.25 8.25 0 1 0 -16.5 0zM404.25 511.5 a8.25 8.25 0 1 0 16.5 0 a8.25 8.25 0 1 0 -16.5 0z" fill="rgba(183, 207, 183, 0.37)"></path>
            <path d="M247.5 577.5L181.5 511.5L181.5 313.5" stroke-width="5.5" stroke="rgba(183, 207, 183, 0.37)"></path>
            <path d="M239.25 577.5 a8.25 8.25 0 1 0 16.5 0 a8.25 8.25 0 1 0 -16.5 0zM173.25 313.5 a8.25 8.25 0 1 0 16.5 0 a8.25 8.25 0 1 0 -16.5 0z" fill="rgba(183, 207, 183, 0.37)"></path>
            <path d="M775.5 346.5L808.5 379.5L808.5 445.5" stroke-width="5.5" stroke="rgba(183, 207, 183, 0.37)"></path>
            <path d="M767.25 346.5 a8.25 8.25 0 1 0 16.5 0 a8.25 8.25 0 1 0 -16.5 0zM800.25 445.5 a8.25 8.25 0 1 0 16.5 0 a8.25 8.25 0 1 0 -16.5 0z" fill="rgba(183, 207, 183, 0.37)"></path>
            <path d="M1204.5 346.5L1171.5 346.5L1138.5 379.5L1138.5 412.5L1270.5 544.5L1303.5 544.5" stroke-width="5.5" stroke="rgba(183, 207, 183, 0.37)"></path>
            <path d="M1196.25 346.5 a8.25 8.25 0 1 0 16.5 0 a8.25 8.25 0 1 0 -16.5 0zM1295.25 544.5 a8.25 8.25 0 1 0 16.5 0 a8.25 8.25 0 1 0 -16.5 0z" fill="rgba(183, 207, 183, 0.37)"></path>
            <path d="M1369.5 445.5L1369.5 478.5L1336.5 511.5" stroke-width="5.5" stroke="rgba(183, 207, 183, 0.37)"></path>
            <path d="M1361.25 445.5 a8.25 8.25 0 1 0 16.5 0 a8.25 8.25 0 1 0 -16.5 0zM1328.25 511.5 a8.25 8.25 0 1 0 16.5 0 a8.25 8.25 0 1 0 -16.5 0z" fill="rgba(183, 207, 183, 0.37)"></path>
            <path d="M412.5 82.5L511.5 82.5L544.5 49.5" stroke-width="5.5" stroke="rgba(183, 207, 183, 0.37)"></path>
            <path d="M404.25 82.5 a8.25 8.25 0 1 0 16.5 0 a8.25 8.25 0 1 0 -16.5 0zM536.25 49.5 a8.25 8.25 0 1 0 16.5 0 a8.25 8.25 0 1 0 -16.5 0z" fill="rgba(183, 207, 183, 0.37)"></path>
            <path d="M742.5 577.5L742.5 511.5" stroke-width="5.5" stroke="rgba(183, 207, 183, 0.37)"></path>
            <path d="M734.25 577.5 a8.25 8.25 0 1 0 16.5 0 a8.25 8.25 0 1 0 -16.5 0zM734.25 511.5 a8.25 8.25 0 1 0 16.5 0 a8.25 8.25 0 1 0 -16.5 0z" fill="rgba(183, 207, 183, 0.37)"></path>
            <path d="M280.5 610.5L313.5 577.5L346.5 577.5" stroke-width="5.5" stroke="rgba(183, 207, 183, 0.37)"></path>
            <path d="M272.25 610.5 a8.25 8.25 0 1 0 16.5 0 a8.25 8.25 0 1 0 -16.5 0zM338.25 577.5 a8.25 8.25 0 1 0 16.5 0 a8.25 8.25 0 1 0 -16.5 0z" fill="rgba(183, 207, 183, 0.37)"></path>
            <path d="M82.5 115.5L16.5 115.5" stroke-width="5.5" stroke="rgba(183, 207, 183, 0.37)"></path>
            <path d="M74.25 115.5 a8.25 8.25 0 1 0 16.5 0 a8.25 8.25 0 1 0 -16.5 0zM8.25 115.5 a8.25 8.25 0 1 0 16.5 0 a8.25 8.25 0 1 0 -16.5 0z" fill="rgba(183, 207, 183, 0.37)"></path>
            <path d="M16.5 214.5L82.5 148.5" stroke-width="5.5" stroke="rgba(183, 207, 183, 0.37)"></path>
            <path d="M8.25 214.5 a8.25 8.25 0 1 0 16.5 0 a8.25 8.25 0 1 0 -16.5 0zM74.25 148.5 a8.25 8.25 0 1 0 16.5 0 a8.25 8.25 0 1 0 -16.5 0z" fill="rgba(183, 207, 183, 0.37)"></path>
            <path d="M1732.5 577.5L1666.5 577.5" stroke-width="5.5" stroke="rgba(183, 207, 183, 0.37)"></path>
            <path d="M1724.25 577.5 a8.25 8.25 0 1 0 16.5 0 a8.25 8.25 0 1 0 -16.5 0zM1658.25 577.5 a8.25 8.25 0 1 0 16.5 0 a8.25 8.25 0 1 0 -16.5 0z" fill="rgba(183, 207, 183, 0.37)"></path>
            <path d="M1072.5 709.5L1072.5 676.5L1105.5 643.5L1105.5 610.5" stroke-width="5.5" stroke="rgba(183, 207, 183, 0.37)"></path>
            <path d="M1064.25 709.5 a8.25 8.25 0 1 0 16.5 0 a8.25 8.25 0 1 0 -16.5 0zM1097.25 610.5 a8.25 8.25 0 1 0 16.5 0 a8.25 8.25 0 1 0 -16.5 0z" fill="rgba(183, 207, 183, 0.37)"></path>
            <path d="M1138.5 16.5L1072.5 16.5" stroke-width="5.5" stroke="rgba(183, 207, 183, 0.37)"></path>
            <path d="M1130.25 16.5 a8.25 8.25 0 1 0 16.5 0 a8.25 8.25 0 1 0 -16.5 0zM1064.25 16.5 a8.25 8.25 0 1 0 16.5 0 a8.25 8.25 0 1 0 -16.5 0z" fill="rgba(183, 207, 183, 0.37)"></path>
            <path d="M544.5 511.5L478.5 511.5" stroke-width="5.5" stroke="rgba(183, 207, 183, 0.37)"></path>
            <path d="M536.25 511.5 a8.25 8.25 0 1 0 16.5 0 a8.25 8.25 0 1 0 -16.5 0zM470.25 511.5 a8.25 8.25 0 1 0 16.5 0 a8.25 8.25 0 1 0 -16.5 0z" fill="rgba(183, 207, 183, 0.37)"></path>
            <path d="M1798.5 709.5L1798.5 643.5L1831.5 610.5L1864.5 610.5" stroke-width="5.5" stroke="rgba(183, 207, 183, 0.37)"></path>
            <path d="M1790.25 709.5 a8.25 8.25 0 1 0 16.5 0 a8.25 8.25 0 1 0 -16.5 0zM1856.25 610.5 a8.25 8.25 0 1 0 16.5 0 a8.25 8.25 0 1 0 -16.5 0z" fill="rgba(183, 207, 183, 0.37)"></path>
            <path d="M544.5 346.5L445.5 346.5L379.5 280.5" stroke-width="5.5" stroke="rgba(183, 207, 183, 0.37)"></path>
            <path d="M536.25 346.5 a8.25 8.25 0 1 0 16.5 0 a8.25 8.25 0 1 0 -16.5 0zM371.25 280.5 a8.25 8.25 0 1 0 16.5 0 a8.25 8.25 0 1 0 -16.5 0z" fill="rgba(183, 207, 183, 0.37)"></path>
            <path d="M709.5 577.5L709.5 511.5" stroke-width="5.5" stroke="rgba(183, 207, 183, 0.37)"></path>
            <path d="M701.25 577.5 a8.25 8.25 0 1 0 16.5 0 a8.25 8.25 0 1 0 -16.5 0zM701.25 511.5 a8.25 8.25 0 1 0 16.5 0 a8.25 8.25 0 1 0 -16.5 0z" fill="rgba(183, 207, 183, 0.37)"></path>
            <path d="M544.5 379.5L610.5 379.5" stroke-width="5.5" stroke="rgba(183, 207, 183, 0.37)"></path>
            <path d="M536.25 379.5 a8.25 8.25 0 1 0 16.5 0 a8.25 8.25 0 1 0 -16.5 0zM602.25 379.5 a8.25 8.25 0 1 0 16.5 0 a8.25 8.25 0 1 0 -16.5 0z" fill="rgba(183, 207, 183, 0.37)"></path>
            <path d="M1600.5 247.5L1666.5 181.5L1699.5 181.5" stroke-width="5.5" stroke="rgba(183, 207, 183, 0.37)"></path>
            <path d="M1592.25 247.5 a8.25 8.25 0 1 0 16.5 0 a8.25 8.25 0 1 0 -16.5 0zM1691.25 181.5 a8.25 8.25 0 1 0 16.5 0 a8.25 8.25 0 1 0 -16.5 0z" fill="rgba(183, 207, 183, 0.37)"></path>
            <path d="M1864.5 379.5L1897.5 412.5L1897.5 445.5L1831.5 511.5L1798.5 511.5L1765.5 478.5" stroke-width="5.5" stroke="rgba(183, 207, 183, 0.37)"></path>
            <path d="M1856.25 379.5 a8.25 8.25 0 1 0 16.5 0 a8.25 8.25 0 1 0 -16.5 0zM1757.25 478.5 a8.25 8.25 0 1 0 16.5 0 a8.25 8.25 0 1 0 -16.5 0z" fill="rgba(183, 207, 183, 0.37)"></path>
            <path d="M214.5 478.5L280.5 544.5L280.5 577.5" stroke-width="5.5" stroke="rgba(183, 207, 183, 0.37)"></path>
            <path d="M206.25 478.5 a8.25 8.25 0 1 0 16.5 0 a8.25 8.25 0 1 0 -16.5 0zM272.25 577.5 a8.25 8.25 0 1 0 16.5 0 a8.25 8.25 0 1 0 -16.5 0z" fill="rgba(183, 207, 183, 0.37)"></path>
            <path d="M1633.5 280.5L1567.5 280.5L1534.5 313.5L1534.5 346.5" stroke-width="5.5" stroke="rgba(183, 207, 183, 0.37)"></path>
            <path d="M1625.25 280.5 a8.25 8.25 0 1 0 16.5 0 a8.25 8.25 0 1 0 -16.5 0zM1526.25 346.5 a8.25 8.25 0 1 0 16.5 0 a8.25 8.25 0 1 0 -16.5 0z" fill="rgba(183, 207, 183, 0.37)"></path>
            <path d="M82.5 82.5L82.5 16.5" stroke-width="5.5" stroke="rgba(183, 207, 183, 0.37)"></path>
            <path d="M74.25 82.5 a8.25 8.25 0 1 0 16.5 0 a8.25 8.25 0 1 0 -16.5 0zM74.25 16.5 a8.25 8.25 0 1 0 16.5 0 a8.25 8.25 0 1 0 -16.5 0z" fill="rgba(183, 207, 183, 0.37)"></path>
            <path d="M82.5 412.5L115.5 445.5L115.5 478.5" stroke-width="5.5" stroke="rgba(183, 207, 183, 0.37)"></path>
            <path d="M74.25 412.5 a8.25 8.25 0 1 0 16.5 0 a8.25 8.25 0 1 0 -16.5 0zM107.25 478.5 a8.25 8.25 0 1 0 16.5 0 a8.25 8.25 0 1 0 -16.5 0z" fill="rgba(183, 207, 183, 0.37)"></path>
            <path d="M544.5 478.5L511.5 445.5L511.5 412.5" stroke-width="5.5" stroke="rgba(183, 207, 183, 0.37)"></path>
            <path d="M536.25 478.5 a8.25 8.25 0 1 0 16.5 0 a8.25 8.25 0 1 0 -16.5 0zM503.25 412.5 a8.25 8.25 0 1 0 16.5 0 a8.25 8.25 0 1 0 -16.5 0z" fill="rgba(183, 207, 183, 0.37)"></path>
            <path d="M709.5 148.5L643.5 82.5L577.5 82.5L544.5 115.5" stroke-width="5.5" stroke="rgba(183, 207, 183, 0.37)"></path>
            <path d="M701.25 148.5 a8.25 8.25 0 1 0 16.5 0 a8.25 8.25 0 1 0 -16.5 0zM536.25 115.5 a8.25 8.25 0 1 0 16.5 0 a8.25 8.25 0 1 0 -16.5 0z" fill="rgba(183, 207, 183, 0.37)"></path>
            <path d="M1270.5 379.5L1270.5 445.5L1303.5 478.5L1336.5 478.5" stroke-width="5.5" stroke="rgba(183, 207, 183, 0.37)"></path>
            <path d="M1262.25 379.5 a8.25 8.25 0 1 0 16.5 0 a8.25 8.25 0 1 0 -16.5 0zM1328.25 478.5 a8.25 8.25 0 1 0 16.5 0 a8.25 8.25 0 1 0 -16.5 0z" fill="rgba(183, 207, 183, 0.37)"></path>
            <path d="M1336.5 379.5L1303.5 412.5L1303.5 445.5" stroke-width="5.5" stroke="rgba(183, 207, 183, 0.37)"></path>
            <path d="M1328.25 379.5 a8.25 8.25 0 1 0 16.5 0 a8.25 8.25 0 1 0 -16.5 0zM1295.25 445.5 a8.25 8.25 0 1 0 16.5 0 a8.25 8.25 0 1 0 -16.5 0z" fill="rgba(183, 207, 183, 0.37)"></path>
            <path d="M16.5 16.5L16.5 82.5" stroke-width="5.5" stroke="rgba(183, 207, 183, 0.37)"></path>
            <path d="M8.25 16.5 a8.25 8.25 0 1 0 16.5 0 a8.25 8.25 0 1 0 -16.5 0zM8.25 82.5 a8.25 8.25 0 1 0 16.5 0 a8.25 8.25 0 1 0 -16.5 0z" fill="rgba(183, 207, 183, 0.37)"></path>
            <path d="M1138.5 181.5L1270.5 49.5" stroke-width="5.5" stroke="rgba(183, 207, 183, 0.37)"></path>
            <path d="M1130.25 181.5 a8.25 8.25 0 1 0 16.5 0 a8.25 8.25 0 1 0 -16.5 0zM1262.25 49.5 a8.25 8.25 0 1 0 16.5 0 a8.25 8.25 0 1 0 -16.5 0z" fill="rgba(183, 207, 183, 0.37)"></path>
            <path d="M874.5 280.5L808.5 214.5L808.5 181.5" stroke-width="5.5" stroke="rgba(183, 207, 183, 0.37)"></path>
            <path d="M866.25 280.5 a8.25 8.25 0 1 0 16.5 0 a8.25 8.25 0 1 0 -16.5 0zM800.25 181.5 a8.25 8.25 0 1 0 16.5 0 a8.25 8.25 0 1 0 -16.5 0z" fill="rgba(183, 207, 183, 0.37)"></path>
            <path d="M82.5 709.5L115.5 676.5L181.5 676.5" stroke-width="5.5" stroke="rgba(183, 207, 183, 0.37)"></path>
            <path d="M74.25 709.5 a8.25 8.25 0 1 0 16.5 0 a8.25 8.25 0 1 0 -16.5 0zM173.25 676.5 a8.25 8.25 0 1 0 16.5 0 a8.25 8.25 0 1 0 -16.5 0z" fill="rgba(183, 207, 183, 0.37)"></path>
            <path d="M1237.5 49.5L1171.5 115.5" stroke-width="5.5" stroke="rgba(183, 207, 183, 0.37)"></path>
            <path d="M1229.25 49.5 a8.25 8.25 0 1 0 16.5 0 a8.25 8.25 0 1 0 -16.5 0zM1163.25 115.5 a8.25 8.25 0 1 0 16.5 0 a8.25 8.25 0 1 0 -16.5 0z" fill="rgba(183, 207, 183, 0.37)"></path>
            <path d="M1171.5 82.5L1171.5 16.5" stroke-width="5.5" stroke="rgba(183, 207, 183, 0.37)"></path>
            <path d="M1163.25 82.5 a8.25 8.25 0 1 0 16.5 0 a8.25 8.25 0 1 0 -16.5 0zM1163.25 16.5 a8.25 8.25 0 1 0 16.5 0 a8.25 8.25 0 1 0 -16.5 0z" fill="rgba(183, 207, 183, 0.37)"></path>
            <path d="M610.5 115.5L643.5 115.5L676.5 148.5" stroke-width="5.5" stroke="rgba(183, 207, 183, 0.37)"></path>
            <path d="M602.25 115.5 a8.25 8.25 0 1 0 16.5 0 a8.25 8.25 0 1 0 -16.5 0zM668.25 148.5 a8.25 8.25 0 1 0 16.5 0 a8.25 8.25 0 1 0 -16.5 0z" fill="rgba(183, 207, 183, 0.37)"></path>
            <path d="M709.5 610.5L676.5 643.5L643.5 643.5" stroke-width="5.5" stroke="rgba(183, 207, 183, 0.37)"></path>
            <path d="M701.25 610.5 a8.25 8.25 0 1 0 16.5 0 a8.25 8.25 0 1 0 -16.5 0zM635.25 643.5 a8.25 8.25 0 1 0 16.5 0 a8.25 8.25 0 1 0 -16.5 0z" fill="rgba(183, 207, 183, 0.37)"></path>
            <path d="M1138.5 148.5L1039.5 247.5" stroke-width="5.5" stroke="rgba(183, 207, 183, 0.37)"></path>
            <path d="M1130.25 148.5 a8.25 8.25 0 1 0 16.5 0 a8.25 8.25 0 1 0 -16.5 0zM1031.25 247.5 a8.25 8.25 0 1 0 16.5 0 a8.25 8.25 0 1 0 -16.5 0z" fill="rgba(183, 207, 183, 0.37)"></path>
            <path d="M775.5 412.5L775.5 379.5L709.5 313.5" stroke-width="5.5" stroke="rgba(183, 207, 183, 0.37)"></path>
            <path d="M767.25 412.5 a8.25 8.25 0 1 0 16.5 0 a8.25 8.25 0 1 0 -16.5 0zM701.25 313.5 a8.25 8.25 0 1 0 16.5 0 a8.25 8.25 0 1 0 -16.5 0z" fill="rgba(183, 207, 183, 0.37)"></path>
            <path d="M907.5 82.5L907.5 115.5L940.5 148.5" stroke-width="5.5" stroke="rgba(183, 207, 183, 0.37)"></path>
            <path d="M899.25 82.5 a8.25 8.25 0 1 0 16.5 0 a8.25 8.25 0 1 0 -16.5 0zM932.25 148.5 a8.25 8.25 0 1 0 16.5 0 a8.25 8.25 0 1 0 -16.5 0z" fill="rgba(183, 207, 183, 0.37)"></path>
            <path d="M709.5 214.5L742.5 181.5L742.5 115.5L709.5 82.5L676.5 82.5" stroke-width="5.5" stroke="rgba(183, 207, 183, 0.37)"></path>
            <path d="M701.25 214.5 a8.25 8.25 0 1 0 16.5 0 a8.25 8.25 0 1 0 -16.5 0zM668.25 82.5 a8.25 8.25 0 1 0 16.5 0 a8.25 8.25 0 1 0 -16.5 0z" fill="rgba(183, 207, 183, 0.37)"></path>
            <path d="M1633.5 709.5L1567.5 709.5" stroke-width="5.5" stroke="rgba(183, 207, 183, 0.37)"></path>
            <path d="M1625.25 709.5 a8.25 8.25 0 1 0 16.5 0 a8.25 8.25 0 1 0 -16.5 0zM1559.25 709.5 a8.25 8.25 0 1 0 16.5 0 a8.25 8.25 0 1 0 -16.5 0z" fill="rgba(183, 207, 183, 0.37)"></path>
            <path d="M313.5 49.5L379.5 115.5" stroke-width="5.5" stroke="rgba(183, 207, 183, 0.37)"></path>
            <path d="M305.25 49.5 a8.25 8.25 0 1 0 16.5 0 a8.25 8.25 0 1 0 -16.5 0zM371.25 115.5 a8.25 8.25 0 1 0 16.5 0 a8.25 8.25 0 1 0 -16.5 0z" fill="rgba(183, 207, 183, 0.37)"></path>
            <path d="M82.5 610.5L82.5 643.5L49.5 676.5L16.5 676.5" stroke-width="5.5" stroke="rgba(183, 207, 183, 0.37)"></path>
            <path d="M74.25 610.5 a8.25 8.25 0 1 0 16.5 0 a8.25 8.25 0 1 0 -16.5 0zM8.25 676.5 a8.25 8.25 0 1 0 16.5 0 a8.25 8.25 0 1 0 -16.5 0z" fill="rgba(183, 207, 183, 0.37)"></path>
            <path d="M1732.5 16.5L1666.5 16.5" stroke-width="5.5" stroke="rgba(183, 207, 183, 0.37)"></path>
            <path d="M1724.25 16.5 a8.25 8.25 0 1 0 16.5 0 a8.25 8.25 0 1 0 -16.5 0zM1658.25 16.5 a8.25 8.25 0 1 0 16.5 0 a8.25 8.25 0 1 0 -16.5 0z" fill="rgba(183, 207, 183, 0.37)"></path>
            <path d="M841.5 379.5L907.5 313.5" stroke-width="5.5" stroke="rgba(183, 207, 183, 0.37)"></path>
            <path d="M833.25 379.5 a8.25 8.25 0 1 0 16.5 0 a8.25 8.25 0 1 0 -16.5 0zM899.25 313.5 a8.25 8.25 0 1 0 16.5 0 a8.25 8.25 0 1 0 -16.5 0z" fill="rgba(183, 207, 183, 0.37)"></path>
            <path d="M1831.5 643.5L1831.5 709.5" stroke-width="5.5" stroke="rgba(183, 207, 183, 0.37)"></path>
            <path d="M1823.25 643.5 a8.25 8.25 0 1 0 16.5 0 a8.25 8.25 0 1 0 -16.5 0zM1823.25 709.5 a8.25 8.25 0 1 0 16.5 0 a8.25 8.25 0 1 0 -16.5 0z" fill="rgba(183, 207, 183, 0.37)"></path>
            <path d="M1699.5 478.5L1633.5 478.5" stroke-width="5.5" stroke="rgba(183, 207, 183, 0.37)"></path>
            <path d="M1691.25 478.5 a8.25 8.25 0 1 0 16.5 0 a8.25 8.25 0 1 0 -16.5 0zM1625.25 478.5 a8.25 8.25 0 1 0 16.5 0 a8.25 8.25 0 1 0 -16.5 0z" fill="rgba(183, 207, 183, 0.37)"></path>
            <path d="M346.5 49.5L478.5 49.5" stroke-width="5.5" stroke="rgba(183, 207, 183, 0.37)"></path>
            <path d="M338.25 49.5 a8.25 8.25 0 1 0 16.5 0 a8.25 8.25 0 1 0 -16.5 0zM470.25 49.5 a8.25 8.25 0 1 0 16.5 0 a8.25 8.25 0 1 0 -16.5 0z" fill="rgba(183, 207, 183, 0.37)"></path>
            <path d="M1468.5 478.5L1534.5 412.5" stroke-width="5.5" stroke="rgba(183, 207, 183, 0.37)"></path>
            <path d="M1460.25 478.5 a8.25 8.25 0 1 0 16.5 0 a8.25 8.25 0 1 0 -16.5 0zM1526.25 412.5 a8.25 8.25 0 1 0 16.5 0 a8.25 8.25 0 1 0 -16.5 0z" fill="rgba(183, 207, 183, 0.37)"></path>
            <path d="M445.5 313.5L577.5 313.5" stroke-width="5.5" stroke="rgba(183, 207, 183, 0.37)"></path>
            <path d="M437.25 313.5 a8.25 8.25 0 1 0 16.5 0 a8.25 8.25 0 1 0 -16.5 0zM569.25 313.5 a8.25 8.25 0 1 0 16.5 0 a8.25 8.25 0 1 0 -16.5 0z" fill="rgba(183, 207, 183, 0.37)"></path>
        </g>
    </g>
    <defs>
        <mask id="SvgjsMask1042">
            <rect width="1920" height="700" fill="#ffffff"></rect>
        </mask>
        <mask id="SvgjsMask1043">
            <rect width="1920" height="700" fill="white"></rect>
            <path d="M804.37 82.5 a4.13 4.13 0 1 0 8.26 0 a4.13 4.13 0 1 0 -8.26 0zM936.37 709.5 a4.13 4.13 0 1 0 8.26 0 a4.13 4.13 0 1 0 -8.26 0z" fill="black"></path>
            <path d="M1068.37 280.5 a4.13 4.13 0 1 0 8.26 0 a4.13 4.13 0 1 0 -8.26 0zM1002.37 16.5 a4.13 4.13 0 1 0 8.26 0 a4.13 4.13 0 1 0 -8.26 0z" fill="black"></path>
            <path d="M1299.37 511.5 a4.13 4.13 0 1 0 8.26 0 a4.13 4.13 0 1 0 -8.26 0zM1629.37 16.5 a4.13 4.13 0 1 0 8.26 0 a4.13 4.13 0 1 0 -8.26 0z" fill="black"></path>
            <path d="M1926.37 544.5 a4.13 4.13 0 1 0 8.26 0 a4.13 4.13 0 1 0 -8.26 0zM1926.37 709.5 a4.13 4.13 0 1 0 8.26 0 a4.13 4.13 0 1 0 -8.26 0z" fill="black"></path>
            <path d="M1596.37 379.5 a4.13 4.13 0 1 0 8.26 0 a4.13 4.13 0 1 0 -8.26 0zM1926.37 16.5 a4.13 4.13 0 1 0 8.26 0 a4.13 4.13 0 1 0 -8.26 0z" fill="black"></path>
            <path d="M1266.37 610.5 a4.13 4.13 0 1 0 8.26 0 a4.13 4.13 0 1 0 -8.26 0zM1332.37 214.5 a4.13 4.13 0 1 0 8.26 0 a4.13 4.13 0 1 0 -8.26 0z" fill="black"></path>
            <path d="M111.37 115.5 a4.13 4.13 0 1 0 8.26 0 a4.13 4.13 0 1 0 -8.26 0zM738.37 16.5 a4.13 4.13 0 1 0 8.26 0 a4.13 4.13 0 1 0 -8.26 0z" fill="black"></path>
            <path d="M1398.37 676.5 a4.13 4.13 0 1 0 8.26 0 a4.13 4.13 0 1 0 -8.26 0zM1926.37 82.5 a4.13 4.13 0 1 0 8.26 0 a4.13 4.13 0 1 0 -8.26 0z" fill="black"></path>
            <path d="M540.37 148.5 a4.13 4.13 0 1 0 8.26 0 a4.13 4.13 0 1 0 -8.26 0zM12.37 346.5 a4.13 4.13 0 1 0 8.26 0 a4.13 4.13 0 1 0 -8.26 0z" fill="black"></path>
            <path d="M78.37 379.5 a4.13 4.13 0 1 0 8.26 0 a4.13 4.13 0 1 0 -8.26 0zM309.37 148.5 a4.13 4.13 0 1 0 8.26 0 a4.13 4.13 0 1 0 -8.26 0z" fill="black"></path>
            <path d="M837.37 49.5 a4.13 4.13 0 1 0 8.26 0 a4.13 4.13 0 1 0 -8.26 0zM936.37 16.5 a4.13 4.13 0 1 0 8.26 0 a4.13 4.13 0 1 0 -8.26 0z" fill="black"></path>
            <path d="M441.37 544.5 a4.13 4.13 0 1 0 8.26 0 a4.13 4.13 0 1 0 -8.26 0zM540.37 181.5 a4.13 4.13 0 1 0 8.26 0 a4.13 4.13 0 1 0 -8.26 0z" fill="black"></path>
            <path d="M1695.37 148.5 a4.13 4.13 0 1 0 8.26 0 a4.13 4.13 0 1 0 -8.26 0zM1431.37 115.5 a4.13 4.13 0 1 0 8.26 0 a4.13 4.13 0 1 0 -8.26 0z" fill="black"></path>
            <path d="M804.37 346.5 a4.13 4.13 0 1 0 8.26 0 a4.13 4.13 0 1 0 -8.26 0zM408.37 115.5 a4.13 4.13 0 1 0 8.26 0 a4.13 4.13 0 1 0 -8.26 0z" fill="black"></path>
            <path d="M705.37 709.5 a4.13 4.13 0 1 0 8.26 0 a4.13 4.13 0 1 0 -8.26 0zM804.37 115.5 a4.13 4.13 0 1 0 8.26 0 a4.13 4.13 0 1 0 -8.26 0z" fill="black"></path>
            <path d="M1695.37 49.5 a4.13 4.13 0 1 0 8.26 0 a4.13 4.13 0 1 0 -8.26 0zM1530.37 49.5 a4.13 4.13 0 1 0 8.26 0 a4.13 4.13 0 1 0 -8.26 0z" fill="black"></path>
            <path d="M1134.37 610.5 a4.13 4.13 0 1 0 8.26 0 a4.13 4.13 0 1 0 -8.26 0zM1134.37 709.5 a4.13 4.13 0 1 0 8.26 0 a4.13 4.13 0 1 0 -8.26 0z" fill="black"></path>
            <path d="M1167.37 643.5 a4.13 4.13 0 1 0 8.26 0 a4.13 4.13 0 1 0 -8.26 0zM1167.37 709.5 a4.13 4.13 0 1 0 8.26 0 a4.13 4.13 0 1 0 -8.26 0z" fill="black"></path>
            <path d="M1530.37 676.5 a4.13 4.13 0 1 0 8.26 0 a4.13 4.13 0 1 0 -8.26 0zM1893.37 709.5 a4.13 4.13 0 1 0 8.26 0 a4.13 4.13 0 1 0 -8.26 0z" fill="black"></path>
            <path d="M1233.37 115.5 a4.13 4.13 0 1 0 8.26 0 a4.13 4.13 0 1 0 -8.26 0zM1332.37 709.5 a4.13 4.13 0 1 0 8.26 0 a4.13 4.13 0 1 0 -8.26 0z" fill="black"></path>
            <path d="M1596.37 445.5 a4.13 4.13 0 1 0 8.26 0 a4.13 4.13 0 1 0 -8.26 0zM1794.37 214.5 a4.13 4.13 0 1 0 8.26 0 a4.13 4.13 0 1 0 -8.26 0z" fill="black"></path>
            <path d="M177.37 148.5 a4.13 4.13 0 1 0 8.26 0 a4.13 4.13 0 1 0 -8.26 0zM276.37 709.5 a4.13 4.13 0 1 0 8.26 0 a4.13 4.13 0 1 0 -8.26 0z" fill="black"></path>
            <path d="M1695.37 709.5 a4.13 4.13 0 1 0 8.26 0 a4.13 4.13 0 1 0 -8.26 0zM1827.37 577.5 a4.13 4.13 0 1 0 8.26 0 a4.13 4.13 0 1 0 -8.26 0z" fill="black"></path>
            <path d="M1926.37 511.5 a4.13 4.13 0 1 0 8.26 0 a4.13 4.13 0 1 0 -8.26 0zM1926.37 115.5 a4.13 4.13 0 1 0 8.26 0 a4.13 4.13 0 1 0 -8.26 0z" fill="black"></path>
            <path d="M342.37 610.5 a4.13 4.13 0 1 0 8.26 0 a4.13 4.13 0 1 0 -8.26 0zM936.37 379.5 a4.13 4.13 0 1 0 8.26 0 a4.13 4.13 0 1 0 -8.26 0z" fill="black"></path>
            <path d="M1200.37 544.5 a4.13 4.13 0 1 0 8.26 0 a4.13 4.13 0 1 0 -8.26 0zM1464.37 16.5 a4.13 4.13 0 1 0 8.26 0 a4.13 4.13 0 1 0 -8.26 0z" fill="black"></path>
            <path d="M1266.37 577.5 a4.13 4.13 0 1 0 8.26 0 a4.13 4.13 0 1 0 -8.26 0zM1101.37 412.5 a4.13 4.13 0 1 0 8.26 0 a4.13 4.13 0 1 0 -8.26 0z" fill="black"></path>
            <path d="M1200.37 247.5 a4.13 4.13 0 1 0 8.26 0 a4.13 4.13 0 1 0 -8.26 0zM1134.37 247.5 a4.13 4.13 0 1 0 8.26 0 a4.13 4.13 0 1 0 -8.26 0z" fill="black"></path>
            <path d="M375.37 643.5 a4.13 4.13 0 1 0 8.26 0 a4.13 4.13 0 1 0 -8.26 0zM309.37 709.5 a4.13 4.13 0 1 0 8.26 0 a4.13 4.13 0 1 0 -8.26 0z" fill="black"></path>
            <path d="M111.37 16.5 a4.13 4.13 0 1 0 8.26 0 a4.13 4.13 0 1 0 -8.26 0zM177.37 16.5 a4.13 4.13 0 1 0 8.26 0 a4.13 4.13 0 1 0 -8.26 0z" fill="black"></path>
            <path d="M606.37 247.5 a4.13 4.13 0 1 0 8.26 0 a4.13 4.13 0 1 0 -8.26 0zM474.37 478.5 a4.13 4.13 0 1 0 8.26 0 a4.13 4.13 0 1 0 -8.26 0z" fill="black"></path>
            <path d="M111.37 610.5 a4.13 4.13 0 1 0 8.26 0 a4.13 4.13 0 1 0 -8.26 0zM243.37 709.5 a4.13 4.13 0 1 0 8.26 0 a4.13 4.13 0 1 0 -8.26 0z" fill="black"></path>
            <path d="M12.37 478.5 a4.13 4.13 0 1 0 8.26 0 a4.13 4.13 0 1 0 -8.26 0zM144.37 577.5 a4.13 4.13 0 1 0 8.26 0 a4.13 4.13 0 1 0 -8.26 0z" fill="black"></path>
            <path d="M1035.37 181.5 a4.13 4.13 0 1 0 8.26 0 a4.13 4.13 0 1 0 -8.26 0zM1035.37 16.5 a4.13 4.13 0 1 0 8.26 0 a4.13 4.13 0 1 0 -8.26 0z" fill="black"></path>
            <path d="M672.37 181.5 a4.13 4.13 0 1 0 8.26 0 a4.13 4.13 0 1 0 -8.26 0zM309.37 478.5 a4.13 4.13 0 1 0 8.26 0 a4.13 4.13 0 1 0 -8.26 0z" fill="black"></path>
            <path d="M1068.37 643.5 a4.13 4.13 0 1 0 8.26 0 a4.13 4.13 0 1 0 -8.26 0zM969.37 709.5 a4.13 4.13 0 1 0 8.26 0 a4.13 4.13 0 1 0 -8.26 0z" fill="black"></path>
            <path d="M1563.37 247.5 a4.13 4.13 0 1 0 8.26 0 a4.13 4.13 0 1 0 -8.26 0zM1464.37 82.5 a4.13 4.13 0 1 0 8.26 0 a4.13 4.13 0 1 0 -8.26 0z" fill="black"></path>
            <path d="M1728.37 445.5 a4.13 4.13 0 1 0 8.26 0 a4.13 4.13 0 1 0 -8.26 0zM1728.37 511.5 a4.13 4.13 0 1 0 8.26 0 a4.13 4.13 0 1 0 -8.26 0z" fill="black"></path>
            <path d="M936.37 181.5 a4.13 4.13 0 1 0 8.26 0 a4.13 4.13 0 1 0 -8.26 0zM837.37 82.5 a4.13 4.13 0 1 0 8.26 0 a4.13 4.13 0 1 0 -8.26 0z" fill="black"></path>
            <path d="M1134.37 115.5 a4.13 4.13 0 1 0 8.26 0 a4.13 4.13 0 1 0 -8.26 0zM1068.37 115.5 a4.13 4.13 0 1 0 8.26 0 a4.13 4.13 0 1 0 -8.26 0z" fill="black"></path>
            <path d="M1233.37 214.5 a4.13 4.13 0 1 0 8.26 0 a4.13 4.13 0 1 0 -8.26 0zM1431.37 16.5 a4.13 4.13 0 1 0 8.26 0 a4.13 4.13 0 1 0 -8.26 0z" fill="black"></path>
            <path d="M573.37 676.5 a4.13 4.13 0 1 0 8.26 0 a4.13 4.13 0 1 0 -8.26 0zM837.37 511.5 a4.13 4.13 0 1 0 8.26 0 a4.13 4.13 0 1 0 -8.26 0z" fill="black"></path>
            <path d="M1761.37 445.5 a4.13 4.13 0 1 0 8.26 0 a4.13 4.13 0 1 0 -8.26 0zM1893.37 148.5 a4.13 4.13 0 1 0 8.26 0 a4.13 4.13 0 1 0 -8.26 0z" fill="black"></path>
            <path d="M540.37 214.5 a4.13 4.13 0 1 0 8.26 0 a4.13 4.13 0 1 0 -8.26 0zM309.37 214.5 a4.13 4.13 0 1 0 8.26 0 a4.13 4.13 0 1 0 -8.26 0z" fill="black"></path>
            <path d="M969.37 511.5 a4.13 4.13 0 1 0 8.26 0 a4.13 4.13 0 1 0 -8.26 0zM903.37 709.5 a4.13 4.13 0 1 0 8.26 0 a4.13 4.13 0 1 0 -8.26 0z" fill="black"></path>
            <path d="M12.37 610.5 a4.13 4.13 0 1 0 8.26 0 a4.13 4.13 0 1 0 -8.26 0zM78.37 577.5 a4.13 4.13 0 1 0 8.26 0 a4.13 4.13 0 1 0 -8.26 0z" fill="black"></path>
            <path d="M540.37 280.5 a4.13 4.13 0 1 0 8.26 0 a4.13 4.13 0 1 0 -8.26 0zM639.37 280.5 a4.13 4.13 0 1 0 8.26 0 a4.13 4.13 0 1 0 -8.26 0z" fill="black"></path>
            <path d="M1827.37 412.5 a4.13 4.13 0 1 0 8.26 0 a4.13 4.13 0 1 0 -8.26 0zM1893.37 181.5 a4.13 4.13 0 1 0 8.26 0 a4.13 4.13 0 1 0 -8.26 0z" fill="black"></path>
            <path d="M606.37 445.5 a4.13 4.13 0 1 0 8.26 0 a4.13 4.13 0 1 0 -8.26 0zM639.37 313.5 a4.13 4.13 0 1 0 8.26 0 a4.13 4.13 0 1 0 -8.26 0z" fill="black"></path>
            <path d="M177.37 115.5 a4.13 4.13 0 1 0 8.26 0 a4.13 4.13 0 1 0 -8.26 0zM78.37 346.5 a4.13 4.13 0 1 0 8.26 0 a4.13 4.13 0 1 0 -8.26 0z" fill="black"></path>
            <path d="M1464.37 412.5 a4.13 4.13 0 1 0 8.26 0 a4.13 4.13 0 1 0 -8.26 0zM1398.37 412.5 a4.13 4.13 0 1 0 8.26 0 a4.13 4.13 0 1 0 -8.26 0z" fill="black"></path>
            <path d="M1695.37 643.5 a4.13 4.13 0 1 0 8.26 0 a4.13 4.13 0 1 0 -8.26 0zM1497.37 412.5 a4.13 4.13 0 1 0 8.26 0 a4.13 4.13 0 1 0 -8.26 0z" fill="black"></path>
            <path d="M1497.37 313.5 a4.13 4.13 0 1 0 8.26 0 a4.13 4.13 0 1 0 -8.26 0zM1431.37 148.5 a4.13 4.13 0 1 0 8.26 0 a4.13 4.13 0 1 0 -8.26 0z" fill="black"></path>
            <path d="M507.37 709.5 a4.13 4.13 0 1 0 8.26 0 a4.13 4.13 0 1 0 -8.26 0zM342.37 709.5 a4.13 4.13 0 1 0 8.26 0 a4.13 4.13 0 1 0 -8.26 0z" fill="black"></path>
            <path d="M474.37 412.5 a4.13 4.13 0 1 0 8.26 0 a4.13 4.13 0 1 0 -8.26 0zM276.37 280.5 a4.13 4.13 0 1 0 8.26 0 a4.13 4.13 0 1 0 -8.26 0z" fill="black"></path>
            <path d="M45.37 82.5 a4.13 4.13 0 1 0 8.26 0 a4.13 4.13 0 1 0 -8.26 0zM45.37 16.5 a4.13 4.13 0 1 0 8.26 0 a4.13 4.13 0 1 0 -8.26 0z" fill="black"></path>
            <path d="M507.37 379.5 a4.13 4.13 0 1 0 8.26 0 a4.13 4.13 0 1 0 -8.26 0zM606.37 478.5 a4.13 4.13 0 1 0 8.26 0 a4.13 4.13 0 1 0 -8.26 0z" fill="black"></path>
            <path d="M1266.37 709.5 a4.13 4.13 0 1 0 8.26 0 a4.13 4.13 0 1 0 -8.26 0zM1200.37 643.5 a4.13 4.13 0 1 0 8.26 0 a4.13 4.13 0 1 0 -8.26 0z" fill="black"></path>
            <path d="M1497.37 346.5 a4.13 4.13 0 1 0 8.26 0 a4.13 4.13 0 1 0 -8.26 0zM1431.37 181.5 a4.13 4.13 0 1 0 8.26 0 a4.13 4.13 0 1 0 -8.26 0z" fill="black"></path>
            <path d="M1629.37 148.5 a4.13 4.13 0 1 0 8.26 0 a4.13 4.13 0 1 0 -8.26 0zM1497.37 115.5 a4.13 4.13 0 1 0 8.26 0 a4.13 4.13 0 1 0 -8.26 0z" fill="black"></path>
            <path d="M1035.37 577.5 a4.13 4.13 0 1 0 8.26 0 a4.13 4.13 0 1 0 -8.26 0zM1134.37 577.5 a4.13 4.13 0 1 0 8.26 0 a4.13 4.13 0 1 0 -8.26 0z" fill="black"></path>
            <path d="M903.37 280.5 a4.13 4.13 0 1 0 8.26 0 a4.13 4.13 0 1 0 -8.26 0zM804.37 148.5 a4.13 4.13 0 1 0 8.26 0 a4.13 4.13 0 1 0 -8.26 0z" fill="black"></path>
            <path d="M573.37 709.5 a4.13 4.13 0 1 0 8.26 0 a4.13 4.13 0 1 0 -8.26 0zM474.37 643.5 a4.13 4.13 0 1 0 8.26 0 a4.13 4.13 0 1 0 -8.26 0z" fill="black"></path>
            <path d="M243.37 445.5 a4.13 4.13 0 1 0 8.26 0 a4.13 4.13 0 1 0 -8.26 0zM375.37 577.5 a4.13 4.13 0 1 0 8.26 0 a4.13 4.13 0 1 0 -8.26 0z" fill="black"></path>
            <path d="M45.37 709.5 a4.13 4.13 0 1 0 8.26 0 a4.13 4.13 0 1 0 -8.26 0zM210.37 676.5 a4.13 4.13 0 1 0 8.26 0 a4.13 4.13 0 1 0 -8.26 0z" fill="black"></path>
            <path d="M144.37 445.5 a4.13 4.13 0 1 0 8.26 0 a4.13 4.13 0 1 0 -8.26 0zM309.37 676.5 a4.13 4.13 0 1 0 8.26 0 a4.13 4.13 0 1 0 -8.26 0z" fill="black"></path>
            <path d="M1530.37 643.5 a4.13 4.13 0 1 0 8.26 0 a4.13 4.13 0 1 0 -8.26 0zM1695.37 511.5 a4.13 4.13 0 1 0 8.26 0 a4.13 4.13 0 1 0 -8.26 0z" fill="black"></path>
            <path d="M1893.37 16.5 a4.13 4.13 0 1 0 8.26 0 a4.13 4.13 0 1 0 -8.26 0zM1530.37 82.5 a4.13 4.13 0 1 0 8.26 0 a4.13 4.13 0 1 0 -8.26 0z" fill="black"></path>
            <path d="M1398.37 16.5 a4.13 4.13 0 1 0 8.26 0 a4.13 4.13 0 1 0 -8.26 0zM1167.37 214.5 a4.13 4.13 0 1 0 8.26 0 a4.13 4.13 0 1 0 -8.26 0z" fill="black"></path>
            <path d="M903.37 346.5 a4.13 4.13 0 1 0 8.26 0 a4.13 4.13 0 1 0 -8.26 0zM936.37 280.5 a4.13 4.13 0 1 0 8.26 0 a4.13 4.13 0 1 0 -8.26 0z" fill="black"></path>
            <path d="M969.37 214.5 a4.13 4.13 0 1 0 8.26 0 a4.13 4.13 0 1 0 -8.26 0zM870.37 49.5 a4.13 4.13 0 1 0 8.26 0 a4.13 4.13 0 1 0 -8.26 0z" fill="black"></path>
            <path d="M1200.37 16.5 a4.13 4.13 0 1 0 8.26 0 a4.13 4.13 0 1 0 -8.26 0zM1332.37 49.5 a4.13 4.13 0 1 0 8.26 0 a4.13 4.13 0 1 0 -8.26 0z" fill="black"></path>
            <path d="M1497.37 511.5 a4.13 4.13 0 1 0 8.26 0 a4.13 4.13 0 1 0 -8.26 0zM1332.37 610.5 a4.13 4.13 0 1 0 8.26 0 a4.13 4.13 0 1 0 -8.26 0z" fill="black"></path>
            <path d="M1266.37 346.5 a4.13 4.13 0 1 0 8.26 0 a4.13 4.13 0 1 0 -8.26 0zM1332.37 247.5 a4.13 4.13 0 1 0 8.26 0 a4.13 4.13 0 1 0 -8.26 0z" fill="black"></path>
            <path d="M672.37 544.5 a4.13 4.13 0 1 0 8.26 0 a4.13 4.13 0 1 0 -8.26 0zM804.37 511.5 a4.13 4.13 0 1 0 8.26 0 a4.13 4.13 0 1 0 -8.26 0z" fill="black"></path>
            <path d="M210.37 181.5 a4.13 4.13 0 1 0 8.26 0 a4.13 4.13 0 1 0 -8.26 0zM78.37 313.5 a4.13 4.13 0 1 0 8.26 0 a4.13 4.13 0 1 0 -8.26 0z" fill="black"></path>
            <path d="M573.37 478.5 a4.13 4.13 0 1 0 8.26 0 a4.13 4.13 0 1 0 -8.26 0zM408.37 511.5 a4.13 4.13 0 1 0 8.26 0 a4.13 4.13 0 1 0 -8.26 0z" fill="black"></path>
            <path d="M243.37 577.5 a4.13 4.13 0 1 0 8.26 0 a4.13 4.13 0 1 0 -8.26 0zM177.37 313.5 a4.13 4.13 0 1 0 8.26 0 a4.13 4.13 0 1 0 -8.26 0z" fill="black"></path>
            <path d="M771.37 346.5 a4.13 4.13 0 1 0 8.26 0 a4.13 4.13 0 1 0 -8.26 0zM804.37 445.5 a4.13 4.13 0 1 0 8.26 0 a4.13 4.13 0 1 0 -8.26 0z" fill="black"></path>
            <path d="M1200.37 346.5 a4.13 4.13 0 1 0 8.26 0 a4.13 4.13 0 1 0 -8.26 0zM1299.37 544.5 a4.13 4.13 0 1 0 8.26 0 a4.13 4.13 0 1 0 -8.26 0z" fill="black"></path>
            <path d="M1365.37 445.5 a4.13 4.13 0 1 0 8.26 0 a4.13 4.13 0 1 0 -8.26 0zM1332.37 511.5 a4.13 4.13 0 1 0 8.26 0 a4.13 4.13 0 1 0 -8.26 0z" fill="black"></path>
            <path d="M408.37 82.5 a4.13 4.13 0 1 0 8.26 0 a4.13 4.13 0 1 0 -8.26 0zM540.37 49.5 a4.13 4.13 0 1 0 8.26 0 a4.13 4.13 0 1 0 -8.26 0z" fill="black"></path>
            <path d="M738.37 577.5 a4.13 4.13 0 1 0 8.26 0 a4.13 4.13 0 1 0 -8.26 0zM738.37 511.5 a4.13 4.13 0 1 0 8.26 0 a4.13 4.13 0 1 0 -8.26 0z" fill="black"></path>
            <path d="M276.37 610.5 a4.13 4.13 0 1 0 8.26 0 a4.13 4.13 0 1 0 -8.26 0zM342.37 577.5 a4.13 4.13 0 1 0 8.26 0 a4.13 4.13 0 1 0 -8.26 0z" fill="black"></path>
            <path d="M78.37 115.5 a4.13 4.13 0 1 0 8.26 0 a4.13 4.13 0 1 0 -8.26 0zM12.37 115.5 a4.13 4.13 0 1 0 8.26 0 a4.13 4.13 0 1 0 -8.26 0z" fill="black"></path>
            <path d="M12.37 214.5 a4.13 4.13 0 1 0 8.26 0 a4.13 4.13 0 1 0 -8.26 0zM78.37 148.5 a4.13 4.13 0 1 0 8.26 0 a4.13 4.13 0 1 0 -8.26 0z" fill="black"></path>
            <path d="M1728.37 577.5 a4.13 4.13 0 1 0 8.26 0 a4.13 4.13 0 1 0 -8.26 0zM1662.37 577.5 a4.13 4.13 0 1 0 8.26 0 a4.13 4.13 0 1 0 -8.26 0z" fill="black"></path>
            <path d="M1068.37 709.5 a4.13 4.13 0 1 0 8.26 0 a4.13 4.13 0 1 0 -8.26 0zM1101.37 610.5 a4.13 4.13 0 1 0 8.26 0 a4.13 4.13 0 1 0 -8.26 0z" fill="black"></path>
            <path d="M1134.37 16.5 a4.13 4.13 0 1 0 8.26 0 a4.13 4.13 0 1 0 -8.26 0zM1068.37 16.5 a4.13 4.13 0 1 0 8.26 0 a4.13 4.13 0 1 0 -8.26 0z" fill="black"></path>
            <path d="M540.37 511.5 a4.13 4.13 0 1 0 8.26 0 a4.13 4.13 0 1 0 -8.26 0zM474.37 511.5 a4.13 4.13 0 1 0 8.26 0 a4.13 4.13 0 1 0 -8.26 0z" fill="black"></path>
            <path d="M1794.37 709.5 a4.13 4.13 0 1 0 8.26 0 a4.13 4.13 0 1 0 -8.26 0zM1860.37 610.5 a4.13 4.13 0 1 0 8.26 0 a4.13 4.13 0 1 0 -8.26 0z" fill="black"></path>
            <path d="M540.37 346.5 a4.13 4.13 0 1 0 8.26 0 a4.13 4.13 0 1 0 -8.26 0zM375.37 280.5 a4.13 4.13 0 1 0 8.26 0 a4.13 4.13 0 1 0 -8.26 0z" fill="black"></path>
            <path d="M705.37 577.5 a4.13 4.13 0 1 0 8.26 0 a4.13 4.13 0 1 0 -8.26 0zM705.37 511.5 a4.13 4.13 0 1 0 8.26 0 a4.13 4.13 0 1 0 -8.26 0z" fill="black"></path>
            <path d="M540.37 379.5 a4.13 4.13 0 1 0 8.26 0 a4.13 4.13 0 1 0 -8.26 0zM606.37 379.5 a4.13 4.13 0 1 0 8.26 0 a4.13 4.13 0 1 0 -8.26 0z" fill="black"></path>
            <path d="M1596.37 247.5 a4.13 4.13 0 1 0 8.26 0 a4.13 4.13 0 1 0 -8.26 0zM1695.37 181.5 a4.13 4.13 0 1 0 8.26 0 a4.13 4.13 0 1 0 -8.26 0z" fill="black"></path>
            <path d="M1860.37 379.5 a4.13 4.13 0 1 0 8.26 0 a4.13 4.13 0 1 0 -8.26 0zM1761.37 478.5 a4.13 4.13 0 1 0 8.26 0 a4.13 4.13 0 1 0 -8.26 0z" fill="black"></path>
            <path d="M210.37 478.5 a4.13 4.13 0 1 0 8.26 0 a4.13 4.13 0 1 0 -8.26 0zM276.37 577.5 a4.13 4.13 0 1 0 8.26 0 a4.13 4.13 0 1 0 -8.26 0z" fill="black"></path>
            <path d="M1629.37 280.5 a4.13 4.13 0 1 0 8.26 0 a4.13 4.13 0 1 0 -8.26 0zM1530.37 346.5 a4.13 4.13 0 1 0 8.26 0 a4.13 4.13 0 1 0 -8.26 0z" fill="black"></path>
            <path d="M78.37 82.5 a4.13 4.13 0 1 0 8.26 0 a4.13 4.13 0 1 0 -8.26 0zM78.37 16.5 a4.13 4.13 0 1 0 8.26 0 a4.13 4.13 0 1 0 -8.26 0z" fill="black"></path>
            <path d="M78.37 412.5 a4.13 4.13 0 1 0 8.26 0 a4.13 4.13 0 1 0 -8.26 0zM111.37 478.5 a4.13 4.13 0 1 0 8.26 0 a4.13 4.13 0 1 0 -8.26 0z" fill="black"></path>
            <path d="M540.37 478.5 a4.13 4.13 0 1 0 8.26 0 a4.13 4.13 0 1 0 -8.26 0zM507.37 412.5 a4.13 4.13 0 1 0 8.26 0 a4.13 4.13 0 1 0 -8.26 0z" fill="black"></path>
            <path d="M705.37 148.5 a4.13 4.13 0 1 0 8.26 0 a4.13 4.13 0 1 0 -8.26 0zM540.37 115.5 a4.13 4.13 0 1 0 8.26 0 a4.13 4.13 0 1 0 -8.26 0z" fill="black"></path>
            <path d="M1266.37 379.5 a4.13 4.13 0 1 0 8.26 0 a4.13 4.13 0 1 0 -8.26 0zM1332.37 478.5 a4.13 4.13 0 1 0 8.26 0 a4.13 4.13 0 1 0 -8.26 0z" fill="black"></path>
            <path d="M1332.37 379.5 a4.13 4.13 0 1 0 8.26 0 a4.13 4.13 0 1 0 -8.26 0zM1299.37 445.5 a4.13 4.13 0 1 0 8.26 0 a4.13 4.13 0 1 0 -8.26 0z" fill="black"></path>
            <path d="M12.37 16.5 a4.13 4.13 0 1 0 8.26 0 a4.13 4.13 0 1 0 -8.26 0zM12.37 82.5 a4.13 4.13 0 1 0 8.26 0 a4.13 4.13 0 1 0 -8.26 0z" fill="black"></path>
            <path d="M1134.37 181.5 a4.13 4.13 0 1 0 8.26 0 a4.13 4.13 0 1 0 -8.26 0zM1266.37 49.5 a4.13 4.13 0 1 0 8.26 0 a4.13 4.13 0 1 0 -8.26 0z" fill="black"></path>
            <path d="M870.37 280.5 a4.13 4.13 0 1 0 8.26 0 a4.13 4.13 0 1 0 -8.26 0zM804.37 181.5 a4.13 4.13 0 1 0 8.26 0 a4.13 4.13 0 1 0 -8.26 0z" fill="black"></path>
            <path d="M78.37 709.5 a4.13 4.13 0 1 0 8.26 0 a4.13 4.13 0 1 0 -8.26 0zM177.37 676.5 a4.13 4.13 0 1 0 8.26 0 a4.13 4.13 0 1 0 -8.26 0z" fill="black"></path>
            <path d="M1233.37 49.5 a4.13 4.13 0 1 0 8.26 0 a4.13 4.13 0 1 0 -8.26 0zM1167.37 115.5 a4.13 4.13 0 1 0 8.26 0 a4.13 4.13 0 1 0 -8.26 0z" fill="black"></path>
            <path d="M1167.37 82.5 a4.13 4.13 0 1 0 8.26 0 a4.13 4.13 0 1 0 -8.26 0zM1167.37 16.5 a4.13 4.13 0 1 0 8.26 0 a4.13 4.13 0 1 0 -8.26 0z" fill="black"></path>
            <path d="M606.37 115.5 a4.13 4.13 0 1 0 8.26 0 a4.13 4.13 0 1 0 -8.26 0zM672.37 148.5 a4.13 4.13 0 1 0 8.26 0 a4.13 4.13 0 1 0 -8.26 0z" fill="black"></path>
            <path d="M705.37 610.5 a4.13 4.13 0 1 0 8.26 0 a4.13 4.13 0 1 0 -8.26 0zM639.37 643.5 a4.13 4.13 0 1 0 8.26 0 a4.13 4.13 0 1 0 -8.26 0z" fill="black"></path>
            <path d="M1134.37 148.5 a4.13 4.13 0 1 0 8.26 0 a4.13 4.13 0 1 0 -8.26 0zM1035.37 247.5 a4.13 4.13 0 1 0 8.26 0 a4.13 4.13 0 1 0 -8.26 0z" fill="black"></path>
            <path d="M771.37 412.5 a4.13 4.13 0 1 0 8.26 0 a4.13 4.13 0 1 0 -8.26 0zM705.37 313.5 a4.13 4.13 0 1 0 8.26 0 a4.13 4.13 0 1 0 -8.26 0z" fill="black"></path>
            <path d="M903.37 82.5 a4.13 4.13 0 1 0 8.26 0 a4.13 4.13 0 1 0 -8.26 0zM936.37 148.5 a4.13 4.13 0 1 0 8.26 0 a4.13 4.13 0 1 0 -8.26 0z" fill="black"></path>
            <path d="M705.37 214.5 a4.13 4.13 0 1 0 8.26 0 a4.13 4.13 0 1 0 -8.26 0zM672.37 82.5 a4.13 4.13 0 1 0 8.26 0 a4.13 4.13 0 1 0 -8.26 0z" fill="black"></path>
            <path d="M1629.37 709.5 a4.13 4.13 0 1 0 8.26 0 a4.13 4.13 0 1 0 -8.26 0zM1563.37 709.5 a4.13 4.13 0 1 0 8.26 0 a4.13 4.13 0 1 0 -8.26 0z" fill="black"></path>
            <path d="M309.37 49.5 a4.13 4.13 0 1 0 8.26 0 a4.13 4.13 0 1 0 -8.26 0zM375.37 115.5 a4.13 4.13 0 1 0 8.26 0 a4.13 4.13 0 1 0 -8.26 0z" fill="black"></path>
            <path d="M78.37 610.5 a4.13 4.13 0 1 0 8.26 0 a4.13 4.13 0 1 0 -8.26 0zM12.37 676.5 a4.13 4.13 0 1 0 8.26 0 a4.13 4.13 0 1 0 -8.26 0z" fill="black"></path>
            <path d="M1728.37 16.5 a4.13 4.13 0 1 0 8.26 0 a4.13 4.13 0 1 0 -8.26 0zM1662.37 16.5 a4.13 4.13 0 1 0 8.26 0 a4.13 4.13 0 1 0 -8.26 0z" fill="black"></path>
            <path d="M837.37 379.5 a4.13 4.13 0 1 0 8.26 0 a4.13 4.13 0 1 0 -8.26 0zM903.37 313.5 a4.13 4.13 0 1 0 8.26 0 a4.13 4.13 0 1 0 -8.26 0z" fill="black"></path>
            <path d="M1827.37 643.5 a4.13 4.13 0 1 0 8.26 0 a4.13 4.13 0 1 0 -8.26 0zM1827.37 709.5 a4.13 4.13 0 1 0 8.26 0 a4.13 4.13 0 1 0 -8.26 0z" fill="black"></path>
            <path d="M1695.37 478.5 a4.13 4.13 0 1 0 8.26 0 a4.13 4.13 0 1 0 -8.26 0zM1629.37 478.5 a4.13 4.13 0 1 0 8.26 0 a4.13 4.13 0 1 0 -8.26 0z" fill="black"></path>
            <path d="M342.37 49.5 a4.13 4.13 0 1 0 8.26 0 a4.13 4.13 0 1 0 -8.26 0zM474.37 49.5 a4.13 4.13 0 1 0 8.26 0 a4.13 4.13 0 1 0 -8.26 0z" fill="black"></path>
            <path d="M1464.37 478.5 a4.13 4.13 0 1 0 8.26 0 a4.13 4.13 0 1 0 -8.26 0zM1530.37 412.5 a4.13 4.13 0 1 0 8.26 0 a4.13 4.13 0 1 0 -8.26 0z" fill="black"></path>
            <path d="M441.37 313.5 a4.13 4.13 0 1 0 8.26 0 a4.13 4.13 0 1 0 -8.26 0zM573.37 313.5 a4.13 4.13 0 1 0 8.26 0 a4.13 4.13 0 1 0 -8.26 0z" fill="black"></path>
        </mask>
    </defs>
</svg>