<svg xmlns="http://www.w3.org/2000/svg" version="1.1" xmlns:xlink="http://www.w3.org/1999/xlink" xmlns:svgjs="http://svgjs.dev/svgjs" width="1920" height="700" preserveAspectRatio="none" viewBox="0 0 1920 700">
    <g mask="url(&quot;#SvgjsMask1050&quot;)" fill="none">
        <rect width="1920" height="700" x="0" y="0" fill="rgba(250, 250, 250, 1)"></rect>
        <path d="M0 268.04L10 277.81L20 231.18L30 292.78L40 327.77L50 372.17L60 435.47L70 391.14L80 461.83L90 385.17L100 421.81L110 420.93L120 349.25L130 312.2L140 341.16L150 313.14L160 239.08L170 218.29L180 290.47L190 265.12L200 211.82L210 151.63L220 180.37L230 246.82L240 240.37L250 241.95L260 316.41L270 324.11L280 370.54L290 448.64L300 441.94L310 413.24L320 466.25L330 422.05L340 428.96L350 391.65L360 402.31L370 339.6L380 263.98L390 342.45L400 277.54L410 218.31L420 271.66L430 284.2L440 315.38L450 273.36L460 261.44L470 226.36L480 289.05L490 322.48L500 391.53L510 438.36L520 492L530 538.07L540 477.66L550 425.47L560 354.63L570 404.67L580 369.22L590 378.21L600 304.48L610 362.86L620 348.77L630 435.47L640 381.92L650 321.14L660 276.17L670 260.61L680 173.88L690 90.58L700 163.23L710 223.88L720 143.95L730 177.58L740 210.62L750 293.81L760 353.26L770 266.21L780 206.06L790 144.84L800 69.38L810 154.62L820 88.39L830 23.41L840 17.91L850 1.37L860 61L870 104.46L880 104.09L890 168.28L900 159.02L910 188.73L920 142.97L930 119.28L940 69.45L950 11.34L960 57.97L970 106.41L980 133.38L990 107.33L1000 39.68L1010 42.83L1020 30.02L1030 97.02L1040 182.73L1050 197.9L1060 132.7L1070 76.61L1080 132.68L1090 218.38L1100 181.56L1110 212.1L1120 187.02L1130 183.81L1140 260.76L1150 197.91L1160 272.94L1170 277.54L1180 244.22L1190 325.85L1200 297.91L1210 290.28L1220 227.25L1230 247.66L1240 209.41L1250 171.91L1260 259.05L1270 248.07L1280 292.4L1290 306.99L1300 278L1310 287.2L1320 214.81L1330 301L1340 371.77L1350 371.24L1360 423.55L1370 389.46L1380 392.19L1390 477.89L1400 394.1L1410 357.32L1420 273.81L1430 256.58L1440 343.13L1450 425.86L1460 498.08L1470 529.37L1480 484.27L1490 479.43L1500 425.22L1510 354.23L1520 340.05L1530 279.68L1540 232.58L1550 179.96L1560 243.21L1570 284.9L1580 287.72L1590 341.45L1600 371.3L1610 417.02L1620 444.68L1630 531.07L1640 473.46L1650 493.17L1660 415.37L1670 443.81L1680 390.01L1690 380.31L1700 301.64L1710 273.6L1720 260.04L1730 226.65L1740 240.88L1750 261.39L1760 322.35L1770 395L1780 404.85L1790 416.41L1800 487.82L1810 510.73L1820 465.1L1830 525.48L1840 445.16L1850 499.19L1860 548.47L1870 534.37L1880 475.44L1890 406.39L1900 443.82L1910 514.1L1920 598.84" stroke="rgba(39, 154, 50, 0.16)" stroke-width="2"></path>
        <path d="M0 268.04L10 277.81L20 231.18L30 292.78L40 327.77L50 372.17L60 435.47L70 391.14L80 461.83L90 385.17L100 421.81L110 420.93L120 349.25L130 312.2L140 341.16L150 313.14L160 239.08L170 218.29L180 290.47L190 265.12L200 211.82L210 151.63L220 180.37L230 246.82L240 240.37L250 241.95L260 316.41L270 324.11L280 370.54L290 448.64L300 441.94L310 413.24L320 466.25L330 422.05L340 428.96L350 391.65L360 402.31L370 339.6L380 263.98L390 342.45L400 277.54L410 218.31L420 271.66L430 284.2L440 315.38L450 273.36L460 261.44L470 226.36L480 289.05L490 322.48L500 391.53L510 438.36L520 492L530 538.07L540 477.66L550 425.47L560 354.63L570 404.67L580 369.22L590 378.21L600 304.48L610 362.86L620 348.77L630 435.47L640 381.92L650 321.14L660 276.17L670 260.61L680 173.88L690 90.58L700 163.23L710 223.88L720 143.95L730 177.58L740 210.62L750 293.81L760 353.26L770 266.21L780 206.06L790 144.84L800 69.38L810 154.62L820 88.39L830 23.41L840 17.91L850 1.37L860 61L870 104.46L880 104.09L890 168.28L900 159.02L910 188.73L920 142.97L930 119.28L940 69.45L950 11.34L960 57.97L970 106.41L980 133.38L990 107.33L1000 39.68L1010 42.83L1020 30.02L1030 97.02L1040 182.73L1050 197.9L1060 132.7L1070 76.61L1080 132.68L1090 218.38L1100 181.56L1110 212.1L1120 187.02L1130 183.81L1140 260.76L1150 197.91L1160 272.94L1170 277.54L1180 244.22L1190 325.85L1200 297.91L1210 290.28L1220 227.25L1230 247.66L1240 209.41L1250 171.91L1260 259.05L1270 248.07L1280 292.4L1290 306.99L1300 278L1310 287.2L1320 214.81L1330 301L1340 371.77L1350 371.24L1360 423.55L1370 389.46L1380 392.19L1390 477.89L1400 394.1L1410 357.32L1420 273.81L1430 256.58L1440 343.13L1450 425.86L1460 498.08L1470 529.37L1480 484.27L1490 479.43L1500 425.22L1510 354.23L1520 340.05L1530 279.68L1540 232.58L1550 179.96L1560 243.21L1570 284.9L1580 287.72L1590 341.45L1600 371.3L1610 417.02L1620 444.68L1630 531.07L1640 473.46L1650 493.17L1660 415.37L1670 443.81L1680 390.01L1690 380.31L1700 301.64L1710 273.6L1720 260.04L1730 226.65L1740 240.88L1750 261.39L1760 322.35L1770 395L1780 404.85L1790 416.41L1800 487.82L1810 510.73L1820 465.1L1830 525.48L1840 445.16L1850 499.19L1860 548.47L1870 534.37L1880 475.44L1890 406.39L1900 443.82L1910 514.1L1920 598.84L1920 700L0 700z" fill="url(&quot;#SvgjsLinearGradient1051&quot;)"></path>
    </g>
    <defs>
        <mask id="SvgjsMask1050">
            <rect width="1920" height="700" fill="#ffffff"></rect>
        </mask>
        <linearGradient x1="50%" y1="0%" x2="50%" y2="100%" id="SvgjsLinearGradient1051">
            <stop stop-opacity="0.65" stop-color="rgba(39, 154, 50, 0.16)" offset="0"></stop>
            <stop stop-opacity="0" stop-color="rgba(138, 225, 146, 0.16)" offset="0.8"></stop>
        </linearGradient>
    </defs>
</svg>