
<svg id="visual" viewBox="0 0 1900 500" width="1900" height="500" xmlns="http://www.w3.org/2000/svg" xmlns:xlink="http://www.w3.org/1999/xlink" version="1.1"><path d="M0 101L26.3 115.2C52.7 129.3 105.3 157.7 158.2 156C211 154.3 264 122.7 316.8 101.8C369.7 81 422.3 71 475 78.5C527.7 86 580.3 111 633.2 130.2C686 149.3 739 162.7 791.8 155.2C844.7 147.7 897.3 119.3 950 111.8C1002.7 104.3 1055.3 117.7 1108.2 128.5C1161 139.3 1214 147.7 1266.8 140.2C1319.7 132.7 1372.3 109.3 1425 96C1477.7 82.7 1530.3 79.3 1583.2 85.2C1636 91 1689 106 1741.8 114.3C1794.7 122.7 1847.3 124.3 1873.7 125.2L1900 126L1900 0L1873.7 0C1847.3 0 1794.7 0 1741.8 0C1689 0 1636 0 1583.2 0C1530.3 0 1477.7 0 1425 0C1372.3 0 1319.7 0 1266.8 0C1214 0 1161 0 1108.2 0C1055.3 0 1002.7 0 950 0C897.3 0 844.7 0 791.8 0C739 0 686 0 633.2 0C580.3 0 527.7 0 475 0C422.3 0 369.7 0 316.8 0C264 0 211 0 158.2 0C105.3 0 52.7 0 26.3 0L0 0Z" fill="#000e17"></path><path d="M0 141L26.3 156C52.7 171 105.3 201 158.2 200.2C211 199.3 264 167.7 316.8 142.7C369.7 117.7 422.3 99.3 475 105.2C527.7 111 580.3 141 633.2 161.8C686 182.7 739 194.3 791.8 185.2C844.7 176 897.3 146 950 141C1002.7 136 1055.3 156 1108.2 169.3C1161 182.7 1214 189.3 1266.8 176.8C1319.7 164.3 1372.3 132.7 1425 118.5C1477.7 104.3 1530.3 107.7 1583.2 117.7C1636 127.7 1689 144.3 1741.8 151.8C1794.7 159.3 1847.3 157.7 1873.7 156.8L1900 156L1900 124L1873.7 123.2C1847.3 122.3 1794.7 120.7 1741.8 112.3C1689 104 1636 89 1583.2 83.2C1530.3 77.3 1477.7 80.7 1425 94C1372.3 107.3 1319.7 130.7 1266.8 138.2C1214 145.7 1161 137.3 1108.2 126.5C1055.3 115.7 1002.7 102.3 950 109.8C897.3 117.3 844.7 145.7 791.8 153.2C739 160.7 686 147.3 633.2 128.2C580.3 109 527.7 84 475 76.5C422.3 69 369.7 79 316.8 99.8C264 120.7 211 152.3 158.2 154C105.3 155.7 52.7 127.3 26.3 113.2L0 99Z" fill="#0b2e43"></path><path d="M0 206L26.3 216.8C52.7 227.7 105.3 249.3 158.2 244.3C211 239.3 264 207.7 316.8 191.8C369.7 176 422.3 176 475 187.7C527.7 199.3 580.3 222.7 633.2 236.8C686 251 739 256 791.8 248.5C844.7 241 897.3 221 950 221C1002.7 221 1055.3 241 1108.2 248.5C1161 256 1214 251 1266.8 237.7C1319.7 224.3 1372.3 202.7 1425 196C1477.7 189.3 1530.3 197.7 1583.2 201.8C1636 206 1689 206 1741.8 206C1794.7 206 1847.3 206 1873.7 206L1900 206L1900 154L1873.7 154.8C1847.3 155.7 1794.7 157.3 1741.8 149.8C1689 142.3 1636 125.7 1583.2 115.7C1530.3 105.7 1477.7 102.3 1425 116.5C1372.3 130.7 1319.7 162.3 1266.8 174.8C1214 187.3 1161 180.7 1108.2 167.3C1055.3 154 1002.7 134 950 139C897.3 144 844.7 174 791.8 183.2C739 192.3 686 180.7 633.2 159.8C580.3 139 527.7 109 475 103.2C422.3 97.3 369.7 115.7 316.8 140.7C264 165.7 211 197.3 158.2 198.2C105.3 199 52.7 169 26.3 154L0 139Z" fill="#0c4f76"></path><path d="M0 256L26.3 266C52.7 276 105.3 296 158.2 290.2C211 284.3 264 252.7 316.8 236C369.7 219.3 422.3 217.7 475 229.3C527.7 241 580.3 266 633.2 281.8C686 297.7 739 304.3 791.8 292.7C844.7 281 897.3 251 950 249.3C1002.7 247.7 1055.3 274.3 1108.2 286C1161 297.7 1214 294.3 1266.8 281C1319.7 267.7 1372.3 244.3 1425 232.7C1477.7 221 1530.3 221 1583.2 222.7C1636 224.3 1689 227.7 1741.8 231C1794.7 234.3 1847.3 237.7 1873.7 239.3L1900 241L1900 204L1873.7 204C1847.3 204 1794.7 204 1741.8 204C1689 204 1636 204 1583.2 199.8C1530.3 195.7 1477.7 187.3 1425 194C1372.3 200.7 1319.7 222.3 1266.8 235.7C1214 249 1161 254 1108.2 246.5C1055.3 239 1002.7 219 950 219C897.3 219 844.7 239 791.8 246.5C739 254 686 249 633.2 234.8C580.3 220.7 527.7 197.3 475 185.7C422.3 174 369.7 174 316.8 189.8C264 205.7 211 237.3 158.2 242.3C105.3 247.3 52.7 225.7 26.3 214.8L0 204Z" fill="#126ba2"></path><path d="M0 346L26.3 356.8C52.7 367.7 105.3 389.3 158.2 388.5C211 387.7 264 364.3 316.8 351C369.7 337.7 422.3 334.3 475 340.2C527.7 346 580.3 361 633.2 366.8C686 372.7 739 369.3 791.8 363.5C844.7 357.7 897.3 349.3 950 346.8C1002.7 344.3 1055.3 347.7 1108.2 360.2C1161 372.7 1214 394.3 1266.8 397.7C1319.7 401 1372.3 386 1425 378.5C1477.7 371 1530.3 371 1583.2 363.5C1636 356 1689 341 1741.8 336C1794.7 331 1847.3 336 1873.7 338.5L1900 341L1900 239L1873.7 237.3C1847.3 235.7 1794.7 232.3 1741.8 229C1689 225.7 1636 222.3 1583.2 220.7C1530.3 219 1477.7 219 1425 230.7C1372.3 242.3 1319.7 265.7 1266.8 279C1214 292.3 1161 295.7 1108.2 284C1055.3 272.3 1002.7 245.7 950 247.3C897.3 249 844.7 279 791.8 290.7C739 302.3 686 295.7 633.2 279.8C580.3 264 527.7 239 475 227.3C422.3 215.7 369.7 217.3 316.8 234C264 250.7 211 282.3 158.2 288.2C105.3 294 52.7 274 26.3 264L0 254Z" fill="#126ba2"></path><path d="M0 401L26.3 406.8C52.7 412.7 105.3 424.3 158.2 422.7C211 421 264 406 316.8 398.5C369.7 391 422.3 391 475 392.7C527.7 394.3 580.3 397.7 633.2 396.8C686 396 739 391 791.8 386C844.7 381 897.3 376 950 379.3C1002.7 382.7 1055.3 394.3 1108.2 405.2C1161 416 1214 426 1266.8 426C1319.7 426 1372.3 416 1425 408.5C1477.7 401 1530.3 396 1583.2 391C1636 386 1689 381 1741.8 382.7C1794.7 384.3 1847.3 392.7 1873.7 396.8L1900 401L1900 339L1873.7 336.5C1847.3 334 1794.7 329 1741.8 334C1689 339 1636 354 1583.2 361.5C1530.3 369 1477.7 369 1425 376.5C1372.3 384 1319.7 399 1266.8 395.7C1214 392.3 1161 370.7 1108.2 358.2C1055.3 345.7 1002.7 342.3 950 344.8C897.3 347.3 844.7 355.7 791.8 361.5C739 367.3 686 370.7 633.2 364.8C580.3 359 527.7 344 475 338.2C422.3 332.3 369.7 335.7 316.8 349C264 362.3 211 385.7 158.2 386.5C105.3 387.3 52.7 365.7 26.3 354.8L0 344Z" fill="#0c4f76"></path><path d="M0 441L26.3 446C52.7 451 105.3 461 158.2 459.3C211 457.7 264 444.3 316.8 436.8C369.7 429.3 422.3 427.7 475 431.8C527.7 436 580.3 446 633.2 447.7C686 449.3 739 442.7 791.8 437.7C844.7 432.7 897.3 429.3 950 433.5C1002.7 437.7 1055.3 449.3 1108.2 454.3C1161 459.3 1214 457.7 1266.8 455.2C1319.7 452.7 1372.3 449.3 1425 448.5C1477.7 447.7 1530.3 449.3 1583.2 447.7C1636 446 1689 441 1741.8 442.7C1794.7 444.3 1847.3 452.7 1873.7 456.8L1900 461L1900 399L1873.7 394.8C1847.3 390.7 1794.7 382.3 1741.8 380.7C1689 379 1636 384 1583.2 389C1530.3 394 1477.7 399 1425 406.5C1372.3 414 1319.7 424 1266.8 424C1214 424 1161 414 1108.2 403.2C1055.3 392.3 1002.7 380.7 950 377.3C897.3 374 844.7 379 791.8 384C739 389 686 394 633.2 394.8C580.3 395.7 527.7 392.3 475 390.7C422.3 389 369.7 389 316.8 396.5C264 404 211 419 158.2 420.7C105.3 422.3 52.7 410.7 26.3 404.8L0 399Z" fill="#0b2e43"></path><path d="M0 501L26.3 501C52.7 501 105.3 501 158.2 501C211 501 264 501 316.8 501C369.7 501 422.3 501 475 501C527.7 501 580.3 501 633.2 501C686 501 739 501 791.8 501C844.7 501 897.3 501 950 501C1002.7 501 1055.3 501 1108.2 501C1161 501 1214 501 1266.8 501C1319.7 501 1372.3 501 1425 501C1477.7 501 1530.3 501 1583.2 501C1636 501 1689 501 1741.8 501C1794.7 501 1847.3 501 1873.7 501L1900 501L1900 459L1873.7 454.8C1847.3 450.7 1794.7 442.3 1741.8 440.7C1689 439 1636 444 1583.2 445.7C1530.3 447.3 1477.7 445.7 1425 446.5C1372.3 447.3 1319.7 450.7 1266.8 453.2C1214 455.7 1161 457.3 1108.2 452.3C1055.3 447.3 1002.7 435.7 950 431.5C897.3 427.3 844.7 430.7 791.8 435.7C739 440.7 686 447.3 633.2 445.7C580.3 444 527.7 434 475 429.8C422.3 425.7 369.7 427.3 316.8 434.8C264 442.3 211 455.7 158.2 457.3C105.3 459 52.7 449 26.3 444L0 439Z" fill="#000e17"></path></svg>