<svg class="border shadow-md" viewBox="0 0 1502.16 844.965" style="width: 1502.16px; height: 844.965px;" xmlns="http://www.w3.org/2000/svg" preserveAspectRatio="none"><rect class="bg" id="bg" x="0" y="0" width="1502.16" height="844.965" fill="#b3b3b3"></rect><g transform="rotate(0 751.08 422.4825)"><path d="M -851.08 -54.50 S -435.54 -96.74
            0.00 -54.50 125.08 -96.74
            851.08 -54.50 987.16 -96.74
            1702.16 -54.50 2117.70 -96.74
            2553.24 -54.50 h 110 V 1044.9650000000001 H -851.08 Z" fill="#6F9F66" id="-1"></path><path d="M -851.08 30.00 S -635.00 -22.00
            0.00 30.00 165.08 -12.25
            851.08 30.00 1129.16 -13.00
            1702.16 30.00 2117.70 -12.25
            2553.24 30.00 h 110 V 1044.9650000000001 H -851.08 Z" fill="#659460" id="0"></path><path id="1" d="M -851.08 114.50 S -435.54 46.50
            0.00 114.50 348.08 72.25
            851.08 114.50 1159.16 57.50
            1702.16 114.50 2117.70 72.25
            2553.24 114.50 h 110 V 1044.9650000000001 H -851.08 Z" fill="#5b895a"></path><path id="2" d="M -851.08 198.99 S -435.54 156.74
            0.00 198.99 415.54 156.74
            851.08 198.99 1098.16 156.74
            1702.16 198.99 2117.70 118.99
            2553.24 198.99 h 110 V 1044.9650000000001 H -851.08 Z" fill="#517e54"></path><path id="3" d="M -851.08 283.49 S -846.00 241.24
            0.00 283.49 415.54 205.49
            851.08 283.49 1266.62 223.49
            1702.16 283.49 2117.70 223.49
            2553.24 283.49 h 110 V 1044.9650000000001 H -851.08 Z" fill="#47734e"></path><path id="4" d="M -851.08 367.99 S -598.00 325.74
            0.00 367.99 415.54 287.99
            851.08 367.99 1148.16 316.99
            1702.16 367.99 1907.24 325.74
            2553.24 367.99 h 110 V 1044.9650000000001 H -851.08 Z" fill="#3d6848"></path><path id="5" d="M -851.08 452.48 S -632.00 410.23
            0.00 452.48 41.08 410.23
            851.08 452.48 1266.62 410.23
            1702.16 452.48 2117.70 410.23
            2553.24 452.48 h 110 V 1044.9650000000001 H -851.08 Z" fill="#335d42"></path><path id="6" d="M -851.08 536.98 S -435.54 494.73
            0.00 536.98 415.54 480.98
            851.08 536.98 1266.62 494.73
            1702.16 536.98 2117.70 490.98
            2553.24 536.98 h 110 V 1044.9650000000001 H -851.08 Z" fill="#29523c"></path><path id="7" d="M -851.08 621.48 S -435.54 540.48
            0.00 621.48 415.54 567.48
            851.08 621.48 1167.16 559.48
            1702.16 621.48 1944.24 579.23
            2553.24 621.48 h 110 V 1044.9650000000001 H -851.08 Z" fill="#1f4736"></path><path id="8" d="M -851.08 705.97 S -435.54 663.72
            0.00 705.97 28.08 628.97
            851.08 705.97 1266.62 663.72
            1702.16 705.97 1825.24 663.72
            2553.24 705.97 h 110 V 1044.9650000000001 H -851.08 Z" fill="#153c30"></path><path id="9" d="M -851.08 790.47 S -435.54 748.22
            0.00 790.47 194.08 748.22
            851.08 790.47 927.16 729.47
            1702.16 790.47 2117.70 741.47
            2553.24 790.47 h 110 V 1044.9650000000001 H -851.08 Z" fill="#0b312a"></path></g></svg>