
<svg id="visual" viewBox="0 0 960 540" width="960" height="540" xmlns="http://www.w3.org/2000/svg" xmlns:xlink="http://www.w3.org/1999/xlink" version="1.1"><path d="M0 163L14.5 171.2C29 179.3 58 195.7 87.2 208.3C116.3 221 145.7 230 174.8 230C204 230 233 221 262 201.2C291 181.3 320 150.7 349 136.2C378 121.7 407 123.3 436.2 119.7C465.3 116 494.7 107 523.8 123.2C553 139.3 582 180.7 611 184.3C640 188 669 154 698 153.2C727 152.3 756 184.7 785.2 196.3C814.3 208 843.7 199 872.8 200.8C902 202.7 931 215.3 945.5 221.7L960 228L960 0L945.5 0C931 0 902 0 872.8 0C843.7 0 814.3 0 785.2 0C756 0 727 0 698 0C669 0 640 0 611 0C582 0 553 0 523.8 0C494.7 0 465.3 0 436.2 0C407 0 378 0 349 0C320 0 291 0 262 0C233 0 204 0 174.8 0C145.7 0 116.3 0 87.2 0C58 0 29 0 14.5 0L0 0Z" fill="#000e17"></path><path d="M0 233L14.5 240.2C29 247.3 58 261.7 87.2 283.3C116.3 305 145.7 334 174.8 340.3C204 346.7 233 330.3 262 312.3C291 294.3 320 274.7 349 262.2C378 249.7 407 244.3 436.2 230.8C465.3 217.3 494.7 195.7 523.8 207.3C553 219 582 264 611 275.7C640 287.3 669 265.7 698 268.3C727 271 756 298 785.2 306.2C814.3 314.3 843.7 303.7 872.8 298.3C902 293 931 293 945.5 293L960 293L960 226L945.5 219.7C931 213.3 902 200.7 872.8 198.8C843.7 197 814.3 206 785.2 194.3C756 182.7 727 150.3 698 151.2C669 152 640 186 611 182.3C582 178.7 553 137.3 523.8 121.2C494.7 105 465.3 114 436.2 117.7C407 121.3 378 119.7 349 134.2C320 148.7 291 179.3 262 199.2C233 219 204 228 174.8 228C145.7 228 116.3 219 87.2 206.3C58 193.7 29 177.3 14.5 169.2L0 161Z" fill="#051d2b"></path><path d="M0 325L14.5 335.8C29 346.7 58 368.3 87.2 382.7C116.3 397 145.7 404 174.8 403C204 402 233 393 262 386.8C291 380.7 320 377.3 349 363.8C378 350.3 407 326.7 436.2 307.7C465.3 288.7 494.7 274.3 523.8 286.2C553 298 582 336 611 346.8C640 357.7 669 341.3 698 343C727 344.7 756 364.3 785.2 371.5C814.3 378.7 843.7 373.3 872.8 374.3C902 375.3 931 382.7 945.5 386.3L960 390L960 291L945.5 291C931 291 902 291 872.8 296.3C843.7 301.7 814.3 312.3 785.2 304.2C756 296 727 269 698 266.3C669 263.7 640 285.3 611 273.7C582 262 553 217 523.8 205.3C494.7 193.7 465.3 215.3 436.2 228.8C407 242.3 378 247.7 349 260.2C320 272.7 291 292.3 262 310.3C233 328.3 204 344.7 174.8 338.3C145.7 332 116.3 303 87.2 281.3C58 259.7 29 245.3 14.5 238.2L0 231Z" fill="#003f5e"></path><path d="M0 401L14.5 407.2C29 413.3 58 425.7 87.2 433.7C116.3 441.7 145.7 445.3 174.8 444.5C204 443.7 233 438.3 262 433C291 427.7 320 422.3 349 409.7C378 397 407 377 436.2 365.3C465.3 353.7 494.7 350.3 523.8 366.7C553 383 582 419 611 423.5C640 428 669 401 698 398.2C727 395.3 756 416.7 785.2 427.3C814.3 438 843.7 438 872.8 438C902 438 931 438 945.5 438L960 438L960 388L945.5 384.3C931 380.7 902 373.3 872.8 372.3C843.7 371.3 814.3 376.7 785.2 369.5C756 362.3 727 342.7 698 341C669 339.3 640 355.7 611 344.8C582 334 553 296 523.8 284.2C494.7 272.3 465.3 286.7 436.2 305.7C407 324.7 378 348.3 349 361.8C320 375.3 291 378.7 262 384.8C233 391 204 400 174.8 401C145.7 402 116.3 395 87.2 380.7C58 366.3 29 344.7 14.5 333.8L0 323Z" fill="#051d2b"></path><path d="M0 541L14.5 541C29 541 58 541 87.2 541C116.3 541 145.7 541 174.8 541C204 541 233 541 262 541C291 541 320 541 349 541C378 541 407 541 436.2 541C465.3 541 494.7 541 523.8 541C553 541 582 541 611 541C640 541 669 541 698 541C727 541 756 541 785.2 541C814.3 541 843.7 541 872.8 541C902 541 931 541 945.5 541L960 541L960 436L945.5 436C931 436 902 436 872.8 436C843.7 436 814.3 436 785.2 425.3C756 414.7 727 393.3 698 396.2C669 399 640 426 611 421.5C582 417 553 381 523.8 364.7C494.7 348.3 465.3 351.7 436.2 363.3C407 375 378 395 349 407.7C320 420.3 291 425.7 262 431C233 436.3 204 441.7 174.8 442.5C145.7 443.3 116.3 439.7 87.2 431.7C58 423.7 29 411.3 14.5 405.2L0 399Z" fill="#001926"></path></svg>