
<svg id="visual" viewBox="0 0 1920 800" width="1920" height="800" xmlns="http://www.w3.org/2000/svg" xmlns:xlink="http://www.w3.org/1999/xlink" version="1.1"><path d="M0 57L17.8 66.3C35.7 75.7 71.3 94.3 106.8 95.7C142.3 97 177.7 81 213.2 78.3C248.7 75.7 284.3 86.3 320 87.7C355.7 89 391.3 81 426.8 83.7C462.3 86.3 497.7 99.7 533.2 93C568.7 86.3 604.3 59.7 640 61C675.7 62.3 711.3 91.7 746.8 91.7C782.3 91.7 817.7 62.3 853.2 46.3C888.7 30.3 924.3 27.7 960 42.3C995.7 57 1031.3 89 1066.8 93C1102.3 97 1137.7 73 1173.2 69C1208.7 65 1244.3 81 1280 77C1315.7 73 1351.3 49 1386.8 50.3C1422.3 51.7 1457.7 78.3 1493.2 79.7C1528.7 81 1564.3 57 1600 47.7C1635.7 38.3 1671.3 43.7 1706.8 50.3C1742.3 57 1777.7 65 1813.2 70.3C1848.7 75.7 1884.3 78.3 1902.2 79.7L1920 81L1920 0L1902.2 0C1884.3 0 1848.7 0 1813.2 0C1777.7 0 1742.3 0 1706.8 0C1671.3 0 1635.7 0 1600 0C1564.3 0 1528.7 0 1493.2 0C1457.7 0 1422.3 0 1386.8 0C1351.3 0 1315.7 0 1280 0C1244.3 0 1208.7 0 1173.2 0C1137.7 0 1102.3 0 1066.8 0C1031.3 0 995.7 0 960 0C924.3 0 888.7 0 853.2 0C817.7 0 782.3 0 746.8 0C711.3 0 675.7 0 640 0C604.3 0 568.7 0 533.2 0C497.7 0 462.3 0 426.8 0C391.3 0 355.7 0 320 0C284.3 0 248.7 0 213.2 0C177.7 0 142.3 0 106.8 0C71.3 0 35.7 0 17.8 0L0 0Z" fill="#050c17"></path><path d="M0 201L17.8 210.3C35.7 219.7 71.3 238.3 106.8 231.7C142.3 225 177.7 193 213.2 217C248.7 241 284.3 321 320 341C355.7 361 391.3 321 426.8 299.7C462.3 278.3 497.7 275.7 533.2 259.7C568.7 243.7 604.3 214.3 640 205C675.7 195.7 711.3 206.3 746.8 198.3C782.3 190.3 817.7 163.7 853.2 146.3C888.7 129 924.3 121 960 157C995.7 193 1031.3 273 1066.8 299.7C1102.3 326.3 1137.7 299.7 1173.2 275.7C1208.7 251.7 1244.3 230.3 1280 211.7C1315.7 193 1351.3 177 1386.8 194.3C1422.3 211.7 1457.7 262.3 1493.2 286.3C1528.7 310.3 1564.3 307.7 1600 307.7C1635.7 307.7 1671.3 310.3 1706.8 285C1742.3 259.7 1777.7 206.3 1813.2 193C1848.7 179.7 1884.3 206.3 1902.2 219.7L1920 233L1920 79L1902.2 77.7C1884.3 76.3 1848.7 73.7 1813.2 68.3C1777.7 63 1742.3 55 1706.8 48.3C1671.3 41.7 1635.7 36.3 1600 45.7C1564.3 55 1528.7 79 1493.2 77.7C1457.7 76.3 1422.3 49.7 1386.8 48.3C1351.3 47 1315.7 71 1280 75C1244.3 79 1208.7 63 1173.2 67C1137.7 71 1102.3 95 1066.8 91C1031.3 87 995.7 55 960 40.3C924.3 25.7 888.7 28.3 853.2 44.3C817.7 60.3 782.3 89.7 746.8 89.7C711.3 89.7 675.7 60.3 640 59C604.3 57.7 568.7 84.3 533.2 91C497.7 97.7 462.3 84.3 426.8 81.7C391.3 79 355.7 87 320 85.7C284.3 84.3 248.7 73.7 213.2 76.3C177.7 79 142.3 95 106.8 93.7C71.3 92.3 35.7 73.7 17.8 64.3L0 55Z" fill="#050d18"></path><path d="M0 233L17.8 241C35.7 249 71.3 265 106.8 261C142.3 257 177.7 233 213.2 258.3C248.7 283.7 284.3 358.3 320 381C355.7 403.7 391.3 374.3 426.8 354.3C462.3 334.3 497.7 323.7 533.2 299.7C568.7 275.7 604.3 238.3 640 231.7C675.7 225 711.3 249 746.8 246.3C782.3 243.7 817.7 214.3 853.2 194.3C888.7 174.3 924.3 163.7 960 198.3C995.7 233 1031.3 313 1066.8 341C1102.3 369 1137.7 345 1173.2 317C1208.7 289 1244.3 257 1280 238.3C1315.7 219.7 1351.3 214.3 1386.8 231.7C1422.3 249 1457.7 289 1493.2 314.3C1528.7 339.7 1564.3 350.3 1600 357C1635.7 363.7 1671.3 366.3 1706.8 342.3C1742.3 318.3 1777.7 267.7 1813.2 253C1848.7 238.3 1884.3 259.7 1902.2 270.3L1920 281L1920 231L1902.2 217.7C1884.3 204.3 1848.7 177.7 1813.2 191C1777.7 204.3 1742.3 257.7 1706.8 283C1671.3 308.3 1635.7 305.7 1600 305.7C1564.3 305.7 1528.7 308.3 1493.2 284.3C1457.7 260.3 1422.3 209.7 1386.8 192.3C1351.3 175 1315.7 191 1280 209.7C1244.3 228.3 1208.7 249.7 1173.2 273.7C1137.7 297.7 1102.3 324.3 1066.8 297.7C1031.3 271 995.7 191 960 155C924.3 119 888.7 127 853.2 144.3C817.7 161.7 782.3 188.3 746.8 196.3C711.3 204.3 675.7 193.7 640 203C604.3 212.3 568.7 241.7 533.2 257.7C497.7 273.7 462.3 276.3 426.8 297.7C391.3 319 355.7 359 320 339C284.3 319 248.7 239 213.2 215C177.7 191 142.3 223 106.8 229.7C71.3 236.3 35.7 217.7 17.8 208.3L0 199Z" fill="#060d19"></path><path d="M0 249L17.8 263.7C35.7 278.3 71.3 307.7 106.8 303.7C142.3 299.7 177.7 262.3 213.2 283.7C248.7 305 284.3 385 320 411.7C355.7 438.3 391.3 411.7 426.8 395.7C462.3 379.7 497.7 374.3 533.2 355.7C568.7 337 604.3 305 640 297C675.7 289 711.3 305 746.8 295.7C782.3 286.3 817.7 251.7 853.2 230.3C888.7 209 924.3 201 960 235.7C995.7 270.3 1031.3 347.7 1066.8 373C1102.3 398.3 1137.7 371.7 1173.2 345C1208.7 318.3 1244.3 291.7 1280 279.7C1315.7 267.7 1351.3 270.3 1386.8 285C1422.3 299.7 1457.7 326.3 1493.2 351.7C1528.7 377 1564.3 401 1600 410.3C1635.7 419.7 1671.3 414.3 1706.8 386.3C1742.3 358.3 1777.7 307.7 1813.2 295.7C1848.7 283.7 1884.3 310.3 1902.2 323.7L1920 337L1920 279L1902.2 268.3C1884.3 257.7 1848.7 236.3 1813.2 251C1777.7 265.7 1742.3 316.3 1706.8 340.3C1671.3 364.3 1635.7 361.7 1600 355C1564.3 348.3 1528.7 337.7 1493.2 312.3C1457.7 287 1422.3 247 1386.8 229.7C1351.3 212.3 1315.7 217.7 1280 236.3C1244.3 255 1208.7 287 1173.2 315C1137.7 343 1102.3 367 1066.8 339C1031.3 311 995.7 231 960 196.3C924.3 161.7 888.7 172.3 853.2 192.3C817.7 212.3 782.3 241.7 746.8 244.3C711.3 247 675.7 223 640 229.7C604.3 236.3 568.7 273.7 533.2 297.7C497.7 321.7 462.3 332.3 426.8 352.3C391.3 372.3 355.7 401.7 320 379C284.3 356.3 248.7 281.7 213.2 256.3C177.7 231 142.3 255 106.8 259C71.3 263 35.7 247 17.8 239L0 231Z" fill="#060e1a"></path><path d="M0 273L17.8 293C35.7 313 71.3 353 106.8 351.7C142.3 350.3 177.7 307.7 213.2 326.3C248.7 345 284.3 425 320 449C355.7 473 391.3 441 426.8 422.3C462.3 403.7 497.7 398.3 533.2 378.3C568.7 358.3 604.3 323.7 640 319.7C675.7 315.7 711.3 342.3 746.8 335.7C782.3 329 817.7 289 853.2 265C888.7 241 924.3 233 960 267.7C995.7 302.3 1031.3 379.7 1066.8 407.7C1102.3 435.7 1137.7 414.3 1173.2 389C1208.7 363.7 1244.3 334.3 1280 322.3C1315.7 310.3 1351.3 315.7 1386.8 326.3C1422.3 337 1457.7 353 1493.2 379.7C1528.7 406.3 1564.3 443.7 1600 455.7C1635.7 467.7 1671.3 454.3 1706.8 423.7C1742.3 393 1777.7 345 1813.2 335.7C1848.7 326.3 1884.3 355.7 1902.2 370.3L1920 385L1920 335L1902.2 321.7C1884.3 308.3 1848.7 281.7 1813.2 293.7C1777.7 305.7 1742.3 356.3 1706.8 384.3C1671.3 412.3 1635.7 417.7 1600 408.3C1564.3 399 1528.7 375 1493.2 349.7C1457.7 324.3 1422.3 297.7 1386.8 283C1351.3 268.3 1315.7 265.7 1280 277.7C1244.3 289.7 1208.7 316.3 1173.2 343C1137.7 369.7 1102.3 396.3 1066.8 371C1031.3 345.7 995.7 268.3 960 233.7C924.3 199 888.7 207 853.2 228.3C817.7 249.7 782.3 284.3 746.8 293.7C711.3 303 675.7 287 640 295C604.3 303 568.7 335 533.2 353.7C497.7 372.3 462.3 377.7 426.8 393.7C391.3 409.7 355.7 436.3 320 409.7C284.3 383 248.7 303 213.2 281.7C177.7 260.3 142.3 297.7 106.8 301.7C71.3 305.7 35.7 276.3 17.8 261.7L0 247Z" fill="#070f1b"></path><path d="M0 305L17.8 331.7C35.7 358.3 71.3 411.7 106.8 415.7C142.3 419.7 177.7 374.3 213.2 393C248.7 411.7 284.3 494.3 320 521C355.7 547.7 391.3 518.3 426.8 497C462.3 475.7 497.7 462.3 533.2 438.3C568.7 414.3 604.3 379.7 640 381C675.7 382.3 711.3 419.7 746.8 413C782.3 406.3 817.7 355.7 853.2 330.3C888.7 305 924.3 305 960 334.3C995.7 363.7 1031.3 422.3 1066.8 451.7C1102.3 481 1137.7 481 1173.2 461C1208.7 441 1244.3 401 1280 389C1315.7 377 1351.3 393 1386.8 406.3C1422.3 419.7 1457.7 430.3 1493.2 447.7C1528.7 465 1564.3 489 1600 503.7C1635.7 518.3 1671.3 523.7 1706.8 493C1742.3 462.3 1777.7 395.7 1813.2 382.3C1848.7 369 1884.3 409 1902.2 429L1920 449L1920 383L1902.2 368.3C1884.3 353.7 1848.7 324.3 1813.2 333.7C1777.7 343 1742.3 391 1706.8 421.7C1671.3 452.3 1635.7 465.7 1600 453.7C1564.3 441.7 1528.7 404.3 1493.2 377.7C1457.7 351 1422.3 335 1386.8 324.3C1351.3 313.7 1315.7 308.3 1280 320.3C1244.3 332.3 1208.7 361.7 1173.2 387C1137.7 412.3 1102.3 433.7 1066.8 405.7C1031.3 377.7 995.7 300.3 960 265.7C924.3 231 888.7 239 853.2 263C817.7 287 782.3 327 746.8 333.7C711.3 340.3 675.7 313.7 640 317.7C604.3 321.7 568.7 356.3 533.2 376.3C497.7 396.3 462.3 401.7 426.8 420.3C391.3 439 355.7 471 320 447C284.3 423 248.7 343 213.2 324.3C177.7 305.7 142.3 348.3 106.8 349.7C71.3 351 35.7 311 17.8 291L0 271Z" fill="#0a1321"></path><path d="M0 617L17.8 606.3C35.7 595.7 71.3 574.3 106.8 565C142.3 555.7 177.7 558.3 213.2 581C248.7 603.7 284.3 646.3 320 663.7C355.7 681 391.3 673 426.8 649C462.3 625 497.7 585 533.2 555.7C568.7 526.3 604.3 507.7 640 530.3C675.7 553 711.3 617 746.8 622.3C782.3 627.7 817.7 574.3 853.2 558.3C888.7 542.3 924.3 563.7 960 575.7C995.7 587.7 1031.3 590.3 1066.8 589C1102.3 587.7 1137.7 582.3 1173.2 574.3C1208.7 566.3 1244.3 555.7 1280 549C1315.7 542.3 1351.3 539.7 1386.8 541C1422.3 542.3 1457.7 547.7 1493.2 570.3C1528.7 593 1564.3 633 1600 654.3C1635.7 675.7 1671.3 678.3 1706.8 650.3C1742.3 622.3 1777.7 563.7 1813.2 555.7C1848.7 547.7 1884.3 590.3 1902.2 611.7L1920 633L1920 447L1902.2 427C1884.3 407 1848.7 367 1813.2 380.3C1777.7 393.7 1742.3 460.3 1706.8 491C1671.3 521.7 1635.7 516.3 1600 501.7C1564.3 487 1528.7 463 1493.2 445.7C1457.7 428.3 1422.3 417.7 1386.8 404.3C1351.3 391 1315.7 375 1280 387C1244.3 399 1208.7 439 1173.2 459C1137.7 479 1102.3 479 1066.8 449.7C1031.3 420.3 995.7 361.7 960 332.3C924.3 303 888.7 303 853.2 328.3C817.7 353.7 782.3 404.3 746.8 411C711.3 417.7 675.7 380.3 640 379C604.3 377.7 568.7 412.3 533.2 436.3C497.7 460.3 462.3 473.7 426.8 495C391.3 516.3 355.7 545.7 320 519C284.3 492.3 248.7 409.7 213.2 391C177.7 372.3 142.3 417.7 106.8 413.7C71.3 409.7 35.7 356.3 17.8 329.7L0 303Z" fill="#0e1a2d"></path><path d="M0 673L17.8 667.7C35.7 662.3 71.3 651.7 106.8 647.7C142.3 643.7 177.7 646.3 213.2 658.3C248.7 670.3 284.3 691.7 320 699.7C355.7 707.7 391.3 702.3 426.8 682.3C462.3 662.3 497.7 627.7 533.2 603.7C568.7 579.7 604.3 566.3 640 586.3C675.7 606.3 711.3 659.7 746.8 670.3C782.3 681 817.7 649 853.2 645C888.7 641 924.3 665 960 679.7C995.7 694.3 1031.3 699.7 1066.8 690.3C1102.3 681 1137.7 657 1173.2 647.7C1208.7 638.3 1244.3 643.7 1280 641C1315.7 638.3 1351.3 627.7 1386.8 625C1422.3 622.3 1457.7 627.7 1493.2 643.7C1528.7 659.7 1564.3 686.3 1600 699.7C1635.7 713 1671.3 713 1706.8 691.7C1742.3 670.3 1777.7 627.7 1813.2 625C1848.7 622.3 1884.3 659.7 1902.2 678.3L1920 697L1920 631L1902.2 609.7C1884.3 588.3 1848.7 545.7 1813.2 553.7C1777.7 561.7 1742.3 620.3 1706.8 648.3C1671.3 676.3 1635.7 673.7 1600 652.3C1564.3 631 1528.7 591 1493.2 568.3C1457.7 545.7 1422.3 540.3 1386.8 539C1351.3 537.7 1315.7 540.3 1280 547C1244.3 553.7 1208.7 564.3 1173.2 572.3C1137.7 580.3 1102.3 585.7 1066.8 587C1031.3 588.3 995.7 585.7 960 573.7C924.3 561.7 888.7 540.3 853.2 556.3C817.7 572.3 782.3 625.7 746.8 620.3C711.3 615 675.7 551 640 528.3C604.3 505.7 568.7 524.3 533.2 553.7C497.7 583 462.3 623 426.8 647C391.3 671 355.7 679 320 661.7C284.3 644.3 248.7 601.7 213.2 579C177.7 556.3 142.3 553.7 106.8 563C71.3 572.3 35.7 593.7 17.8 604.3L0 615Z" fill="#112138"></path><path d="M0 729L17.8 733C35.7 737 71.3 745 106.8 749C142.3 753 177.7 753 213.2 757C248.7 761 284.3 769 320 769C355.7 769 391.3 761 426.8 751.7C462.3 742.3 497.7 731.7 533.2 726.3C568.7 721 604.3 721 640 727.7C675.7 734.3 711.3 747.7 746.8 749C782.3 750.3 817.7 739.7 853.2 739.7C888.7 739.7 924.3 750.3 960 758.3C995.7 766.3 1031.3 771.7 1066.8 771.7C1102.3 771.7 1137.7 766.3 1173.2 766.3C1208.7 766.3 1244.3 771.7 1280 771.7C1315.7 771.7 1351.3 766.3 1386.8 761C1422.3 755.7 1457.7 750.3 1493.2 754.3C1528.7 758.3 1564.3 771.7 1600 778.3C1635.7 785 1671.3 785 1706.8 775.7C1742.3 766.3 1777.7 747.7 1813.2 743.7C1848.7 739.7 1884.3 750.3 1902.2 755.7L1920 761L1920 695L1902.2 676.3C1884.3 657.7 1848.7 620.3 1813.2 623C1777.7 625.7 1742.3 668.3 1706.8 689.7C1671.3 711 1635.7 711 1600 697.7C1564.3 684.3 1528.7 657.7 1493.2 641.7C1457.7 625.7 1422.3 620.3 1386.8 623C1351.3 625.7 1315.7 636.3 1280 639C1244.3 641.7 1208.7 636.3 1173.2 645.7C1137.7 655 1102.3 679 1066.8 688.3C1031.3 697.7 995.7 692.3 960 677.7C924.3 663 888.7 639 853.2 643C817.7 647 782.3 679 746.8 668.3C711.3 657.7 675.7 604.3 640 584.3C604.3 564.3 568.7 577.7 533.2 601.7C497.7 625.7 462.3 660.3 426.8 680.3C391.3 700.3 355.7 705.7 320 697.7C284.3 689.7 248.7 668.3 213.2 656.3C177.7 644.3 142.3 641.7 106.8 645.7C71.3 649.7 35.7 660.3 17.8 665.7L0 671Z" fill="#132845"></path><path d="M0 801L17.8 801C35.7 801 71.3 801 106.8 801C142.3 801 177.7 801 213.2 801C248.7 801 284.3 801 320 801C355.7 801 391.3 801 426.8 801C462.3 801 497.7 801 533.2 801C568.7 801 604.3 801 640 801C675.7 801 711.3 801 746.8 801C782.3 801 817.7 801 853.2 801C888.7 801 924.3 801 960 801C995.7 801 1031.3 801 1066.8 801C1102.3 801 1137.7 801 1173.2 801C1208.7 801 1244.3 801 1280 801C1315.7 801 1351.3 801 1386.8 801C1422.3 801 1457.7 801 1493.2 801C1528.7 801 1564.3 801 1600 801C1635.7 801 1671.3 801 1706.8 801C1742.3 801 1777.7 801 1813.2 801C1848.7 801 1884.3 801 1902.2 801L1920 801L1920 759L1902.2 753.7C1884.3 748.3 1848.7 737.7 1813.2 741.7C1777.7 745.7 1742.3 764.3 1706.8 773.7C1671.3 783 1635.7 783 1600 776.3C1564.3 769.7 1528.7 756.3 1493.2 752.3C1457.7 748.3 1422.3 753.7 1386.8 759C1351.3 764.3 1315.7 769.7 1280 769.7C1244.3 769.7 1208.7 764.3 1173.2 764.3C1137.7 764.3 1102.3 769.7 1066.8 769.7C1031.3 769.7 995.7 764.3 960 756.3C924.3 748.3 888.7 737.7 853.2 737.7C817.7 737.7 782.3 748.3 746.8 747C711.3 745.7 675.7 732.3 640 725.7C604.3 719 568.7 719 533.2 724.3C497.7 729.7 462.3 740.3 426.8 749.7C391.3 759 355.7 767 320 767C284.3 767 248.7 759 213.2 755C177.7 751 142.3 751 106.8 747C71.3 743 35.7 735 17.8 731L0 727Z" fill="#162f51"></path></svg>