<svg id="visual" viewBox="0 0 1900 800" width="1900" height="800" xmlns="http://www.w3.org/2000/svg" xmlns:xlink="http://www.w3.org/1999/xlink" version="1.1"><rect x="0" y="0" width="1900" height="800" fill="#000e17"></rect><path d="M0 402L35.2 405.8C70.3 409.7 140.7 417.3 211 410.8C281.3 404.3 351.7 383.7 422 364.2C492.3 344.7 562.7 326.3 633 342.3C703.3 358.3 773.7 408.7 844.2 405.2C914.7 401.7 985.3 344.3 1055.8 336.7C1126.3 329 1196.7 371 1267 376.3C1337.3 381.7 1407.7 350.3 1478 331.5C1548.3 312.7 1618.7 306.3 1689 314.3C1759.3 322.3 1829.7 344.7 1864.8 355.8L1900 367L1900 801L1864.8 801C1829.7 801 1759.3 801 1689 801C1618.7 801 1548.3 801 1478 801C1407.7 801 1337.3 801 1267 801C1196.7 801 1126.3 801 1055.8 801C985.3 801 914.7 801 844.2 801C773.7 801 703.3 801 633 801C562.7 801 492.3 801 422 801C351.7 801 281.3 801 211 801C140.7 801 70.3 801 35.2 801L0 801Z" fill="#74510f"></path><path d="M0 362L35.2 383.7C70.3 405.3 140.7 448.7 211 451C281.3 453.3 351.7 414.7 422 393.5C492.3 372.3 562.7 368.7 633 385.2C703.3 401.7 773.7 438.3 844.2 457.2C914.7 476 985.3 477 1055.8 472.2C1126.3 467.3 1196.7 456.7 1267 457.3C1337.3 458 1407.7 470 1478 452C1548.3 434 1618.7 386 1689 375.7C1759.3 365.3 1829.7 392.7 1864.8 406.3L1900 420L1900 801L1864.8 801C1829.7 801 1759.3 801 1689 801C1618.7 801 1548.3 801 1478 801C1407.7 801 1337.3 801 1267 801C1196.7 801 1126.3 801 1055.8 801C985.3 801 914.7 801 844.2 801C773.7 801 703.3 801 633 801C562.7 801 492.3 801 422 801C351.7 801 281.3 801 211 801C140.7 801 70.3 801 35.2 801L0 801Z" fill="#422d05"></path><path d="M0 399L35.2 423.5C70.3 448 140.7 497 211 510C281.3 523 351.7 500 422 480.5C492.3 461 562.7 445 633 435.8C703.3 426.7 773.7 424.3 844.2 432.2C914.7 440 985.3 458 1055.8 463.3C1126.3 468.7 1196.7 461.3 1267 447.7C1337.3 434 1407.7 414 1478 419.8C1548.3 425.7 1618.7 457.3 1689 461.5C1759.3 465.7 1829.7 442.3 1864.8 430.7L1900 419L1900 801L1864.8 801C1829.7 801 1759.3 801 1689 801C1618.7 801 1548.3 801 1478 801C1407.7 801 1337.3 801 1267 801C1196.7 801 1126.3 801 1055.8 801C985.3 801 914.7 801 844.2 801C773.7 801 703.3 801 633 801C562.7 801 492.3 801 422 801C351.7 801 281.3 801 211 801C140.7 801 70.3 801 35.2 801L0 801Z" fill="#2f2101"></path><path d="M0 617L35.2 606.5C70.3 596 140.7 575 211 557.7C281.3 540.3 351.7 526.7 422 510.5C492.3 494.3 562.7 475.7 633 485.8C703.3 496 773.7 535 844.2 542.2C914.7 549.3 985.3 524.7 1055.8 513.5C1126.3 502.3 1196.7 504.7 1267 504C1337.3 503.3 1407.7 499.7 1478 509.3C1548.3 519 1618.7 542 1689 558.8C1759.3 575.7 1829.7 586.3 1864.8 591.7L1900 597L1900 801L1864.8 801C1829.7 801 1759.3 801 1689 801C1618.7 801 1548.3 801 1478 801C1407.7 801 1337.3 801 1267 801C1196.7 801 1126.3 801 1055.8 801C985.3 801 914.7 801 844.2 801C773.7 801 703.3 801 633 801C562.7 801 492.3 801 422 801C351.7 801 281.3 801 211 801C140.7 801 70.3 801 35.2 801L0 801Z" fill="#2a1e01"></path><path d="M0 648L35.2 630.3C70.3 612.7 140.7 577.3 211 564C281.3 550.7 351.7 559.3 422 568C492.3 576.7 562.7 585.3 633 599.3C703.3 613.3 773.7 632.7 844.2 626C914.7 619.3 985.3 586.7 1055.8 588.7C1126.3 590.7 1196.7 627.3 1267 646.7C1337.3 666 1407.7 668 1478 656.7C1548.3 645.3 1618.7 620.7 1689 612.5C1759.3 604.3 1829.7 612.7 1864.8 616.8L1900 621L1900 801L1864.8 801C1829.7 801 1759.3 801 1689 801C1618.7 801 1548.3 801 1478 801C1407.7 801 1337.3 801 1267 801C1196.7 801 1126.3 801 1055.8 801C985.3 801 914.7 801 844.2 801C773.7 801 703.3 801 633 801C562.7 801 492.3 801 422 801C351.7 801 281.3 801 211 801C140.7 801 70.3 801 35.2 801L0 801Z" fill="#2f2101"></path><path d="M0 705L35.2 698.2C70.3 691.3 140.7 677.7 211 676.2C281.3 674.7 351.7 685.3 422 684.5C492.3 683.7 562.7 671.3 633 661.8C703.3 652.3 773.7 645.7 844.2 636.5C914.7 627.3 985.3 615.7 1055.8 613C1126.3 610.3 1196.7 616.7 1267 616.8C1337.3 617 1407.7 611 1478 614.3C1548.3 617.7 1618.7 630.3 1689 640C1759.3 649.7 1829.7 656.3 1864.8 659.7L1900 663L1900 801L1864.8 801C1829.7 801 1759.3 801 1689 801C1618.7 801 1548.3 801 1478 801C1407.7 801 1337.3 801 1267 801C1196.7 801 1126.3 801 1055.8 801C985.3 801 914.7 801 844.2 801C773.7 801 703.3 801 633 801C562.7 801 492.3 801 422 801C351.7 801 281.3 801 211 801C140.7 801 70.3 801 35.2 801L0 801Z" fill="#422d05"></path><path d="M0 740L35.2 738C70.3 736 140.7 732 211 723.3C281.3 714.7 351.7 701.3 422 704.8C492.3 708.3 562.7 728.7 633 737.7C703.3 746.7 773.7 744.3 844.2 744.3C914.7 744.3 985.3 746.7 1055.8 740.2C1126.3 733.7 1196.7 718.3 1267 709.7C1337.3 701 1407.7 699 1478 706.8C1548.3 714.7 1618.7 732.3 1689 743.8C1759.3 755.3 1829.7 760.7 1864.8 763.3L1900 766L1900 801L1864.8 801C1829.7 801 1759.3 801 1689 801C1618.7 801 1548.3 801 1478 801C1407.7 801 1337.3 801 1267 801C1196.7 801 1126.3 801 1055.8 801C985.3 801 914.7 801 844.2 801C773.7 801 703.3 801 633 801C562.7 801 492.3 801 422 801C351.7 801 281.3 801 211 801C140.7 801 70.3 801 35.2 801L0 801Z" fill="#74510f"></path></svg>