<!--?xml version="1.0" standalone="no"?-->
              <svg id="sw-js-blob-svg" viewBox="0 0 100 100" xmlns="http://www.w3.org/2000/svg" version="1.1">
                    <defs> 
                        <linearGradient id="sw-gradient" x1="0" x2="1" y1="1" y2="0">
                            <stop id="stop1" stop-color="rgba(163, 223, 140, 1)" offset="0%"></stop>
                            <stop id="stop2" stop-color="rgba(117, 191, 99, 1)" offset="100%"></stop>
                        </linearGradient>
                    </defs>
                <path fill="url(#sw-gradient)" d="M22.2,-34.6C28.2,-30.6,32.2,-23.6,34.7,-16.3C37.3,-9.1,38.5,-1.7,38.7,6.5C39,14.7,38.3,23.7,33.8,29.8C29.3,35.9,20.9,39.2,12.6,40.6C4.2,42.1,-4,41.9,-11.3,39.4C-18.7,36.9,-25.2,32.2,-31.3,26.4C-37.3,20.6,-43,13.8,-43.9,6.4C-44.7,-0.9,-40.8,-8.9,-37.1,-16.9C-33.4,-24.9,-29.9,-32.9,-23.7,-36.9C-17.6,-40.8,-8.8,-40.6,-0.4,-40.1C8.1,-39.5,16.2,-38.6,22.2,-34.6Z" width="100%" height="100%" transform="translate(50 50)" stroke-width="0" style="transition: all 0.3s ease 0s;"></path>
              </svg>