<svg id="visual" viewBox="0 0 900 600" width="900" height="600" xmlns="http://www.w3.org/2000/svg" xmlns:xlink="http://www.w3.org/1999/xlink" version="1.1"><path d="M0 73L25 73C50 73 100 73 150 70C200 67 250 61 300 59C350 57 400 59 450 58C500 57 550 53 600 56C650 59 700 69 750 73C800 77 850 75 875 74L900 73L900 0L875 0C850 0 800 0 750 0C700 0 650 0 600 0C550 0 500 0 450 0C400 0 350 0 300 0C250 0 200 0 150 0C100 0 50 0 25 0L0 0Z" fill="#4e8947"></path><path d="M0 193L25 201C50 209 100 225 150 220C200 215 250 189 300 191C350 193 400 223 450 224C500 225 550 197 600 193C650 189 700 209 750 211C800 213 850 197 875 189L900 181L900 71L875 72C850 73 800 75 750 71C700 67 650 57 600 54C550 51 500 55 450 56C400 57 350 55 300 57C250 59 200 65 150 68C100 71 50 71 25 71L0 71Z" fill="#427c3b"></path><path d="M0 259L25 266C50 273 100 287 150 278C200 269 250 237 300 236C350 235 400 265 450 267C500 269 550 243 600 244C650 245 700 273 750 275C800 277 850 253 875 241L900 229L900 179L875 187C850 195 800 211 750 209C700 207 650 187 600 191C550 195 500 223 450 222C400 221 350 191 300 189C250 187 200 213 150 218C100 223 50 207 25 199L0 191Z" fill="#356f2f"></path><path d="M0 313L25 317C50 321 100 329 150 319C200 309 250 281 300 284C350 287 400 321 450 323C500 325 550 295 600 295C650 295 700 325 750 325C800 325 850 295 875 280L900 265L900 227L875 239C850 251 800 275 750 273C700 271 650 243 600 242C550 241 500 267 450 265C400 263 350 233 300 234C250 235 200 267 150 276C100 285 50 271 25 264L0 257Z" fill="#296323"></path><path d="M0 349L25 356C50 363 100 377 150 370C200 363 250 335 300 337C350 339 400 371 450 373C500 375 550 347 600 344C650 341 700 363 750 359C800 355 850 325 875 310L900 295L900 263L875 278C850 293 800 323 750 323C700 323 650 293 600 293C550 293 500 323 450 321C400 319 350 285 300 282C250 279 200 307 150 317C100 327 50 319 25 315L0 311Z" fill="#255a21"></path><path d="M0 433L25 440C50 447 100 461 150 460C200 459 250 443 300 442C350 441 400 455 450 455C500 455 550 441 600 442C650 443 700 459 750 454C800 449 850 423 875 410L900 397L900 293L875 308C850 323 800 353 750 357C700 361 650 339 600 342C550 345 500 373 450 371C400 369 350 337 300 335C250 333 200 361 150 368C100 375 50 361 25 354L0 347Z" fill="#21521f"></path><path d="M0 601L25 601C50 601 100 601 150 601C200 601 250 601 300 601C350 601 400 601 450 601C500 601 550 601 600 601C650 601 700 601 750 601C800 601 850 601 875 601L900 601L900 395L875 408C850 421 800 447 750 452C700 457 650 441 600 440C550 439 500 453 450 453C400 453 350 439 300 440C250 441 200 457 150 458C100 459 50 445 25 438L0 431Z" fill="#1e491d"></path></svg>