<svg id="visual" viewBox="0 0 960 540" width="960" height="540" xmlns="http://www.w3.org/2000/svg" xmlns:xlink="http://www.w3.org/1999/xlink" version="1.1"><rect x="0" y="0" width="960" height="540" fill="#000e17"></rect><path d="M0 275L17.8 277C35.7 279 71.3 283 106.8 276C142.3 269 177.7 251 213.2 245.8C248.7 240.7 284.3 248.3 320 260.3C355.7 272.3 391.3 288.7 426.8 277.7C462.3 266.7 497.7 228.3 533.2 222C568.7 215.7 604.3 241.3 640 263.2C675.7 285 711.3 303 746.8 302.2C782.3 301.3 817.7 281.7 853.2 281.8C888.7 282 924.3 302 942.2 312L960 322L960 541L942.2 541C924.3 541 888.7 541 853.2 541C817.7 541 782.3 541 746.8 541C711.3 541 675.7 541 640 541C604.3 541 568.7 541 533.2 541C497.7 541 462.3 541 426.8 541C391.3 541 355.7 541 320 541C284.3 541 248.7 541 213.2 541C177.7 541 142.3 541 106.8 541C71.3 541 35.7 541 17.8 541L0 541Z" fill="#23618b"></path><path d="M0 350L17.8 343.7C35.7 337.3 71.3 324.7 106.8 318.8C142.3 313 177.7 314 213.2 302.3C248.7 290.7 284.3 266.3 320 251.3C355.7 236.3 391.3 230.7 426.8 240.3C462.3 250 497.7 275 533.2 288.7C568.7 302.3 604.3 304.7 640 301.2C675.7 297.7 711.3 288.3 746.8 284.2C782.3 280 817.7 281 853.2 293.7C888.7 306.3 924.3 330.7 942.2 342.8L960 355L960 541L942.2 541C924.3 541 888.7 541 853.2 541C817.7 541 782.3 541 746.8 541C711.3 541 675.7 541 640 541C604.3 541 568.7 541 533.2 541C497.7 541 462.3 541 426.8 541C391.3 541 355.7 541 320 541C284.3 541 248.7 541 213.2 541C177.7 541 142.3 541 106.8 541C71.3 541 35.7 541 17.8 541L0 541Z" fill="#034a64"></path><path d="M0 332L17.8 341.2C35.7 350.3 71.3 368.7 106.8 361.8C142.3 355 177.7 323 213.2 301.7C248.7 280.3 284.3 269.7 320 277.5C355.7 285.3 391.3 311.7 426.8 312.8C462.3 314 497.7 290 533.2 285.2C568.7 280.3 604.3 294.7 640 296.3C675.7 298 711.3 287 746.8 298.8C782.3 310.7 817.7 345.3 853.2 357.5C888.7 369.7 924.3 359.3 942.2 354.2L960 349L960 541L942.2 541C924.3 541 888.7 541 853.2 541C817.7 541 782.3 541 746.8 541C711.3 541 675.7 541 640 541C604.3 541 568.7 541 533.2 541C497.7 541 462.3 541 426.8 541C391.3 541 355.7 541 320 541C284.3 541 248.7 541 213.2 541C177.7 541 142.3 541 106.8 541C71.3 541 35.7 541 17.8 541L0 541Z" fill="#003240"></path><path d="M0 401L17.8 391.3C35.7 381.7 71.3 362.3 106.8 350.8C142.3 339.3 177.7 335.7 213.2 330C248.7 324.3 284.3 316.7 320 323C355.7 329.3 391.3 349.7 426.8 353.5C462.3 357.3 497.7 344.7 533.2 342.3C568.7 340 604.3 348 640 350.3C675.7 352.7 711.3 349.3 746.8 359.3C782.3 369.3 817.7 392.7 853.2 393.3C888.7 394 924.3 372 942.2 361L960 350L960 541L942.2 541C924.3 541 888.7 541 853.2 541C817.7 541 782.3 541 746.8 541C711.3 541 675.7 541 640 541C604.3 541 568.7 541 533.2 541C497.7 541 462.3 541 426.8 541C391.3 541 355.7 541 320 541C284.3 541 248.7 541 213.2 541C177.7 541 142.3 541 106.8 541C71.3 541 35.7 541 17.8 541L0 541Z" fill="#002933"></path><path d="M0 392L17.8 387C35.7 382 71.3 372 106.8 376.2C142.3 380.3 177.7 398.7 213.2 401.5C248.7 404.3 284.3 391.7 320 383.8C355.7 376 391.3 373 426.8 381C462.3 389 497.7 408 533.2 407.7C568.7 407.3 604.3 387.7 640 391.7C675.7 395.7 711.3 423.3 746.8 424.8C782.3 426.3 817.7 401.7 853.2 395.8C888.7 390 924.3 403 942.2 409.5L960 416L960 541L942.2 541C924.3 541 888.7 541 853.2 541C817.7 541 782.3 541 746.8 541C711.3 541 675.7 541 640 541C604.3 541 568.7 541 533.2 541C497.7 541 462.3 541 426.8 541C391.3 541 355.7 541 320 541C284.3 541 248.7 541 213.2 541C177.7 541 142.3 541 106.8 541C71.3 541 35.7 541 17.8 541L0 541Z" fill="#003240"></path><path d="M0 420L17.8 428.7C35.7 437.3 71.3 454.7 106.8 454.3C142.3 454 177.7 436 213.2 433C248.7 430 284.3 442 320 441.3C355.7 440.7 391.3 427.3 426.8 430.7C462.3 434 497.7 454 533.2 454C568.7 454 604.3 434 640 424.5C675.7 415 711.3 416 746.8 419.2C782.3 422.3 817.7 427.7 853.2 435.2C888.7 442.7 924.3 452.3 942.2 457.2L960 462L960 541L942.2 541C924.3 541 888.7 541 853.2 541C817.7 541 782.3 541 746.8 541C711.3 541 675.7 541 640 541C604.3 541 568.7 541 533.2 541C497.7 541 462.3 541 426.8 541C391.3 541 355.7 541 320 541C284.3 541 248.7 541 213.2 541C177.7 541 142.3 541 106.8 541C71.3 541 35.7 541 17.8 541L0 541Z" fill="#034a64"></path><path d="M0 453L17.8 458.5C35.7 464 71.3 475 106.8 475.2C142.3 475.3 177.7 464.7 213.2 467.8C248.7 471 284.3 488 320 490.8C355.7 493.7 391.3 482.3 426.8 476.5C462.3 470.7 497.7 470.3 533.2 473.5C568.7 476.7 604.3 483.3 640 489.3C675.7 495.3 711.3 500.7 746.8 495C782.3 489.3 817.7 472.7 853.2 474.5C888.7 476.3 924.3 496.7 942.2 506.8L960 517L960 541L942.2 541C924.3 541 888.7 541 853.2 541C817.7 541 782.3 541 746.8 541C711.3 541 675.7 541 640 541C604.3 541 568.7 541 533.2 541C497.7 541 462.3 541 426.8 541C391.3 541 355.7 541 320 541C284.3 541 248.7 541 213.2 541C177.7 541 142.3 541 106.8 541C71.3 541 35.7 541 17.8 541L0 541Z" fill="#23618b"></path></svg>