
<svg id="visual" viewBox="0 0 960 540" width="960" height="540" xmlns="http://www.w3.org/2000/svg" xmlns:xlink="http://www.w3.org/1999/xlink" version="1.1"><path d="M0 50L26.7 49C53.3 48 106.7 46 160 47.7C213.3 49.3 266.7 54.7 320 59.2C373.3 63.7 426.7 67.3 480 65.7C533.3 64 586.7 57 640 53.5C693.3 50 746.7 50 800 52.7C853.3 55.3 906.7 60.7 933.3 63.3L960 66L960 0L933.3 0C906.7 0 853.3 0 800 0C746.7 0 693.3 0 640 0C586.7 0 533.3 0 480 0C426.7 0 373.3 0 320 0C266.7 0 213.3 0 160 0C106.7 0 53.3 0 26.7 0L0 0Z" fill="#88b5ff"></path><path d="M0 217L26.7 208.8C53.3 200.7 106.7 184.3 160 176.2C213.3 168 266.7 168 320 170.8C373.3 173.7 426.7 179.3 480 183.8C533.3 188.3 586.7 191.7 640 196.2C693.3 200.7 746.7 206.3 800 204.7C853.3 203 906.7 194 933.3 189.5L960 185L960 64L933.3 61.3C906.7 58.7 853.3 53.3 800 50.7C746.7 48 693.3 48 640 51.5C586.7 55 533.3 62 480 63.7C426.7 65.3 373.3 61.7 320 57.2C266.7 52.7 213.3 47.3 160 45.7C106.7 44 53.3 46 26.7 47L0 48Z" fill="#96beff"></path><path d="M0 352L26.7 357.3C53.3 362.7 106.7 373.3 160 373.3C213.3 373.3 266.7 362.7 320 354.7C373.3 346.7 426.7 341.3 480 345C533.3 348.7 586.7 361.3 640 368.5C693.3 375.7 746.7 377.3 800 380.8C853.3 384.3 906.7 389.7 933.3 392.3L960 395L960 183L933.3 187.5C906.7 192 853.3 201 800 202.7C746.7 204.3 693.3 198.7 640 194.2C586.7 189.7 533.3 186.3 480 181.8C426.7 177.3 373.3 171.7 320 168.8C266.7 166 213.3 166 160 174.2C106.7 182.3 53.3 198.7 26.7 206.8L0 215Z" fill="#a3c6ff"></path><path d="M0 406L26.7 416.8C53.3 427.7 106.7 449.3 160 454.7C213.3 460 266.7 449 320 440.8C373.3 432.7 426.7 427.3 480 429.2C533.3 431 586.7 440 640 441.8C693.3 443.7 746.7 438.3 800 442.8C853.3 447.3 906.7 461.7 933.3 468.8L960 476L960 393L933.3 390.3C906.7 387.7 853.3 382.3 800 378.8C746.7 375.3 693.3 373.7 640 366.5C586.7 359.3 533.3 346.7 480 343C426.7 339.3 373.3 344.7 320 352.7C266.7 360.7 213.3 371.3 160 371.3C106.7 371.3 53.3 360.7 26.7 355.3L0 350Z" fill="#b4ceff"></path><path d="M0 541L26.7 541C53.3 541 106.7 541 160 541C213.3 541 266.7 541 320 541C373.3 541 426.7 541 480 541C533.3 541 586.7 541 640 541C693.3 541 746.7 541 800 541C853.3 541 906.7 541 933.3 541L960 541L960 474L933.3 466.8C906.7 459.7 853.3 445.3 800 440.8C746.7 436.3 693.3 441.7 640 439.8C586.7 438 533.3 429 480 427.2C426.7 425.3 373.3 430.7 320 438.8C266.7 447 213.3 458 160 452.7C106.7 447.3 53.3 425.7 26.7 414.8L0 404Z" fill="#c3d7ff"></path></svg>