
<svg id="visual" viewBox="0 0 960 540" width="960" height="540" xmlns="http://www.w3.org/2000/svg" xmlns:xlink="http://www.w3.org/1999/xlink" version="1.1"><rect x="0" y="0" width="960" height="540" fill="#000e17"></rect><path d="M0 372L22.8 372C45.7 372 91.3 372 137 381.3C182.7 390.7 228.3 409.3 274 411.7C319.7 414 365.3 400 411.2 393.2C457 386.3 503 386.7 548.8 373.8C594.7 361 640.3 335 686 337.5C731.7 340 777.3 371 823 372.5C868.7 374 914.3 346 937.2 332L960 318L960 0L937.2 0C914.3 0 868.7 0 823 0C777.3 0 731.7 0 686 0C640.3 0 594.7 0 548.8 0C503 0 457 0 411.2 0C365.3 0 319.7 0 274 0C228.3 0 182.7 0 137 0C91.3 0 45.7 0 22.8 0L0 0Z" fill="#012b2e"></path><path d="M0 392L22.8 382C45.7 372 91.3 352 137 354.7C182.7 357.3 228.3 382.7 274 389.7C319.7 396.7 365.3 385.3 411.2 381.5C457 377.7 503 381.3 548.8 372.8C594.7 364.3 640.3 343.7 686 344.5C731.7 345.3 777.3 367.7 823 376.7C868.7 385.7 914.3 381.3 937.2 379.2L960 377L960 0L937.2 0C914.3 0 868.7 0 823 0C777.3 0 731.7 0 686 0C640.3 0 594.7 0 548.8 0C503 0 457 0 411.2 0C365.3 0 319.7 0 274 0C228.3 0 182.7 0 137 0C91.3 0 45.7 0 22.8 0L0 0Z" fill="#003638"></path><path d="M0 366L22.8 360.3C45.7 354.7 91.3 343.3 137 336.3C182.7 329.3 228.3 326.7 274 319.3C319.7 312 365.3 300 411.2 302.5C457 305 503 322 548.8 333.2C594.7 344.3 640.3 349.7 686 337.8C731.7 326 777.3 297 823 285.7C868.7 274.3 914.3 280.7 937.2 283.8L960 287L960 0L937.2 0C914.3 0 868.7 0 823 0C777.3 0 731.7 0 686 0C640.3 0 594.7 0 548.8 0C503 0 457 0 411.2 0C365.3 0 319.7 0 274 0C228.3 0 182.7 0 137 0C91.3 0 45.7 0 22.8 0L0 0Z" fill="#004041"></path><path d="M0 223L22.8 221.8C45.7 220.7 91.3 218.3 137 227C182.7 235.7 228.3 255.3 274 264.2C319.7 273 365.3 271 411.2 272.5C457 274 503 279 548.8 270.3C594.7 261.7 640.3 239.3 686 240.7C731.7 242 777.3 267 823 283.2C868.7 299.3 914.3 306.7 937.2 310.3L960 314L960 0L937.2 0C914.3 0 868.7 0 823 0C777.3 0 731.7 0 686 0C640.3 0 594.7 0 548.8 0C503 0 457 0 411.2 0C365.3 0 319.7 0 274 0C228.3 0 182.7 0 137 0C91.3 0 45.7 0 22.8 0L0 0Z" fill="#004c4a"></path><path d="M0 220L22.8 220C45.7 220 91.3 220 137 227.7C182.7 235.3 228.3 250.7 274 252C319.7 253.3 365.3 240.7 411.2 235.7C457 230.7 503 233.3 548.8 233.8C594.7 234.3 640.3 232.7 686 239.8C731.7 247 777.3 263 823 268C868.7 273 914.3 267 937.2 264L960 261L960 0L937.2 0C914.3 0 868.7 0 823 0C777.3 0 731.7 0 686 0C640.3 0 594.7 0 548.8 0C503 0 457 0 411.2 0C365.3 0 319.7 0 274 0C228.3 0 182.7 0 137 0C91.3 0 45.7 0 22.8 0L0 0Z" fill="#005753"></path><path d="M0 156L22.8 163.8C45.7 171.7 91.3 187.3 137 195.3C182.7 203.3 228.3 203.7 274 210.2C319.7 216.7 365.3 229.3 411.2 221.8C457 214.3 503 186.7 548.8 173.2C594.7 159.7 640.3 160.3 686 166C731.7 171.7 777.3 182.3 823 185.7C868.7 189 914.3 185 937.2 183L960 181L960 0L937.2 0C914.3 0 868.7 0 823 0C777.3 0 731.7 0 686 0C640.3 0 594.7 0 548.8 0C503 0 457 0 411.2 0C365.3 0 319.7 0 274 0C228.3 0 182.7 0 137 0C91.3 0 45.7 0 22.8 0L0 0Z" fill="#00635b"></path><path d="M0 137L22.8 147.2C45.7 157.3 91.3 177.7 137 177.3C182.7 177 228.3 156 274 153.2C319.7 150.3 365.3 165.7 411.2 167C457 168.3 503 155.7 548.8 145.3C594.7 135 640.3 127 686 129.2C731.7 131.3 777.3 143.7 823 147.3C868.7 151 914.3 146 937.2 143.5L960 141L960 0L937.2 0C914.3 0 868.7 0 823 0C777.3 0 731.7 0 686 0C640.3 0 594.7 0 548.8 0C503 0 457 0 411.2 0C365.3 0 319.7 0 274 0C228.3 0 182.7 0 137 0C91.3 0 45.7 0 22.8 0L0 0Z" fill="#006f62"></path><path d="M0 90L22.8 100.5C45.7 111 91.3 132 137 138.8C182.7 145.7 228.3 138.3 274 138C319.7 137.7 365.3 144.3 411.2 145.3C457 146.3 503 141.7 548.8 131C594.7 120.3 640.3 103.7 686 102.7C731.7 101.7 777.3 116.3 823 118.2C868.7 120 914.3 109 937.2 103.5L960 98L960 0L937.2 0C914.3 0 868.7 0 823 0C777.3 0 731.7 0 686 0C640.3 0 594.7 0 548.8 0C503 0 457 0 411.2 0C365.3 0 319.7 0 274 0C228.3 0 182.7 0 137 0C91.3 0 45.7 0 22.8 0L0 0Z" fill="#007b69"></path><path d="M0 95L22.8 97.3C45.7 99.7 91.3 104.3 137 105.3C182.7 106.3 228.3 103.7 274 100.3C319.7 97 365.3 93 411.2 95.2C457 97.3 503 105.7 548.8 103.5C594.7 101.3 640.3 88.7 686 86.3C731.7 84 777.3 92 823 93C868.7 94 914.3 88 937.2 85L960 82L960 0L937.2 0C914.3 0 868.7 0 823 0C777.3 0 731.7 0 686 0C640.3 0 594.7 0 548.8 0C503 0 457 0 411.2 0C365.3 0 319.7 0 274 0C228.3 0 182.7 0 137 0C91.3 0 45.7 0 22.8 0L0 0Z" fill="#00886e"></path><path d="M0 55L22.8 57.2C45.7 59.3 91.3 63.7 137 66C182.7 68.3 228.3 68.7 274 63.2C319.7 57.7 365.3 46.3 411.2 43.5C457 40.7 503 46.3 548.8 45.8C594.7 45.3 640.3 38.7 686 41.5C731.7 44.3 777.3 56.7 823 62.5C868.7 68.3 914.3 67.7 937.2 67.3L960 67L960 0L937.2 0C914.3 0 868.7 0 823 0C777.3 0 731.7 0 686 0C640.3 0 594.7 0 548.8 0C503 0 457 0 411.2 0C365.3 0 319.7 0 274 0C228.3 0 182.7 0 137 0C91.3 0 45.7 0 22.8 0L0 0Z" fill="#009473"></path></svg>